<?xml version="1.0" encoding="UTF-8"?>
<svg id="Layer_1" data-name="Layer 1" xmlns="http://www.w3.org/2000/svg" xmlns:xlink="http://www.w3.org/1999/xlink" viewBox="0 0 101.2 71.03">
  <defs>
    <style>
      .cls-1, .cls-2 {
        fill: url(#linear-gradient);
      }

      .cls-3 {
        clip-path: url(#clippath);
      }

      .cls-4 {
        fill: none;
      }

      .cls-4, .cls-2, .cls-5, .cls-6, .cls-7, .cls-8, .cls-9, .cls-10, .cls-11, .cls-12, .cls-13, .cls-14, .cls-15, .cls-16, .cls-17, .cls-18, .cls-19, .cls-20, .cls-21, .cls-22, .cls-23, .cls-24, .cls-25, .cls-26, .cls-27, .cls-28 {
        stroke-width: 0px;
      }

      .cls-29 {
        mask: url(#mask);
      }

      .cls-30 {
        opacity: .12;
      }

      .cls-31, .cls-28 {
        fill: #e7cdfe;
      }

      .cls-32, .cls-21 {
        fill: #a077f4;
      }

      .cls-5 {
        fill: url(#linear-gradient-2);
        opacity: .31;
      }

      .cls-33 {
        clip-path: url(#clippath-1);
      }

      .cls-34 {
        clip-path: url(#clippath-3);
      }

      .cls-35 {
        clip-path: url(#clippath-2);
      }

      .cls-36 {
        opacity: .22;
      }

      .cls-6 {
        fill: #f477a5;
      }

      .cls-7 {
        fill: #f8bc8e;
      }

      .cls-8 {
        fill: #f8e58e;
      }

      .cls-9 {
        fill: #602a8d;
      }

      .cls-10 {
        fill: #968c28;
      }

      .cls-11 {
        fill: #352466;
      }

      .cls-12 {
        fill: #591b8c;
      }

      .cls-13 {
        fill: #1c478d;
      }

      .cls-14 {
        fill: #cbb351;
      }

      .cls-15 {
        fill: #d56bff;
      }

      .cls-16 {
        fill: #d5e6c8;
      }

      .cls-17 {
        fill: #a9bce6;
      }

      .cls-18 {
        fill: #cda9e6;
      }

      .cls-19 {
        fill: #b69d80;
      }

      .cls-20 {
        fill: #6726a0;
      }

      .cls-22 {
        fill: #662459;
      }

      .cls-23 {
        fill: #edc33d;
      }

      .cls-24 {
        fill: #fff;
      }

      .cls-25 {
        fill: #fee429;
      }

      .cls-26 {
        fill: #fef619;
      }

      .cls-27 {
        fill: #e7d582;
      }
    </style>
    <linearGradient id="linear-gradient" x1="33.29" y1="38.31" x2="129.09" y2="38.31" gradientUnits="userSpaceOnUse">
      <stop offset="0" stop-color="#fff"/>
      <stop offset="1" stop-color="#000"/>
    </linearGradient>
    <clipPath id="clippath">
      <path class="cls-2" d="m86.63,18.33c-8.44-8.04-27.21-13.62-38.53-10.91C36.78,10.13-5.16,20.2.53,32.14c5.69,11.93,56.46,31.17,67.89,36.28,11.43,5.11,19.33-4.26,24.56-11.67,5.22-7.41,3.26-29.28-6.35-38.42Z"/>
    </clipPath>
    <linearGradient id="linear-gradient-2" x1="33.09" y1="38.31" x2="128.89" y2="38.31" gradientUnits="userSpaceOnUse">
      <stop offset="0" stop-color="#fff"/>
      <stop offset=".19" stop-color="#fcfcfc"/>
      <stop offset=".32" stop-color="#f2f2f2"/>
      <stop offset=".44" stop-color="#e3e3e3"/>
      <stop offset=".54" stop-color="#ccc"/>
      <stop offset=".64" stop-color="#b0b0b0"/>
      <stop offset=".74" stop-color="#8c8c8c"/>
      <stop offset=".83" stop-color="#626262"/>
      <stop offset=".92" stop-color="#333"/>
      <stop offset="1" stop-color="#000"/>
    </linearGradient>
    <mask id="mask" x="0" y="6.73" width="95.8" height="63.15" maskUnits="userSpaceOnUse">
      <g>
        <path class="cls-1" d="m86.63,18.33c-8.44-8.04-27.21-13.62-38.53-10.91C36.78,10.13-5.16,20.2.53,32.14c5.69,11.93,56.46,31.17,67.89,36.28,11.43,5.11,19.33-4.26,24.56-11.67,5.22-7.41,3.26-29.28-6.35-38.42Z"/>
        <g class="cls-3">
          <path class="cls-5" d="m86.63,18.33c-8.44-8.04-27.21-13.62-38.53-10.91C36.78,10.13-5.16,20.2.53,32.14c5.69,11.93,56.46,31.17,67.89,36.28,11.43,5.11,19.33-4.26,24.56-11.67,5.22-7.41,3.26-29.28-6.35-38.42Z"/>
        </g>
      </g>
    </mask>
    <clipPath id="clippath-1">
      <path class="cls-28" d="m86.63,18.33c-8.44-8.04-27.21-13.62-38.53-10.91C36.78,10.13-5.16,20.2.53,32.14c5.69,11.93,56.46,31.17,67.89,36.28,11.43,5.11,19.33-4.26,24.56-11.67,5.22-7.41,3.26-29.28-6.35-38.42Z"/>
    </clipPath>
    <clipPath id="clippath-2">
      <path class="cls-4" d="m54.11,25.58c1.5.61,4.05,1.43,7.28,1.37,2.42-.04,4.4-.56,5.75-1.03-.05-.49-.11-.98-.17-1.48-.07-.57-.13-1.15-.2-1.73-.02-.13-.03-.25-.05-.38-.03-.22-.05-.45-.08-.67-.07-.57-.14-1.14-.22-1.72-.11-.86-.22-1.73-.34-2.59-.12-.86-.24-1.73-.36-2.59-.21-1.48-.43-2.94-.65-4.4-.94-.3-1.93-.68-3.16-.92-.72-.14-1.62-.19-2.27-.26-.34.06-.82.17-1.31.42-.42.21-.84.51-1.21.95-.72.87-.86,1.89-.93,2.44-.12.91-.34,2.19-.76,4.44-.1.53-.2,1.11-.32,1.75-.02.12-.04.23-.06.34-.14.72-.24,1.19-.34,1.7-.04.18-.07.37-.11.58-.03.19-.07.39-.1.61-.02.15-.05.31-.07.48-.06.45-.12.86-.16,1.24-.07.57-.11,1.05-.14,1.43Z"/>
    </clipPath>
    <clipPath id="clippath-3">
      <path class="cls-21" d="m13.41,31.83l15.05-1.2c.08,0,.14-.09.14-.18l.02-12.19c0-.09-.06-.17-.14-.18l-15.04-1.27c-.11,0-.2.07-.2.18l-.03,14.65c0,.11.09.19.2.19Z"/>
    </clipPath>
  </defs>
  <g class="cls-30">
    <path class="cls-13" d="m31.36,57.23c4.41,2.85,27.24,2.34,35.79-3.68,8.55-6.02,40.22-28.34,31.51-36.42-8.71-8.08-32.82,1.11-41.27-2.38-8.45-3.48-16.21-4.91-27.45-5.38s-14.73,9.98-16.63,17.89c-1.9,7.92-.48,12.51,7.13,17.42,7.6,4.91,4.12,8.15,10.93,12.55Z"/>
  </g>
  <g class="cls-29">
    <g class="cls-36">
      <path class="cls-31" d="m86.63,18.33c-8.44-8.04-27.21-13.62-38.53-10.91C36.78,10.13-5.16,20.2.53,32.14c5.69,11.93,56.46,31.17,67.89,36.28,11.43,5.11,19.33-4.26,24.56-11.67,5.22-7.41,3.26-29.28-6.35-38.42Z"/>
      <g class="cls-33">
        <g class="cls-30">
          <path class="cls-28" d="m86.63,18.33c-8.44-8.04-27.21-13.62-38.53-10.91C36.78,10.13-5.16,20.2.53,32.14c5.69,11.93,56.46,31.17,67.89,36.28,11.43,5.11,19.33-4.26,24.56-11.67,5.22-7.41,3.26-29.28-6.35-38.42Z"/>
        </g>
      </g>
    </g>
  </g>
  <g>
    <path class="cls-17" d="m10.86,53.1c-.41-.07-.8-.22-1.16-.45-.71-.45-1.2-1.15-1.39-1.97-.18-.82-.04-1.66.41-2.37.45-.71,1.15-1.2,1.97-1.39,1.69-.38,3.38.68,3.76,2.37h0c.18.82.04,1.66-.41,2.37-.45.71-1.15,1.2-1.97,1.39-.4.09-.81.1-1.21.04Zm.97-5.87c-.35-.06-.71-.05-1.08.03-.73.16-1.36.61-1.76,1.24s-.53,1.39-.37,2.12.61,1.36,1.24,1.76c.63.4,1.39.53,2.12.37.73-.16,1.36-.61,1.76-1.24.4-.63.53-1.39.37-2.12-.26-1.15-1.19-1.97-2.28-2.15Z"/>
    <path class="cls-17" d="m29.65,61.66l-2.51-11.15,11.15-2.51,2.51,11.15-11.15,2.51Zm-2.07-10.87l2.35,10.43,10.43-2.35-2.35-10.43-10.43,2.35Z"/>
  </g>
  <g>
    <polygon class="cls-25" points="10.21 54.63 6.36 58.03 4.88 52.44 10.21 54.63"/>
    <path class="cls-23" d="m27.18,47.06c0,.34-.1.68-.28.97-.26.41-.67.7-1.14.81-.23.05-.47.06-.7.02-.24-.04-.47-.13-.68-.26-.41-.26-.7-.67-.81-1.14-.11-.48-.02-.97.24-1.38.26-.41.67-.7,1.14-.81.98-.22,1.96.4,2.18,1.38.03.13.05.27.05.41Z"/>
    <rect class="cls-23" x="35.85" y="50.38" width="5.34" height="5.34" transform="translate(-15.93 89.57) rotate(-87.86)"/>
  </g>
  <path class="cls-17" d="m32.25,41.05c-.09,0-.16-.07-.17-.16-.1-4.08,3.49-16.67,5.65-17.05.41-.07.73.23.96.89.6,1.76.95,3.91,1.3,5.99.53,3.18,1.03,6.19,2.3,7.28.13.12.22.1.27.09.76-.27,1.43-4.06,2.03-7.41.78-4.39,1.58-8.92,2.95-9.46.23-.09.46-.08.67.04,1.06.58,1.66,3.81,2.31,7.23.65,3.44,1.38,7.34,2.5,7.34h0c.46,0,.87-.88,1.21-2.59.33-1.64.56-3.85.8-6.19.53-5.12,1.08-10.42,2.77-11.6.48-.34.97-.41,1.46-.21,2.44,1.01,3.88,8.86,3.94,9.19.02.09-.04.18-.13.19-.09.02-.18-.04-.19-.13-.01-.08-1.47-8-3.74-8.94-.38-.16-.75-.1-1.14.17-1.56,1.09-2.13,6.55-2.63,11.36-.58,5.62-1.01,9.07-2.34,9.08h0c-1.4,0-2.09-3.7-2.82-7.61-.6-3.19-1.22-6.5-2.14-7-.13-.07-.25-.08-.39-.02-1.19.47-2.01,5.12-2.74,9.21-.8,4.54-1.34,7.34-2.24,7.66-.14.05-.36.06-.6-.15-1.36-1.17-1.87-4.24-2.41-7.48-.34-2.06-.7-4.2-1.28-5.93-.16-.48-.36-.71-.58-.67-.8.14-2.13,2.85-3.4,6.9-1.23,3.92-2.02,7.87-1.97,9.82,0,.09-.07.17-.16.17h0Z"/>
  <rect class="cls-17" x="7.51" y="70.7" width="93.68" height=".33"/>
  <g>
    <path class="cls-7" d="m58.86,59.28c.05,1.66.1,3.31.15,4.97-.3.16-.76.35-1.33.45-.55.1-1.01.08-1.35.04-.2-1.93-.39-3.86-.59-5.78,1.04.11,2.08.21,3.12.32Z"/>
    <path class="cls-26" d="m50.88,66.26c.01.18.32.35.94.49,1.79-.15,3.2-.06,4.27.1.05,0,.09-.01.14-.02,1.22-.24,2.15-.06,2.86-.19.17-.03.31-.08.41-.15.1-.16.17-.33.21-.48.06-.24.06-.45.06-.53,0-.95-.66-1.54-.77-1.63-.43.56-1.11.83-1.72.67-.56-.14-.86-.57-.94-.7l-2.83,1.33c-1.77.43-2.65.8-2.63,1.11Z"/>
    <path class="cls-11" d="m50.88,66.26v.41s3.84.37,5.2.17c.05,0,.09-.01.14-.02,1.22-.24,2.15-.06,2.86-.19.17-.03.31-.08.41-.15.34-.2.39-.5.39-.5,0,0-.06,0-.18.02-1.15.09-7.42.59-8.82.25Z"/>
  </g>
  <g>
    <path class="cls-7" d="m66.2,59.28c.05,1.66.1,3.31.15,4.97-.3.16-.76.35-1.33.45-.55.1-1.01.08-1.35.04-.2-1.93-.39-3.86-.59-5.78,1.04.11,2.08.21,3.12.32Z"/>
    <path class="cls-26" d="m58.23,66.26c.01.18.32.35.94.49,1.79-.15,3.2-.06,4.27.1.05,0,.09-.01.14-.02,1.22-.24,2.15-.06,2.86-.19.17-.03.31-.08.41-.15.1-.16.17-.33.21-.48.06-.24.06-.45.06-.53,0-.95-.66-1.54-.77-1.63-.43.56-1.11.83-1.72.67-.56-.14-.86-.57-.94-.7l-2.83,1.33c-1.77.43-2.65.8-2.63,1.11Z"/>
    <path class="cls-11" d="m58.23,66.26v.41s3.84.37,5.2.17c.05,0,.09-.01.14-.02,1.22-.24,2.15-.06,2.86-.19.17-.03.31-.08.41-.15.34-.2.39-.5.39-.5,0,0-.06,0-.18.02-1.15.09-7.42.59-8.82.25Z"/>
  </g>
  <path class="cls-20" d="m54.37,25.08c-.19,1.77-.44,4.51-.6,7.87-.41,8.88.58,8.84.06,15.15-.38,4.6-1.08,6.89.06,10.47.63,1.99,1.55,3.5,2.24,4.47.95.04,1.9.08,2.85.12.23-.45.54-1.12.81-1.97.75-2.37.6-4.37.54-5.24-.2-2.81-.01-5.64-.31-8.44-.34-3.23-.43-8.09.75-15.02.06,4.65.02,8.4-.02,10.97-.06,3.82.57,7.68,0,11.45,0,0-.24,1.62.35,5.55.08.55.26,1.57,1.08,2.24.36.29.74.43,1,.5.95-.05,1.9-.1,2.85-.15.21-.16.52-.43.85-.81,1.94-2.24,1.74-5.33,1.54-7.83-.85-10.75-1.26-13.96-1.01-17.34.03-.46.11-1.46.14-2.87.03-1.64-.02-3.83-.33-6.34l-.28-2.27-12.56-.51Z"/>
  <g>
    <path class="cls-20" d="m54.37,25.08c-.19,1.77-.44,4.51-.6,7.87-.41,8.88.58,8.84.06,15.15-.38,4.6-1.08,6.89.06,10.47.63,1.99,1.55,3.5,2.24,4.47.95.04,1.9.08,2.85.12.23-.45.54-1.12.81-1.97.75-2.37.6-4.37.54-5.24-.2-2.81-.01-5.64-.31-8.44-.34-3.23-.43-8.09.75-15.02.06,4.65.02,8.4-.02,10.97-.06,3.82.57,7.68,0,11.45,0,0-.24,1.62.35,5.55.08.55.26,1.57,1.08,2.24.36.29.74.43,1,.5.95-.05,1.9-.1,2.85-.15.21-.16.52-.43.85-.81,1.94-2.24,1.74-5.33,1.54-7.83-.85-10.75-1.26-13.96-1.01-17.34.03-.46.11-1.46.14-2.87.03-1.64-.02-3.83-.33-6.34l-.28-2.27-12.56-.51Z"/>
    <g>
      <path class="cls-20" d="m56.55,33.91c-.13-1.05-.31-1.92-.48-1.92-.4,0-2.92.25-2.92.25,0,0-.09.96-.15,2.11v.68c-.05,1.2-.08,2.6.06,3.32.83.06,3.04.18,3.56-.16.22-.15.13-2.06-.06-3.59v-.68Z"/>
      <path class="cls-20" d="m67.79,34.79l.02-.72c-.14-1.12-.36-2.05-.6-2.06-.6-.02-4.36.09-4.36.09,0,0-.19,1.01-.34,2.22l-.02.72c-.16,1.26-.28,2.74-.12,3.52,1.23.12,4.51.38,5.31.04.34-.14.31-2.17.11-3.81Z"/>
    </g>
    <g>
      <g>
        <path class="cls-12" d="m56.6,33.88l-3.55.44c.06-1.15.15-2.11.15-2.11,0,0,2.51-.25,2.92-.25.16,0,.35.87.48,1.92Z"/>
        <path class="cls-12" d="m56.67,38.15c-.53.35-2.74.23-3.56.16-.14-.72-.11-2.12-.05-3.32l3.55-.44c.19,1.53.28,3.45.06,3.59Z"/>
      </g>
      <rect class="cls-20" x="54.42" y="33.73" width=".88" height="1.45" transform="translate(-.62 1.01) rotate(-1.05)"/>
      <g>
        <g>
          <path class="cls-12" d="m67.86,34.04l-5.3.25c.16-1.21.34-2.22.34-2.22,0,0,3.76-.11,4.36-.09.24,0,.47.94.6,2.06Z"/>
          <path class="cls-12" d="m67.73,38.56c-.8.34-4.08.08-5.31-.04-.17-.77-.04-2.25.12-3.52l5.3-.25c.2,1.63.23,3.67-.11,3.81Z"/>
        </g>
        <rect class="cls-20" x="64.86" y="33.85" width="1.32" height="1.54" transform="translate(.97 -1.78) rotate(1.57)"/>
      </g>
    </g>
  </g>
  <path class="cls-12" d="m68.42,54.41c-.85-10.75-1.26-13.96-1.01-17.34.03-.46.11-1.46.14-2.87.03-1.64-.02-3.83-.33-6.34l-.28-2.27-1.78-.07c.04.32.09.75.17,1.33.31,2.51.36,4.7.33,6.34-.03,1.41-.11,2.41-.14,2.87-.25,3.38.16,6.59,1.01,17.34.2,2.5.4,5.58-1.54,7.83,0,0,0,0,0,.01-.44.51-1.08.81-1.76.85-.51.03-1.02.06-1.53.08.13.19.29.38.49.54.36.29.74.43,1,.5.95-.05,1.9-.1,2.85-.15.21-.16.52-.43.85-.81,1.94-2.24,1.74-5.33,1.54-7.83Z"/>
  <g>
    <path class="cls-27" d="m44.22,14.56s.03.06.04.1c.29.64.61,1.25.95,1.82,2.11,3.57,4.93,5.56,7.06,5.07,1.67-.38,3.07-2.32,3.92-3.49,1.06-1.46,1.63-2.86,1.94-3.83.09-1.27.17-2.54.26-3.8-.89.27-2.05.72-3.26,1.52-1.94,1.27-3.1,2.82-3.72,3.8,0,0,0,0,0,.01l-.02.02c-.05-.06-.11-.12-.16-.19,0,0-.02-.02-.02-.03-1.04-1.15-2.21-2.06-3.43-2.77-.04-.02-.08-.05-.13-.07,0,0,0,0,0,0h0s-.03,0-.05,0c-.21-.02-.83-.05-1.49.14-.41.12-.85.33-1.21.68-.02.02-.04.04-.07.07-.03.03-.06.07-.09.1-.24.28-.4.59-.49.86,0,0,0,.01,0,.02Z"/>
    <path class="cls-27" d="m51.62,21.72c-2.08,0-4.6-1.99-6.49-5.19-.34-.58-.66-1.19-.95-1.83-.01-.03-.03-.06-.04-.1-.01-.02-.01-.05,0-.07l.09.03-.08-.04s0-.01,0-.01c.12-.33.29-.63.51-.88.03-.04.06-.07.1-.11.02-.02.05-.05.07-.07.33-.32.75-.56,1.25-.7.66-.19,1.28-.16,1.52-.14h.05s.03.01.04.02l.13.08c1.31.77,2.47,1.71,3.45,2.79l.02.03s.06.06.09.1c.97-1.52,2.22-2.78,3.71-3.76,1.01-.66,2.12-1.18,3.29-1.53.03,0,.06,0,.08.02.02.02.04.05.03.08l-.26,3.8s0,.02,0,.02c-.45,1.39-1.11,2.69-1.96,3.86l-.02.02c-.85,1.17-2.26,3.12-3.96,3.5-.22.05-.44.07-.67.07Zm-7.3-7.16s.02.04.03.06c.29.63.6,1.24.94,1.81,2.06,3.49,4.86,5.51,6.96,5.03,1.63-.37,3.02-2.29,3.85-3.43l.02-.02c.83-1.15,1.48-2.43,1.93-3.8l.25-3.66c-1.1.34-2.15.84-3.11,1.47-1.49.97-2.73,2.24-3.7,3.77h0s0,.02-.01.03l-.02.02s-.04.03-.07.03c-.03,0-.05-.01-.07-.03-.05-.06-.11-.12-.16-.19l-.02-.03c-.97-1.07-2.11-2-3.41-2.76l-.12-.07h-.03c-.23-.02-.82-.05-1.45.13-.47.13-.86.35-1.17.66-.02.02-.04.04-.06.06-.03.03-.06.06-.09.1-.2.23-.36.51-.47.81Z"/>
  </g>
  <path class="cls-19" d="m51.22,15.59c.07.64.13,1.35.15,1.78h.17c-.02-.41-.07-1.03-.13-1.63,0,0,0,0,0,.01l-.02.02c-.05-.06-.11-.12-.16-.19Z"/>
  <path class="cls-18" d="m52.11,14.5c.25.96.54,1.96.88,2.99.4,1.23.82,2.38,1.25,3.45.54-.6,1.15-1.37,1.72-2.31.22-.36.43-.75.64-1.17.08-.16.15-.31.22-.46,1.33-3,1.35-5.76,1.25-7.27-.39.2-.79.43-1.19.67-1.02.62-1.92,1.3-2.7,2-.48.43-.92.86-1.33,1.28-.26.27-.5.55-.73.81Z"/>
  <g>
    <path class="cls-18" d="m54.2,25.58c1.5.61,4.05,1.43,7.28,1.37,2.42-.04,4.4-.56,5.75-1.03-.05-.49-.11-.98-.17-1.48-.07-.57-.13-1.15-.2-1.73-.02-.13-.03-.25-.05-.38-.03-.22-.05-.45-.08-.67-.07-.57-.14-1.14-.22-1.72-.11-.86-.22-1.73-.34-2.59-.12-.86-.24-1.73-.36-2.59-.21-1.48-.43-2.94-.65-4.4-.94-.3-1.93-.68-3.16-.92-.72-.14-1.62-.19-2.27-.26-.34.06-.82.17-1.31.42-.42.21-.84.51-1.21.95-.72.87-.86,1.89-.93,2.44-.12.91-.34,2.19-.76,4.44-.1.53-.2,1.11-.32,1.75-.02.12-.04.23-.06.34-.14.72-.24,1.19-.34,1.7-.04.18-.07.37-.11.58-.03.19-.07.39-.1.61-.02.15-.05.31-.07.48-.06.45-.12.86-.16,1.24-.07.57-.11,1.05-.14,1.43Z"/>
    <path class="cls-15" d="m59.43,20.67c1.07-.51-1-4.95-3.34-6.43-.13.79-.32,1.81-.57,3.2-.1.53-.2,1.11-.32,1.75-.02.12-.04.23-.06.34-.14.72-.24,1.19-.34,1.7-.04.18-.07.37-.11.58,0,.04-.02.09-.02.14,1.38-.27,3.89-.85,4.78-1.27Z"/>
    <g class="cls-35">
      <path class="cls-20" d="m63.14,18.85c.32.53.62.7.86.7.1,0,.19-.03.26-.07.18-.09.33-.26.43-.41,0-.43-.02-.85-.03-1.28-.09.14-.24.32-.43.42-.26.13-.64.1-1.07-.64,0,.11,0,.23,0,.36,0,.33-.01.64-.02.92Z"/>
      <path class="cls-20" d="m60.87,19.53c.32.53.62.7.86.7.1,0,.19-.03.26-.07.18-.09.33-.26.43-.41,0-.43-.02-.85-.03-1.28-.09.14-.24.32-.43.42-.26.13-.64.1-1.07-.64,0,.11,0,.23,0,.36,0,.33-.01.64-.02.92Z"/>
      <path class="cls-20" d="m62.5,16.23c.32.53.62.7.86.7.1,0,.19-.03.26-.07.18-.09.33-.26.43-.41,0-.43-.02-.85-.03-1.28-.09.14-.24.32-.43.42-.26.13-.64.1-1.07-.64,0,.11,0,.23,0,.36,0,.33-.01.64-.02.92Z"/>
      <path class="cls-20" d="m60.63,17.37c.32.53.62.7.86.7.1,0,.19-.03.26-.07.18-.09.33-.26.43-.41,0-.43-.02-.85-.03-1.28-.09.14-.24.32-.43.42-.26.13-.64.1-1.07-.64,0,.11,0,.23,0,.36,0,.33-.01.64-.02.92Z"/>
      <path class="cls-20" d="m58.47,18.73c.32.53.62.7.86.7.1,0,.19-.03.26-.07.18-.09.33-.26.43-.41,0-.43-.02-.85-.03-1.28-.09.14-.24.32-.43.42-.26.13-.64.1-1.07-.64,0,.11,0,.23,0,.36,0,.33-.01.64-.02.92Z"/>
      <path class="cls-20" d="m56.2,19.41c.32.53.62.7.86.7.1,0,.19-.03.26-.07.18-.09.33-.26.43-.41,0-.43-.02-.85-.03-1.28-.09.14-.24.32-.43.42-.26.13-.64.1-1.07-.64,0,.11,0,.23,0,.36,0,.33-.01.64-.02.92Z"/>
      <path class="cls-20" d="m57.82,16.12c.32.53.62.7.86.7.1,0,.19-.03.26-.07.18-.09.33-.26.43-.41,0-.43-.02-.85-.03-1.28-.09.14-.24.32-.43.42-.26.13-.64.1-1.07-.64,0,.11,0,.23,0,.36,0,.33-.01.64-.02.92Z"/>
      <path class="cls-20" d="m55.95,17.26c.32.53.62.7.86.7.1,0,.19-.03.26-.07.18-.09.33-.26.43-.41,0-.43-.02-.85-.03-1.28-.09.14-.24.32-.43.42-.26.13-.64.1-1.07-.64,0,.11,0,.23,0,.36,0,.33-.01.64-.02.92Z"/>
    </g>
    <path class="cls-15" d="m67.03,24.43c-.07-.57-.13-1.15-.2-1.73-.02-.13-.03-.25-.05-.38-.03-.22-.05-.45-.08-.67-.07-.57-.14-1.14-.22-1.72-.11-.86-.22-1.73-.34-2.59-.12-.86-.24-1.73-.36-2.59-.11-.76-.22-1.53-.33-2.28-.24.42-.1,2.73-.09,3.86,0,1.12-.2,8.75-.1,10.14.74-.17,1.4-.37,1.94-.56-.05-.49-.11-.98-.17-1.48Z"/>
  </g>
  <path class="cls-20" d="m62.05,9.43c-.07.83-.87,1.49-1.84,1.49-.92,0-1.68-.59-1.82-1.36.5-.23.98-.34,1.31-.4l2.34.27Z"/>
  <g>
    <path class="cls-27" d="m64.69,10.46c.21,1.66.42,3.31.63,4.97.21,1.04.73,2.69,2.1,3.95.78.72,1.33.84,1.51.88,1.46.28,2.69-.9,2.89-1.09-.25-1.12-.91-3.42-2.84-5.59-1.57-1.76-3.28-2.67-4.3-3.11Z"/>
    <path class="cls-27" d="m69.4,20.4c-.15,0-.31-.01-.47-.05-.48-.09-1.01-.4-1.56-.9-1.34-1.23-1.9-2.86-2.13-4-.21-1.66-.42-3.32-.63-4.98,0-.03,0-.07.04-.09.03-.02.06-.02.09-.01,1.65.72,3.14,1.8,4.33,3.14,1.78,2.01,2.54,4.17,2.86,5.63,0,.03,0,.06-.03.09-.3.29-1.28,1.16-2.5,1.16Zm-4.59-9.78c.2,1.6.41,3.2.61,4.81.23,1.11.77,2.7,2.07,3.9.52.47,1.02.77,1.47.86,1.3.25,2.41-.68,2.77-1.03-.32-1.44-1.07-3.55-2.81-5.5-1.13-1.27-2.55-2.32-4.12-3.02Z"/>
  </g>
  <path class="cls-18" d="m69.73,14.47c.16-.19.25-.3.25-.3-.16-.28-.38-.62-.66-1-.31-.41-.7-.85-1.17-1.27-.61-.54-1.36-1.05-2.28-1.4-.42-.16-1.05-.34-1.42-.34.01.1.11.76.12.86.17,1.33.32,2.13.49,3.46.04.33.08.66.12.99.04.31.14.6.18.91.06.45.3,1.41.3,1.41.28-.06.52-.26.81-.43l3.24-2.89Z"/>
  <path class="cls-20" d="m65.06,14.48c.04.33.08.66.12.99.04.31.08.56.12.86,1.51-.94,3.03-2.18,4-3.16-.31-.41-.7-.85-1.17-1.27-.23.23-.48.47-.75.73-.64.6-1.53,1.29-2.33,1.85Z"/>
  <path class="cls-24" d="m52.84,13.69c.23.53.52,1.13.86,1.76.72,1.32,1.47,2.38,2.26,3.18.22-.36.43-.75.64-1.17.08-.16.15-.31.22-.46-1.17-1.37-2.1-3.26-2.65-4.59-.48.43-.92.86-1.33,1.28Z"/>
  <path class="cls-9" d="m46.75,10.84l12.16,1.42c.18.02.32.15.35.33.43,2.42.86,4.84,1.29,7.25.05.26-.17.5-.44.47-3.87-.43-7.73-.85-11.6-1.28-.17-.02-.3-.14-.34-.3l-1.84-7.4c-.07-.27.16-.53.44-.49Z"/>
  <path class="cls-6" d="m46.41,10.78l12.16,1.42c.18.02.32.15.35.33.43,2.42.86,4.84,1.29,7.25.05.26-.17.5-.44.47-3.87-.43-7.73-.85-11.6-1.28-.17-.02-.3-.14-.34-.3l-1.84-7.4c-.07-.27.16-.53.44-.49Z"/>
  <path class="cls-24" d="m53.96,15.67c-.06.51-.52.87-1.02.81-.51-.06-.87-.52-.81-1.02.06-.51.52-.87,1.02-.81s.87.52.81,1.02Z"/>
  <g>
    <path class="cls-8" d="m45.7,16.92c.18.13,1.06.35,2.82.8.13.03,1.14.26,1.47-.06.09-.09.14-.19.18-.3.05-.16.05-.33.04-.46,0-.03,0-.07,0-.1,0,0,0-.01,0-.02.58.07.87-.13.95-.65.04-.26-.05-.4-.15-.47-.07-.05-.14-.07-.18-.08.06,0,.18.02.33,0,.28-.03.63-.17.72-.62.1-.52-.36-.74-.69-.82-.16-.04-.28-.05-.29-.06,0,0,.12,0,.27-.02.35-.05.88-.22.75-.77-.17-.7-2.33-.92-2.92-.97-.09,0-.15-.01-.15-.01-.03,0-.08-.01-.14-.02-.85-.14-1.38-.44-1.59-.52-.81-.3-2.56.53-2.94,1.96-.47,1.72,1.37,3.08,1.53,3.2Z"/>
    <path class="cls-8" d="m49.35,17.92c-.39,0-.79-.1-.86-.11l-.13-.03c-1.73-.44-2.53-.64-2.72-.78-.21-.15-2.05-1.54-1.57-3.3.2-.73.77-1.39,1.54-1.79.57-.29,1.14-.38,1.53-.24.05.02.1.04.18.08.27.12.73.33,1.39.44.06,0,.1.02.14.02,0,0,.05,0,.14.01.84.07,2.83.31,3,1.04.05.2.02.37-.07.51-.12.18-.33.28-.54.33.45.17.65.48.57.87-.08.4-.36.65-.8.7,0,0,0,0-.01,0,.07.09.13.24.1.47-.08.54-.37.77-.94.74,0,0,0,0,0,0,.01.19,0,.35-.05.5-.04.14-.11.25-.2.34-.16.15-.43.2-.7.2Zm-2.62-6.13c-.3,0-.67.1-1.03.28-.72.37-1.26,1-1.44,1.67-.45,1.65,1.3,2.96,1.5,3.11h0c.16.12,1.05.34,2.65.75l.13.03c.3.08,1.13.21,1.38-.04.07-.07.12-.16.15-.27.04-.12.05-.27.04-.43,0-.03,0-.06,0-.09,0-.03,0-.07.03-.09.02-.02.05-.04.07-.04.53.06.78-.1.85-.57.03-.18-.01-.31-.11-.38-.05-.04-.11-.06-.15-.06-.05,0-.08-.06-.07-.11,0-.05.05-.08.1-.08.03,0,.16.02.31,0,.36-.04.58-.23.64-.55.08-.43-.29-.63-.62-.72-.14-.04-.26-.05-.28-.05-.05,0-.09-.05-.08-.1,0-.05.04-.09.09-.09.09,0,.18,0,.26-.02.3-.04.53-.15.62-.29.07-.1.08-.22.05-.37-.12-.5-1.6-.79-2.84-.89-.09,0-.15-.01-.15-.01-.04,0-.09-.01-.15-.02-.69-.11-1.16-.33-1.44-.45-.07-.03-.12-.06-.17-.07-.1-.04-.22-.06-.35-.06Z"/>
  </g>
  <path class="cls-27" d="m50.72,14.16c-1.01,0-2.46-.36-2.53-.38-.05-.01-.08-.06-.07-.11.01-.05.06-.08.11-.07.02,0,1.67.42,2.65.37.05,0,.09.04.1.09,0,.05-.04.09-.09.1-.06,0-.11,0-.17,0Z"/>
  <path class="cls-27" d="m50.72,15.66c-1.07,0-2.81-.42-2.89-.44-.05-.01-.08-.06-.07-.11.01-.05.06-.08.11-.07.02,0,1.91.47,2.94.44.05,0,.09.04.1.09,0,.05-.04.09-.09.1-.03,0-.07,0-.1,0Z"/>
  <path class="cls-27" d="m50.06,16.88c-1.06,0-2.54-.42-2.61-.43-.05-.01-.08-.07-.06-.11.01-.05.07-.08.11-.06.02,0,1.66.47,2.69.43.05,0,.09.04.1.09,0,.05-.04.09-.09.1-.05,0-.1,0-.14,0Z"/>
  <g>
    <path class="cls-27" d="m69.26,7.27c.39-.6,2.08.71,2.08.71.04-.54.34-4.26.78-4.99.06-.09.19-.31.41-.34.27-.03.5.26.53.3.11.14.18.32.18.76,0,.12,0,.26-.01.42,0,.04,0,.07,0,.11,0,.11-.02.24-.04.37-.01.09-.02.18-.04.28,0-.01.01-.03.02-.04.02-.05.16-.34.47-.43.29-.08.53.07.57.09.19.12.28.29.31.36,0,0,0-.01.02-.03h0c.05-.05.26-.25.59-.25.25,0,.54.11.69.35.06.09.09.19.1.25.01,0,.03-.02.05-.03.1-.05.27-.12.49-.1,0,0,.32.03.58.28.16.17.34.53-.11,2.24-.05.18-.09.34-.13.5-.07.26-.14.49-.2.7-.09.27-.18.49-.28.7h0s-1.52,4.63-1.52,4.63c-.69,2.11-1.23,3.93-3.44,5.58,0,0-3.85,1.45-2.85-3.55l1.6-4.31.81-2.4c-.44-.35-2-1.65-1.66-2.17Z"/>
    <g>
      <path class="cls-8" d="m74.54,4.84s-.02.02-.02.03c0,0,0,0,0,0-.03-.07-.12-.24-.31-.36-.05-.03-.29-.17-.57-.09-.31.09-.44.37-.47.43,0,.01-.01.03-.02.04.01-.1.03-.19.04-.28-.31,1.29-.39,2.22-.39,2.22-.04.55-.02.88.2,1.1.15.14.41.26.66.18.18-.06.32-.21.39-.4.02-.05.03-.09.04-.14,0,.08.02.16.05.24.09.24.29.42.52.46.28.05.59-.12.74-.41h0c.03-.06.06-.13.07-.21,0-.05.01-.09.02-.14,0,.05,0,.15.03.26.02.07.05.15.1.23.04.07.21.33.54.36.36.03.6-.25.61-.27.04-.16.09-.32.13-.5.45-1.72.27-2.08.11-2.24-.25-.26-.58-.28-.58-.28-.2-.02-.37.04-.47.09,0,0,0,0-.01,0-.02,0-.03.02-.05.03,0-.03-.02-.07-.03-.11-.02-.04-.04-.09-.07-.14-.15-.24-.44-.35-.69-.35-.22,0-.38.09-.48.17-.05.04-.09.07-.1.09Z"/>
      <path class="cls-8" d="m76.16,8.45c-.17-.02-.41-.1-.61-.41-.03-.04-.05-.08-.07-.13-.17.32-.51.5-.83.44-.25-.04-.47-.23-.58-.48-.09.15-.23.26-.38.31-.3.1-.6-.04-.76-.2-.25-.24-.27-.6-.23-1.17,0,0,.08-.94.39-2.23.01-.05.06-.08.11-.07.02,0,.04.01.05.03.08-.09.2-.18.36-.22.21-.06.44-.02.65.1.13.08.22.19.28.28.01-.01.03-.02.05-.03.11-.08.3-.18.54-.18.31,0,.62.15.77.39.03.05.06.1.08.16,0,0,0,0,0,0,.16-.07.32-.1.48-.08.01,0,.36.03.64.31.22.22.35.65-.08,2.33-.05.18-.09.34-.13.5,0,.01,0,.02-.02.03-.03.03-.26.31-.63.31-.02,0-.05,0-.07,0Zm.67-.89c.47-1.81.23-2.06.13-2.15-.23-.23-.52-.26-.52-.26-.18-.02-.33.04-.42.08,0,0-.01,0-.01,0-.02,0-.03.02-.04.02-.03.02-.06.02-.09,0-.03-.01-.05-.04-.05-.07,0-.03-.01-.07-.03-.1-.02-.04-.03-.08-.06-.12-.15-.23-.42-.31-.61-.31-.19,0-.34.08-.43.15-.04.03-.07.05-.09.07,0,0,0,.01-.01.02-.02.03-.05.04-.09.04-.03,0-.06-.02-.08-.06-.04-.09-.12-.22-.27-.31-.09-.06-.28-.14-.5-.08-.25.07-.37.29-.41.38,0,.01-.01.03-.02.04,0,.02-.02.04-.04.05-.24,1.09-.31,1.86-.31,1.87-.04.53-.03.83.17,1.03.13.13.36.23.57.16.15-.05.27-.17.33-.34.02-.04.03-.08.04-.13,0-.05.05-.08.1-.08.05,0,.08.04.09.09,0,.07.02.14.04.21.08.21.26.37.45.4.24.04.52-.11.65-.36.03-.06.05-.12.06-.18,0-.04.01-.08.01-.13,0-.05.04-.09.09-.09.05,0,.09.04.09.09,0,.08,0,.16.03.23.02.07.05.14.09.2.16.24.34.31.47.32.28.03.47-.16.52-.22.04-.15.08-.31.13-.48Z"/>
    </g>
    <path class="cls-27" d="m74.09,7.65s.08-.03.09-.08l.43-2.69c0-.05-.03-.1-.08-.11-.05,0-.1.03-.11.08l-.43,2.69c0,.05.03.1.08.11,0,0,0,0,.01,0Z"/>
    <path class="cls-27" d="m75.5,7.6s.08-.03.09-.07l.47-2.35c0-.05-.02-.1-.07-.11-.05,0-.1.02-.11.07l-.47,2.35c0,.05.02.1.07.11,0,0,.01,0,.02,0Z"/>
  </g>
  <g>
    <path class="cls-27" d="m61.17,5.53l.46,3.83c-.04.11-.24.57-.81.81-.62.26-1.41.15-1.96-.29,0-.12-.01-.24-.02-.36-.01-.23-.02-.47-.03-.7-.01-.31-.03-.61-.04-.92,0-.12-.01-.25-.02-.37-.03-.56-.05-1.13-.08-1.69l2.49-.3Z"/>
    <path class="cls-27" d="m58.8,9.95s-.03-.04-.04-.07l-.19-4.04s.03-.09.08-.1l2.49-.3c.05,0,.1.03.11.08l.46,3.83s0,.03,0,.05c-.07.18-.3.62-.86.86-.16.07-.34.11-.51.14-.54.06-1.12-.09-1.54-.44Zm2.28-4.31l-2.31.28.18,3.91c.51.39,1.25.5,1.83.25.47-.2.67-.56.75-.73l-.44-3.71Z"/>
  </g>
  <path class="cls-22" d="m63,5.2c-.02.14-.08.15-.14.33-.09.25,0,.31-.08.46-.09.17-.21.12-.37.32-.17.21-.12.38-.26.44-.14.06-.24-.07-.36,0-.12.07-.08.25-.19.29-.05.02-.14.02-.28-.1-.04.02-.08.05-.13.07-.05.02-.1.04-.15.06-.08-.18-.2-.46-.29-.82-.14-.58-.08-.83-.16-1.04-.13-.36-.73-.72-2.8-.67-.08,0-.3-.03-.59-.08-.26-.04-.48-.09-.62-.12-.05.04-.16.13-.3.13-.22-.01-.36-.25-.4-.31-.12-.2-.06-.31-.19-.43-.11-.11-.2-.07-.24-.15-.08-.14.15-.28.16-.56,0-.25-.17-.33-.1-.49.07-.17.3-.16.32-.31.01-.09-.06-.11-.08-.26,0-.03-.02-.17.06-.28.09-.14.22-.09.38-.23.16-.13.09-.22.23-.34.18-.15.32-.04.47-.19.13-.12.06-.22.19-.34.15-.14.29-.03.52-.15.23-.12.23-.3.41-.32.14-.01.16.1.33.1.22,0,.26-.19.47-.19.17,0,.18.12.38.14.24.02.3-.15.49-.1.17.04.17.2.34.23.18.03.26-.14.4-.09.16.06.11.31.27.37.15.06.27-.15.44-.1.16.05.12.27.32.37.17.09.27-.04.41.04.19.11.08.38.29.55.16.13.29.05.38.18.1.14-.01.26.09.4.1.13.22.07.29.19.08.12-.03.22.05.4.05.12.1.09.16.21.09.18-.02.28.06.49.06.17.14.15.17.3.03.17-.09.21-.13.47-.03.25.07.29,0,.45-.07.19-.23.17-.27.35-.03.14.06.18.04.36Z"/>
  <g>
    <path class="cls-8" d="m56.59,4.81c-.02-.33,0-.61,0-.79.06-.17.2-.44.47-.65.55-.42,1.22-.25,1.4-.21.41.1.69.31.78.38.28.22.49.38.59.62.02.05.08.2.22.28.08.05.15.05.19.07.08.03.15.08.21.14.09-.1.2-.16.3-.16.19,0,.38.19.45.38.09.25-.03.49-.13.7-.05.11-.16.28-.35.45,0,.06,0,.13.01.2.03.34.04.51,0,.65-.11.51-.48.8-.86,1.11-.46.37-.87.71-1.38.63-.26-.04-.46-.2-.62-.31-.09-.06-.35-.27-.56-.64-.15-.26-.19-.43-.34-1.04-.3-1.22-.36-1.35-.39-1.81Z"/>
    <path class="cls-8" d="m58.5,8.82c-.27-.04-.49-.2-.64-.32h-.02c-.23-.18-.43-.42-.59-.68-.15-.25-.19-.42-.31-.92l-.04-.15c-.08-.34-.15-.59-.2-.79-.14-.53-.18-.7-.2-1.04h0c-.02-.27-.02-.54,0-.8,0,0,0-.02,0-.03.11-.29.28-.53.5-.7.39-.29.88-.37,1.48-.23.29.07.57.2.82.4.29.23.51.39.63.67.02.05.07.16.18.23.05.03.08.04.12.04.02,0,.04,0,.05.01.07.02.12.06.18.1.1-.08.2-.12.3-.12.24,0,.46.22.54.44.11.29-.03.56-.14.77-.08.17-.2.32-.34.45,0,.05,0,.1.01.15.03.34.04.52,0,.68-.12.54-.51.86-.89,1.17-.38.31-.75.61-1.17.66-.09.01-.19.01-.29,0Zm2.04-3.99s-.04.03-.07.03c-.03,0-.05-.01-.07-.03-.04-.05-.1-.09-.16-.11,0,0-.02,0-.03,0-.04,0-.11-.02-.18-.07-.16-.1-.23-.25-.26-.33-.1-.22-.29-.37-.56-.58-.23-.18-.48-.3-.74-.36-.54-.13-.98-.06-1.32.19-.19.15-.34.35-.43.6-.02.25-.02.51,0,.76h0c.02.32.06.48.19,1,.05.2.12.46.2.79l.04.15c.12.5.16.65.29.87.14.24.33.46.54.61l.02.02c.15.11.33.25.56.28.47.07.86-.25,1.31-.61.37-.3.72-.59.83-1.06.03-.13.02-.28-.01-.62,0-.07-.01-.13-.01-.2,0-.03,0-.06.03-.08.14-.12.25-.27.33-.43.1-.2.21-.4.13-.62-.06-.15-.21-.32-.36-.31,0,0-.01,0-.02,0-.07,0-.15.05-.21.13Z"/>
    <g>
      <path class="cls-22" d="m57.74,6.95c-.07,0-.16-.01-.24-.06-.06-.04-.14-.12-.17-.27-.06-.3.1-1.25.12-1.35.01-.06.07-.1.13-.09.06.01.1.07.09.13-.05.28-.16,1.05-.12,1.27.01.06.03.1.07.12.07.04.17.03.21.02.06-.02.12.02.14.08.02.06-.02.12-.08.14-.01,0-.07.02-.14.02Z"/>
      <path class="cls-22" d="m58.48,8.15c-.44,0-.7-.44-.72-.46-.03-.04-.02-.1.02-.14.04-.04.09-.04.14-.02,0,0,.16.09.33,0,.12-.06.24-.21.28-.26.02-.03.07-.05.11-.04.04,0,.08.04.09.08.03.09.15.52.03.72-.04.06-.09.1-.15.11-.04,0-.08.01-.12.01Zm-.33-.35c.1.08.25.15.41.12.03-.03.03-.17,0-.35-.06.06-.14.12-.22.16-.07.03-.13.05-.2.06Z"/>
      <path class="cls-22" d="m58.52,5.46c.03.17-.01.32-.1.34-.09.02-.18-.11-.21-.28-.03-.17.01-.32.1-.34s.18.11.21.28Z"/>
      <path class="cls-22" d="m57.19,5.65c.03.17-.01.32-.1.34-.09.02-.18-.11-.21-.28-.03-.17.01-.32.1-.34.09-.02.18.11.21.28Z"/>
      <path class="cls-22" d="m57.97,4.53c.06-.05.15-.1.3-.04.11.04.31.29.35.38.04.08-.03.1-.11.04s-.23-.17-.32-.19c-.1-.02-.23-.01-.25-.06-.02-.05.01-.1.03-.12Z"/>
      <path class="cls-22" d="m57,4.73c-.06-.04-.16-.08-.3,0-.1.05-.27.33-.3.42-.03.09.04.1.12.03.07-.07.21-.2.29-.23.09-.03.23-.04.24-.1s-.02-.1-.05-.12Z"/>
    </g>
  </g>
  <path class="cls-22" d="m57.58,7.3c.15-.19.38-.34.62-.4.27-.01.51,0,.77.13.35.23.38.69.4,1.07,0,.27-.1.59-.39.7-.26.08-.51.11-.77.05-.64-.13-1.02-1.03-.63-1.54h0Zm0,0c-.16.2-.03.45.08.65.07.21.15.42.33.55.16.13.38.17.6.15.2-.02.42-.04.51-.25.08-.18.06-.42.02-.64-.06-.38-.17-.6-.56-.63-.11-.02-.22-.02-.33-.01-.21,0-.49-.02-.65.18h0Z"/>
  <path class="cls-22" d="m60.01,4.12c-.12.01-.19.13-.14.24.07.16.14.39.1.61-.04.24-.07.47-.09.61,0,.09.05.17.14.19h0c.09.02.18-.04.2-.13.1-.44.39-1.63.49-1.61.08.02-.39.06-.7.09Z"/>
  <path class="cls-22" d="m60.76,5.8s.02,0,.04-.01c.15-.09.24-.27.23-.47,0-.17-.08-.31-.2-.37-.06-.03-.18-.05-.32.06-.04.03-.05.09-.02.13.03.04.09.05.13.02.03-.03.08-.06.12-.04.05.02.09.11.09.2,0,.1-.03.23-.14.29-.05.03-.06.08-.04.13.02.03.06.05.09.05Z"/>
  <path class="cls-20" d="m56.44,3.92s.01,0,.02,0c.05,0,.09-.06.08-.11,0-.05-.06-.09-.11-.08-.06.01-.09-.01-.1-.03-.05-.06-.06-.17-.02-.26.04-.11.1-.31.02-.48-.05-.1-.13-.17-.24-.21-.02,0-.05-.02-.04-.09.01-.16.16-.34.21-.35.23.04.32-.13.46-.38.07-.13.06-.26.06-.35,0-.01,0-.02,0-.04.01,0,.03,0,.06.01l.07.02c.22.07.27.05.38-.15.03-.05.07-.12.12-.21.03-.04.02-.1-.03-.13-.04-.03-.1-.02-.13.03-.06.1-.1.17-.13.23-.02.03-.04.07-.05.08-.02,0-.06-.02-.1-.03l-.07-.02c-.09-.03-.18-.04-.25.01-.07.05-.06.14-.05.21,0,.07.01.16-.03.24-.15.28-.18.3-.26.29-.17-.03-.36.24-.41.43-.05.18,0,.32.15.37.06.02.11.06.13.11.04.08.03.21-.02.34-.06.16-.04.34.05.45.06.08.16.11.26.1Z"/>
  <g>
    <path class="cls-16" d="m94.15,66.86h-10.63v-14.22h10.63v14.22Zm-10.29-.33h9.96v-13.55h-9.96v13.55Z"/>
    <path class="cls-14" d="m88.01,52.65c-.72-1.06-4.2-18.91-.72-21.3,2.94-2.02,4.19,3.23,4.24,8.39.03,2.94-1.88,12.92-1.88,12.92h-1.64Z"/>
    <path class="cls-10" d="m90.94,45.13s.8.3,2.07-1.1c1.27-1.39.25-7.39.34-8.41s.3-2.41,1.65-2.62c1.35-.21,2.2,1.31,2.49,3.42s-.42,7.44-3.13,9.21c-1.53,1.01-3.63.55-3.63.55l.21-1.06Z"/>
    <path class="cls-14" d="m87.43,50.58s-.13,0-.25-.02c-1.19-.11-4.44-.32-6.97-3.15-1.94-2.17-2.79-7.38-1.44-8.37,1.69-1.23,2.96.51,3.42,3.68.57,3.89,3.36,5.83,4.77,5.83.04,0,.42,2.03.42,2.03h.05Z"/>
    <rect class="cls-10" x="86.91" y="30.89" width=".33" height="1.78" transform="translate(-5.43 37.76) rotate(-23.75)"/>
    <rect class="cls-10" x="89.67" y="32.34" width="1.7" height=".33" transform="translate(2.64 71.6) rotate(-43.73)"/>
    <path class="cls-10" d="m88.64,35.57c-.07-.12-.78-.67-1.39-1.11l.19-.27c.41.3,1.38,1.01,1.49,1.23l-.3.15.15-.07-.15.08Z"/>
    <rect class="cls-10" x="90.59" y="35.62" width="1.29" height=".33" transform="translate(14.91 97.26) rotate(-60.26)"/>
    <rect class="cls-10" x="87.02" y="37.91" width=".33" height="1.82" transform="translate(-7.36 51.82) rotate(-31.83)"/>
    <rect class="cls-10" x="86.09" y="40.55" width=".33" height="1.5" transform="translate(22.15 112.27) rotate(-73.49)"/>
    <rect class="cls-10" x="88.82" y="41.91" width="1.7" height=".33" transform="translate(6.3 95.56) rotate(-57.82)"/>
    <rect class="cls-10" x="90.24" y="44.04" width="1.73" height=".33" transform="translate(-4.57 77.37) rotate(-45)"/>
    <rect class="cls-10" x="86.94" y="45.15" width=".33" height="1.67" transform="translate(3.13 97.48) rotate(-59.35)"/>
    <rect class="cls-10" x="89.4" y="48.67" width="1.49" height=".33" transform="translate(-9.36 24.16) rotate(-14.52)"/>
    <rect class="cls-10" x="87.34" y="50.26" width=".33" height="1.58" transform="translate(10 116.29) rotate(-70.35)"/>
    <rect class="cls-10" x="83.74" y="47.21" width="1.29" height=".33" transform="translate(26.94 125.26) rotate(-82.89)"/>
    <rect class="cls-10" x="79.08" y="44.86" width=".33" height="1.63" transform="translate(18.92 114.42) rotate(-78.69)"/>
    <rect class="cls-10" x="81.1" y="42.97" width="1.46" height=".33" transform="translate(1 88.13) rotate(-56.9)"/>
    <rect class="cls-10" x="80.04" y="40.29" width=".33" height="1.6"/>
    <rect class="cls-10" x="81.9" y="46.74" width=".33" height=".95" transform="translate(3.14 99.51) rotate(-63.43)"/>
    <rect class="cls-10" x="78.28" y="38.72" width=".33" height="1.01" transform="translate(-8.38 26.82) rotate(-18.44)"/>
    <rect class="cls-10" x="95.75" y="33.67" width="1.22" height=".33" transform="translate(10.48 89.11) rotate(-52.12)"/>
    <rect class="cls-10" x="96.9" y="38.9" width="1.3" height=".33" transform="translate(-7.42 34.23) rotate(-19.19)"/>
    <rect class="cls-10" x="93.63" y="39.59" width=".33" height="1.66" transform="translate(8.63 96.8) rotate(-56.82)"/>
    <rect class="cls-10" x="93.84" y="33.29" width=".33" height=".98" transform="translate(.64 69.31) rotate(-40.6)"/>
    <rect class="cls-10" x="95.2" y="43.43" width="1.25" height=".33" transform="translate(-9.13 35.37) rotate(-19.98)"/>
    <rect class="cls-10" x="96.27" y="36.15" width="1.82" height=".33" transform="translate(8.84 90.71) rotate(-52.12)"/>
  </g>
  <g>
    <path class="cls-13" d="m6.95,45.24l24.13-3.59c.92-.14,1.65-1.14,1.65-2.25V8.71c0-1.11-.73-2.11-1.65-2.24L6.95,3.03c-1.34-.19-2.44.76-2.44,2.14v37.95c0,1.37,1.1,2.32,2.44,2.12Z"/>
    <path class="cls-24" d="m8.18,44.67l23.77-3.47c.9-.13,1.61-1.12,1.61-2.22V8.49c0-1.09-.72-2.09-1.61-2.22L8.18,2.83c-1.31-.19-2.39.75-2.39,2.1v37.65c0,1.35,1.08,2.29,2.39,2.1Z"/>
    <path class="cls-21" d="m33.57,8.47c0-1.32-.87-2.52-1.95-2.68L8.66,2.38c-1.57-.23-2.87.89-2.87,2.52v2.49l27.77,3.09v-2.02Z"/>
    <g>
      <path class="cls-24" d="m14.44,5.8c0-.49.37-.84.83-.78.45.06.82.51.82.99s-.36.84-.82.78c-.46-.06-.83-.5-.83-.99Z"/>
      <path class="cls-24" d="m11.81,5.46c0-.5.39-.86.86-.79.47.06.85.52.85,1.01s-.38.85-.85.79c-.47-.06-.86-.51-.86-1.02Z"/>
      <path class="cls-24" d="m8.97,5.09c0-.51.4-.87.89-.81.49.07.88.53.88,1.04s-.39.87-.88.81c-.49-.06-.89-.53-.89-1.04Z"/>
    </g>
  </g>
  <g>
    <g>
      <path class="cls-32" d="m13.41,31.83l15.05-1.2c.08,0,.14-.09.14-.18l.02-12.19c0-.09-.06-.17-.14-.18l-15.04-1.27c-.11,0-.2.07-.2.18l-.03,14.65c0,.11.09.19.2.19Z"/>
      <g class="cls-34">
        <g>
          <g>
            <g>
              <path class="cls-24" d="m28.61,29.45l-3.39-6.53c-.23-.44-.8-.44-1.02,0l-3.47,7.06c-.24.48.07,1.03.56.99l6.86-.53c.42-.03.67-.59.46-.99Z"/>
              <path class="cls-24" d="m20.87,31.3c-.18-.08-.34-.22-.45-.41-.18-.32-.19-.73-.01-1.09l3.5-7.08c.16-.33.46-.53.79-.52.33,0,.63.2.79.52l3.37,6.52c.15.3.16.67.01.99-.15.33-.42.54-.73.57l-6.86.56c-.15.01-.29-.01-.42-.07Zm3.96-8.31s-.09-.03-.12-.03c-.04,0-.16.01-.22.15l-3.45,7.04c-.07.14-.02.25,0,.29.02.04.1.14.24.13l6.86-.49c.12,0,.18-.11.21-.16.02-.04.06-.15,0-.27l-3.41-6.55c-.03-.06-.07-.09-.11-.11Z"/>
            </g>
            <g>
              <path class="cls-24" d="m23.7,30.12l-3.68-5.08c-.27-.37-.81-.36-1.07.03l-3.77,5.66c-.35.52,0,1.17.59,1.13l7.44-.61c.5-.04.78-.71.48-1.13Z"/>
              <path class="cls-24" d="m15.3,32.22c-.23-.09-.42-.26-.54-.49-.2-.38-.16-.84.09-1.22l3.8-5.67c.2-.29.5-.46.83-.47.33,0,.64.15.83.43l3.65,5.07c.22.3.26.72.1,1.1-.16.38-.48.64-.85.67l-7.44.65c-.17.01-.33,0-.48-.07Zm4.32-7.01s-.08-.03-.13-.03c-.09,0-.18.05-.23.13l-3.74,5.65c-.1.15-.05.28-.02.33.03.05.11.17.28.15l7.44-.57c.16-.01.22-.14.24-.19.02-.05.06-.18-.03-.3h0s-3.7-5.08-3.7-5.08c-.03-.04-.07-.07-.11-.09Z"/>
            </g>
          </g>
          <g>
            <path class="cls-24" d="m15.28,21c0,1.12.88,2.05,1.96,2.07,1.05.02,1.88-.84,1.88-1.92,0-1.08-.83-2-1.87-2.06-1.07-.07-1.96.79-1.96,1.91Z"/>
            <path class="cls-24" d="m16.26,23.25c-.25-.12-.48-.29-.69-.5-.46-.47-.71-1.1-.71-1.76h0c0-1.36,1.09-2.4,2.38-2.31,1.26.08,2.25,1.2,2.25,2.5,0,.63-.23,1.21-.65,1.65-.42.44-.99.68-1.61.67-.34,0-.67-.08-.98-.23Zm-.57-2.23c0,.43.16.83.46,1.14.29.31.68.48,1.09.49.41,0,.78-.15,1.07-.43.28-.29.43-.67.43-1.08,0-.85-.66-1.59-1.49-1.63-.85-.05-1.55.63-1.55,1.51h0Z"/>
          </g>
        </g>
      </g>
    </g>
    <path class="cls-24" d="m13.37,32.18c-.11-.04-.21-.1-.3-.18-.19-.18-.3-.43-.3-.7l.03-13.95c0-.27.11-.52.3-.7.19-.18.45-.26.71-.23l14.39,1.29c.39.03.7.44.7.91l-.02,11.51c0,.47-.32.87-.71.91l-14.4,1.21c-.15.01-.29,0-.42-.06Zm14.89-13.74s-.03-.01-.04-.01l-14.39-1.15c-.05,0-.09.02-.11.04-.02.02-.04.05-.04.1l-.03,13.82c0,.05.03.09.04.1.02.02.05.04.11.04h0s14.4-1.08,14.4-1.08c.06,0,.11-.06.11-.14l.02-11.6c0-.05-.03-.1-.06-.12Z"/>
  </g>
  <g>
    <path class="cls-17" d="m10.39,38.07V12.45c0-.08.06-.13.13-.12l20.36,2.04c.05,0,.09.06.09.12v21.3c0,.06-.04.12-.09.12l-20.36,2.29c-.07,0-.13-.05-.13-.12ZM30.8,14.58l-20.14-1.97v25.3l20.14-2.22V14.58Z"/>
    <g>
      <path class="cls-17" d="m30.22,15.14v-1.45c0-.06.04-.11.09-.11l1.15.12s.09.06.09.12v1.44c0,.06-.04.11-.09.11l-1.15-.1c-.05,0-.09-.06-.09-.12Zm1.15-1.22l-.97-.1v1.22l.97.09v-1.21Z"/>
      <path class="cls-17" d="m30.16,26.39v-1.46c0-.06.04-.12.09-.12h1.15s.09.05.09.11v1.44c0,.06-.04.11-.09.12l-1.15.02c-.05,0-.09-.05-.09-.11Zm1.15-1.35h-.97v1.23l.97-.02v-1.21Z"/>
      <path class="cls-17" d="m9.75,13.08v-1.75c0-.08.06-.13.13-.12l1.65.18c.07,0,.13.08.13.15v1.72c0,.08-.06.13-.13.12l-1.65-.15c-.07,0-.13-.07-.13-.15Zm1.66-1.43l-1.39-.15v1.47l1.39.13v-1.45Z"/>
      <path class="cls-17" d="m9.55,25.53v-1.75c0-.08.06-.14.13-.14h1.66c.07.01.13.07.13.15v1.72c0,.08-.06.14-.13.14l-1.66.02c-.07,0-.13-.06-.13-.14Zm1.66-1.6h-1.39s0,1.46,0,1.46h1.39v-1.46Z"/>
      <path class="cls-17" d="m30.15,36.6v-1.46c0-.06.04-.12.09-.12l1.15-.12s.09.04.09.1v1.44c0,.06-.04.12-.09.12l-1.15.14c-.05,0-.09-.04-.09-.1Zm1.15-1.46l-.97.1v1.22l.97-.11v-1.21Z"/>
      <path class="cls-17" d="m9.65,39.03v-1.75c0-.08.06-.14.13-.15l1.65-.17c.07,0,.13.05.13.12v1.72c0,.08-.06.14-.13.15l-1.65.2c-.07,0-.13-.05-.13-.12Zm1.66-1.78l-1.39.15v1.47l1.39-.16v-1.45Z"/>
      <path class="cls-17" d="m20.98,14.29v-1.59c0-.07.05-.12.11-.11l1.37.15c.06,0,.11.07.11.14v1.56c0,.07-.05.12-.11.11l-1.37-.12c-.06,0-.11-.07-.11-.14Zm1.37-1.32l-1.15-.12v1.33l1.15.11v-1.32Z"/>
      <path class="cls-17" d="m20.9,37.7v-1.59c0-.07.05-.13.11-.14l1.37-.14c.06,0,.11.04.11.11v1.56c0,.07-.05.13-.11.14l-1.37.16c-.06,0-.11-.04-.11-.11Zm1.37-1.61l-1.15.12v1.33l1.15-.13v-1.32Z"/>
    </g>
    <g>
      <polygon class="cls-17" points="30.31 15.14 31.46 15.25 31.46 13.81 30.31 13.69 30.31 15.14"/>
      <polygon class="cls-24" points="30.25 26.39 31.41 26.37 31.41 24.93 30.25 24.94 30.25 26.39"/>
      <polygon class="cls-17" points="9.89 13.09 11.54 13.24 11.54 11.52 9.89 11.35 9.89 13.09"/>
      <polygon class="cls-24" points="9.69 25.53 11.34 25.52 11.34 23.79 9.69 23.78 9.69 25.53"/>
      <polygon class="cls-17" points="30.24 36.59 31.39 36.46 31.39 35.02 30.24 35.14 30.24 36.59"/>
      <polygon class="cls-17" points="9.79 39.01 11.44 38.82 11.44 37.1 9.79 37.27 9.79 39.01"/>
      <polygon class="cls-24" points="21.09 14.3 22.46 14.42 22.46 12.86 21.09 12.71 21.09 14.3"/>
      <polygon class="cls-24" points="21.01 37.69 22.38 37.52 22.38 35.96 21.01 36.1 21.01 37.69"/>
    </g>
    <g>
      <path class="cls-17" d="m30.22,15.14v-1.45c0-.06.04-.11.09-.11l1.15.12s.09.06.09.12v1.44c0,.06-.04.11-.09.11l-1.15-.1c-.05,0-.09-.06-.09-.12Zm1.15-1.22l-.97-.1v1.22l.97.09v-1.21Z"/>
      <path class="cls-17" d="m30.16,26.39v-1.46c0-.06.04-.12.09-.12h1.15s.09.05.09.11v1.44c0,.06-.04.11-.09.12l-1.15.02c-.05,0-.09-.05-.09-.11Zm1.15-1.35h-.97v1.23l.97-.02v-1.21Z"/>
      <path class="cls-17" d="m9.75,13.08v-1.75c0-.08.06-.13.13-.12l1.65.18c.07,0,.13.08.13.15v1.72c0,.08-.06.13-.13.12l-1.65-.15c-.07,0-.13-.07-.13-.15Zm1.66-1.43l-1.39-.15v1.47l1.39.13v-1.45Z"/>
      <path class="cls-17" d="m9.55,25.53v-1.75c0-.08.06-.14.13-.14h1.66c.07.01.13.07.13.15v1.72c0,.08-.06.14-.13.14l-1.66.02c-.07,0-.13-.06-.13-.14Zm1.66-1.6h-1.39s0,1.46,0,1.46h1.39v-1.46Z"/>
      <path class="cls-17" d="m30.15,36.6v-1.46c0-.06.04-.12.09-.12l1.15-.12s.09.04.09.1v1.44c0,.06-.04.12-.09.12l-1.15.14c-.05,0-.09-.04-.09-.1Zm1.15-1.46l-.97.1v1.22l.97-.11v-1.21Z"/>
      <path class="cls-17" d="m9.65,39.03v-1.75c0-.08.06-.14.13-.15l1.65-.17c.07,0,.13.05.13.12v1.72c0,.08-.06.14-.13.15l-1.65.2c-.07,0-.13-.05-.13-.12Zm1.66-1.78l-1.39.15v1.47l1.39-.16v-1.45Z"/>
      <path class="cls-17" d="m20.98,14.29v-1.59c0-.07.05-.12.11-.11l1.37.15c.06,0,.11.07.11.14v1.56c0,.07-.05.12-.11.11l-1.37-.12c-.06,0-.11-.07-.11-.14Zm1.37-1.32l-1.15-.12v1.33l1.15.11v-1.32Z"/>
      <path class="cls-17" d="m20.9,37.7v-1.59c0-.07.05-.13.11-.14l1.37-.14c.06,0,.11.04.11.11v1.56c0,.07-.05.13-.11.14l-1.37.16c-.06,0-.11-.04-.11-.11Zm1.37-1.61l-1.15.12v1.33l1.15-.13v-1.32Z"/>
    </g>
  </g>
  <g>
    <g>
      <g>
        <path class="cls-21" d="m90.07,20.91c.08,0,.15-.07.15-.15,0-9.58-7.82-17.38-17.44-17.38-.08,0-.15.07-.15.15s.07.15.15.15c9.45,0,17.14,7.66,17.14,17.08,0,.08.07.15.15.15Z"/>
        <path class="cls-21" d="m90.07,20.97c-.11,0-.2-.09-.2-.2,0-9.39-7.67-17.03-17.09-17.03-.11,0-.2-.09-.2-.2s.09-.2.2-.2c9.65,0,17.5,7.82,17.5,17.44,0,.11-.09.2-.2.2ZM72.78,3.44c-.05,0-.09.04-.09.09s.04.09.09.09c9.48,0,17.2,7.69,17.2,17.14,0,.05.04.09.09.09s.09-.04.09-.09c0-9.55-7.8-17.33-17.38-17.33Z"/>
      </g>
      <path class="cls-21" d="m91.57,24.73h-3.09c-.29,0-.52-.24-.52-.52v-3.09c0-.29.24-.52.52-.52h3.09c.26,0,.52.2.52.65v3.09c0,.2-.26.4-.52.4Zm-3.09-3.69s-.08.04-.08.08v3.09s.04.08.08.08h3.09s.06-.01.08-.03v-3.01s0-.2-.08-.2h-3.09Z"/>
    </g>
    <g>
      <g>
        <path class="cls-21" d="m72.78,3.4h0l18.2-.06c.08,0,.15-.07.15-.15,0-.08-.07-.15-.15-.15h0l-18.2.06c-.08,0-.15.07-.15.15,0,.08.07.15.15.15Z"/>
        <path class="cls-21" d="m72.78,3.46h0c-.11,0-.2-.09-.2-.2,0-.05.02-.11.06-.14.04-.04.09-.06.14-.06l18.2-.06c.11,0,.2.09.2.2,0,.05-.02.11-.06.14-.04.04-.09.06-.14.06l-18.2.06Zm18.2-.36l-18.2.06s-.05,0-.07.03c-.02.02-.03.04-.03.07,0,.05.04.09.09.09h0l18.2-.06s.05,0,.07-.03c.02-.02.03-.04.03-.07,0-.05-.04-.09-.09-.09Z"/>
      </g>
      <path class="cls-21" d="m92.03,4.48c-.23,0-.45-.06-.65-.18-.29-.17-.5-.45-.59-.78-.09-.33-.04-.67.14-.97.17-.29.45-.5.78-.59.33-.09.67-.04.97.14.29.17.5.45.59.78.18.68-.24,1.38-.92,1.56-.02,0-.04,0-.06.01-.09.02-.17.03-.26.03Zm0-2.11c-.07,0-.14,0-.21.03-.22.06-.4.19-.51.38-.11.19-.14.42-.09.63.06.22.19.4.38.51h0c.18.11.39.14.59.1.01,0,.03,0,.04,0,.45-.12.71-.57.6-1.02-.06-.22-.19-.4-.38-.51-.13-.08-.27-.12-.42-.12Z"/>
    </g>
  </g>
</svg>