<?xml version="1.0" encoding="UTF-8"?>
<svg id="Layer_1" data-name="Layer 1" xmlns="http://www.w3.org/2000/svg" xmlns:xlink="http://www.w3.org/1999/xlink" viewBox="0 0 123.69 114.89">
  <defs>
    <style>
      .cls-1 {
        fill: url(#_ÅÂÁ_Ï_ÌÌ_È_ËÂÌÚ_8);
      }

      .cls-1, .cls-2, .cls-3, .cls-4, .cls-5, .cls-6, .cls-7, .cls-8, .cls-9, .cls-10, .cls-11, .cls-12, .cls-13, .cls-14, .cls-15, .cls-16, .cls-17, .cls-18, .cls-19, .cls-20, .cls-21, .cls-22, .cls-23, .cls-24 {
        stroke-width: 0px;
      }

      .cls-2 {
        fill: url(#_ÅÂÁ_Ï_ÌÌ_È_ËÂÌÚ_5);
        opacity: .46;
      }

      .cls-25 {
        opacity: .2;
      }

      .cls-3 {
        fill: url(#_ÅÂÁ_Ï_ÌÌ_È_ËÂÌÚ_11);
      }

      .cls-4 {
        fill: #f47abe;
      }

      .cls-5 {
        fill: #7a08b7;
      }

      .cls-6 {
        fill: #842053;
      }

      .cls-7 {
        fill: #8a13bf;
      }

      .cls-8 {
        fill: #1c1c1c;
      }

      .cls-9 {
        fill: #ca5dd1;
      }

      .cls-10 {
        fill: #d49fff;
      }

      .cls-11 {
        fill: #d53f5e;
      }

      .cls-12 {
        fill: #a91fe5;
      }

      .cls-13 {
        fill: #ba4df4;
      }

      .cls-14 {
        fill: #8c20c6;
      }

      .cls-15 {
        fill: #b73258;
      }

      .cls-16 {
        fill: #9123cc;
      }

      .cls-17 {
        fill: #c41cff;
      }

      .cls-18 {
        fill: #741caf;
      }

      .cls-19 {
        fill: #333;
      }

      .cls-20 {
        fill: #ff7daf;
      }

      .cls-21 {
        fill: #f37cf7;
      }

      .cls-22 {
        fill: #fff;
      }

      .cls-23 {
        fill: #e56ca1;
      }

      .cls-24 {
        fill: #e8c7ff;
      }
    </style>
    <linearGradient id="_ÅÂÁ_Ï_ÌÌ_È_ËÂÌÚ_5" data-name="ÅÂÁ˚ÏﬂÌÌ˚È „‡‰ËÂÌÚ 5" x1="126.13" y1="53.98" x2="51.31" y2="103.5" gradientUnits="userSpaceOnUse">
      <stop offset="0" stop-color="#848484"/>
      <stop offset="1" stop-color="#fff"/>
    </linearGradient>
    <linearGradient id="_ÅÂÁ_Ï_ÌÌ_È_ËÂÌÚ_11" data-name="ÅÂÁ˚ÏﬂÌÌ˚È „‡‰ËÂÌÚ 11" x1="62.44" y1="57.17" x2="31.92" y2="91.35" gradientUnits="userSpaceOnUse">
      <stop offset="0" stop-color="#969696"/>
      <stop offset="1" stop-color="#fff"/>
    </linearGradient>
    <linearGradient id="_ÅÂÁ_Ï_ÌÌ_È_ËÂÌÚ_8" data-name="ÅÂÁ˚ÏﬂÌÌ˚È „‡‰ËÂÌÚ 8" x1="93.43" y1="36" x2="9.88" y2="109.04" gradientUnits="userSpaceOnUse">
      <stop offset="0" stop-color="#a0a0a0"/>
      <stop offset="1" stop-color="#fff"/>
    </linearGradient>
  </defs>
  <path class="cls-2" d="m112.08,108.19l-46.83-44.3-32.66,7.1c-1.34.26,12.88,35.36,12.88,35.36,7.19,4.39,17.12,3.53,25.48,3.24l41.12-1.4Z"/>
  <polygon class="cls-3" points="34.55 81.41 13.35 83.87 34.24 93.15 56.78 91.8 34.55 81.41"/>
  <path class="cls-1" d="m37.76,97.41l-.21-.07c-2.96-.94-6.1-1.16-9.16-.64L0,101.55l26.47,2.88c3.96.43,7.93-.79,10.96-3.37l.96-.82h0c.95-.88.6-2.45-.63-2.84Z"/>
  <g class="cls-25">
    <path class="cls-18" d="m90.56,63.24c.03-.22,2.55-5.97,5.62-12.26,2.84-5.83,8.24-13.63,17.88-17.72l.56,1.32c-9.21,3.91-14.4,11.4-17.13,16.99-2.98,6.1-3.77,11.34-3.78,11.39l-3.15.29Z"/>
    <path class="cls-16" d="m118.29,35.29c3.83-1.67,5.4-9.01,5.4-9.01,0,0-3.69,2.26-7.52,3.93-3.83,1.67-6.46,4.16-5.87,5.56.59,1.4,4.16,1.19,7.99-.48Z"/>
    <path class="cls-16" d="m108.1,32.51c.5-3.78,3.16-6.69,3.16-6.69,0,0-6.38,2.17-6.88,5.96-.5,3.78-.07,7.02.95,7.22,1.03.2,2.27-2.7,2.77-6.48Z"/>
    <path class="cls-16" d="m112.15,39.34c3.6.48,6.93,1.59,6.93,1.59,0,0-3.63,2.87-7.23,2.39s-6.45-1.77-6.37-2.87c.08-1.1,3.07-1.6,6.67-1.11Z"/>
    <path class="cls-16" d="m108.08,43.49c3.6.48,6.38,1.9,6.38,1.9,0,0-3.09,2.56-6.69,2.08s-6.45-1.77-6.37-2.87c.08-1.1,3.07-1.6,6.67-1.11Z"/>
    <path class="cls-16" d="m103.83,49.17c3.6-.1,6.43.2,6.43.2,0,0-2.4,3.38-6,3.48-3.6.1-6.81-1.32-6.88-2.42-.07-1.11,2.85-1.16,6.45-1.25Z"/>
    <path class="cls-16" d="m100.19,55.2c3.57-.46,6.56.5,6.56.5,0,0-2.35,3-5.92,3.46-3.57.46-6.2-.05-6.38-1.15-.18-1.09,2.16-2.36,5.74-2.82Z"/>
    <path class="cls-16" d="m100.27,36.16c-1.42-3.6-1.95-6.77-1.95-6.77,0,0-2.93,4.57-1.51,8.18,1.42,3.6,3.34,6.21,4.3,5.82.96-.39.58-3.63-.84-7.23Z"/>
    <path class="cls-16" d="m96.14,42.68c-1.42-3.6-3.12-6.43-3.12-6.43,0,0-1.73,5.34-.31,8.95,1.42,3.6,3.31,5.79,4.27,4.71.68-.77.58-3.63-.84-7.23Z"/>
    <path class="cls-16" d="m92.41,51.33c-1.42-3.6-1.53-6.15-1.53-6.15,0,0-3.35,3.95-1.93,7.56s3.34,6.21,4.3,5.82c.96-.39.58-3.63-.84-7.23Z"/>
  </g>
  <g class="cls-25">
    <path class="cls-18" d="m73.51,49.16c.1-.2,1.22-6.38,2.19-13.31.9-6.42.77-15.91-4.93-24.68l-1.2.78c5.46,8.39,5.58,17.5,4.72,23.66-.94,6.72-3.21,11.51-3.23,11.56l2.45,2Z"/>
    <path class="cls-16" d="m66.13,10.49c-2.25-3.52.56-10.49.56-10.49,0,0,1.79,3.94,4.04,7.46,2.25,3.52,3.04,7.06,1.77,7.89-1.27.84-4.12-1.34-6.36-4.86Z"/>
    <path class="cls-16" d="m76.14,13.87c1.7-3.42,1.12-7.31,1.12-7.31,0,0,4.08,5.37,2.38,8.79-1.7,3.42-3.86,5.86-4.82,5.45-.97-.41-.37-3.51,1.32-6.93Z"/>
    <path class="cls-16" d="m68.96,17.27c-3.26-1.61-6.63-2.55-6.63-2.55,0,0,1.41,4.41,4.67,6.02,3.26,1.61,6.34,2.14,6.88,1.18s-1.66-3.04-4.91-4.65Z"/>
    <path class="cls-16" d="m70.02,23c-3.26-1.61-6.36-1.99-6.36-1.99,0,0,1.13,3.85,4.39,5.46,3.26,1.61,6.34,2.14,6.88,1.18.54-.96-1.66-3.04-4.91-4.65Z"/>
    <path class="cls-16" d="m70.37,30.08c-2.94-2.09-5.45-3.43-5.45-3.43,0,0,.1,4.14,3.03,6.24,2.94,2.09,6.38,2.71,7.06,1.83.68-.88-1.71-2.55-4.65-4.64Z"/>
    <path class="cls-16" d="m70.02,37.11c-2.71-2.38-5.73-3.25-5.73-3.25,0,0,.27,3.8,2.98,6.18,2.71,2.38,5.17,3.42,5.93,2.61s-.48-3.17-3.19-5.54Z"/>
    <path class="cls-16" d="m80.59,21.27c3.19-2.2,5.4-4.52,5.4-4.52,0,0-.13,5.43-3.32,7.62-3.19,2.2-6.24,3.29-6.82,2.43-.57-.86,1.55-3.33,4.74-5.53Z"/>
    <path class="cls-16" d="m80.37,28.99c3.19-2.2,6.18-3.59,6.18-3.59,0,0-1.55,5.4-4.74,7.6s-5.98,2.96-6.18,1.52c-.14-1.02,1.55-3.33,4.74-5.53Z"/>
    <path class="cls-16" d="m78.63,38.25c3.19-2.2,4.7-4.25,4.7-4.25,0,0,.57,5.15-2.62,7.35-3.19,2.2-6.24,3.29-6.82,2.43-.57-.86,1.55-3.33,4.74-5.53Z"/>
  </g>
  <g class="cls-25">
    <path class="cls-18" d="m54.7,70.97c-.02-.22-2.09-6.15-4.66-12.66-2.38-6.03-7.18-14.22-16.47-19.04l-.66,1.27c8.89,4.6,13.49,12.47,15.78,18.25,2.5,6.31,2.89,11.59,2.89,11.65l3.12.53Z"/>
    <path class="cls-16" d="m29.19,40.98c-3.69-1.96-4.69-9.4-4.69-9.4,0,0,3.5,2.54,7.19,4.5,3.69,1.96,6.12,4.64,5.43,5.99s-4.24.87-7.93-1.09Z"/>
    <path class="cls-16" d="m39.57,38.98c-.21-3.81-2.63-6.92-2.63-6.92,0,0,6.19,2.66,6.41,6.47.21,3.81-.46,7-1.5,7.12-1.04.12-2.06-2.87-2.27-6.68Z"/>
    <path class="cls-16" d="m35,45.48c-3.63.21-7.03,1.05-7.03,1.05,0,0,3.4,3.14,7.03,2.93,3.63-.21,6.57-1.27,6.57-2.37,0-1.1-2.94-1.83-6.57-1.62Z"/>
    <path class="cls-16" d="m38.75,49.94c-3.63.21-6.51,1.4-6.51,1.4,0,0,2.89,2.79,6.51,2.59,3.63-.21,6.57-1.27,6.57-2.37,0-1.1-2.94-1.83-6.57-1.62Z"/>
    <path class="cls-16" d="m42.55,55.93c-3.59-.37-6.43-.3-6.43-.3,0,0,2.13,3.56,5.71,3.93,3.59.37,6.89-.79,7.05-1.89.16-1.1-2.75-1.37-6.33-1.74Z"/>
    <path class="cls-16" d="m45.71,62.21c-3.53-.73-6.58,0-6.58,0,0,0,2.11,3.17,5.64,3.9,3.53.73,6.19.42,6.45-.65.26-1.08-1.98-2.52-5.51-3.25Z"/>
    <path class="cls-16" d="m47.09,43.22c1.69-3.49,2.46-6.6,2.46-6.6,0,0,2.57,4.78.88,8.27-1.69,3.49-3.81,5.94-4.73,5.48-.92-.46-.3-3.66,1.39-7.15Z"/>
    <path class="cls-16" d="m50.71,50.04c1.69-3.49,3.6-6.17,3.6-6.17,0,0,1.32,5.46-.37,8.95-1.69,3.49-3.74,5.52-4.62,4.37-.62-.82-.3-3.66,1.39-7.15Z"/>
    <path class="cls-16" d="m53.76,58.95c1.69-3.49,1.99-6.01,1.99-6.01,0,0,3.04,4.2,1.35,7.68-1.69,3.49-3.81,5.94-4.73,5.48s-.3-3.66,1.39-7.15Z"/>
  </g>
  <polygon class="cls-5" points="37.17 48.44 39.19 46.82 40.06 50.81 37.17 48.44"/>
  <polyline class="cls-5" points="54.75 93.42 56.78 91.8 54.75 88.19 54.75 93.18"/>
  <path class="cls-5" d="m117.57,104.91c0,.81-.25,1.4-.65,1.7h0s0,0,0,0c-.07.05-.14.09-.21.12l-3.36,1.65.44-1.8c-.07-.03-2.51-1.72-.61-.93l-63.37-36.52c-1.23-.7-2.22-2.58-2.23-4.19l-1.31-49.01c.09-.73,2.22-2.69,3.45-1.99l65.55,37.43c1.23.7,2.22,2.58,2.23,4.19l.08,49.35Z"/>
  <path class="cls-12" d="m112.08,53.05L46.79,15.77c-1.22-.7-2.21.04-2.21,1.65v49.3c0,1.61.99,3.48,2.21,4.18l65.29,37.28c1.22.7,2.21-.04,2.21-1.65v-49.3c0-1.61-.99-3.48-2.21-4.18Z"/>
  <path class="cls-24" d="m109.27,56.69v11.33c-.3-.4-.65-.73-1.02-.95l-58.79-33.57v-10.97c0-1.38.85-2.02,1.9-1.42l56.01,31.99c1.05.6,1.9,2.2,1.9,3.59Z"/>
  <path class="cls-13" d="m109.27,68.02v7.52l-58.53-33.43-1.28-.73v-7.88l58.79,33.57c.37.21.72.54,1.02.95Z"/>
  <path class="cls-24" d="m109.27,75.53v23.45c0,1.38-.85,2.02-1.9,1.42l-56.01-31.99c-1.05-.6-1.9-2.2-1.9-3.59v-23.45l1.28.73,58.53,33.43Z"/>
  <path class="cls-13" d="m109.27,83.75v7.52l-58.53-33.43-1.28-.73v-7.88l58.79,33.57c.37.21.72.54,1.02.95Z"/>
  <polygon class="cls-5" points="59.79 59.2 39.19 46.82 36.58 79.79 56.78 91.8 59.79 59.2"/>
  <polygon class="cls-10" points="57.77 60.82 37.17 48.44 34.55 81.41 54.75 93.42 57.77 60.82"/>
  <polygon class="cls-13" points="44.71 60.16 38.18 55.74 38.22 55.01 44.75 59.43 44.71 60.16"/>
  <polygon class="cls-13" points="44.64 61.46 38.11 57.04 38.15 56.31 44.68 60.74 44.64 61.46"/>
  <g>
    <polygon class="cls-7" points="97.48 29.92 98.17 29.68 97.77 29.09 97.48 29.92"/>
    <polygon class="cls-7" points="96.17 31.45 96.91 31.18 96.45 30.48 96.17 31.45"/>
    <polygon class="cls-7" points="91.65 23.24 92.39 22.98 92.9 23.74 91.65 23.24"/>
    <polygon class="cls-7" points="93.67 23 94.41 22.74 94.92 23.5 93.67 23"/>
    <g>
      <path class="cls-7" d="m92.26,24.01l.3.66c.13.29.1.57-.07.63l-.39.15c-.49.19-.22,1.27.42,1.68l.51.33c.23.15.41.47.41.73v.6c.03.75.56,1,.99.7l.6.31c.15-.11.4.02.59.28l.41.6c.51.75,1.23.67,1.12-.13l-.09-.64c-.04-.28.1-.45.32-.38l.5.15c.62.18.72-.72.16-1.41l-.45-.55c-.2-.24-.28-.57-.19-.76l.21-.42c.26-.52-.33-1.56-.92-1.63l-.47-.05c-.21-.02-.45-.27-.55-.56l-.24-.67c-.29-.83-1.13-1.23-1.3-.62l-.14.49c-.06.21-.28.24-.5.06l-.5-.41c-.63-.52-1.08.03-.71.85Z"/>
      <ellipse class="cls-22" cx="94.92" cy="26.85" rx="1.07" ry="1.89" transform="translate(-.7 51.08) rotate(-30.02)"/>
    </g>
    <g>
      <path class="cls-17" d="m91.56,24.25l.3.66c.13.29.1.57-.07.63l-.39.15c-.49.19-.22,1.27.42,1.68l.51.33c.23.15.41.47.41.73v.6c.03.75.82,1.55,1.25,1.25l.34-.24c.15-.11.4.02.59.28l.41.6c.51.75,1.23.67,1.12-.13l-.09-.64c-.04-.28.1-.45.32-.38l.5.15c.62.18.72-.72.16-1.41l-.45-.55c-.2-.24-.28-.57-.19-.76l.21-.42c.26-.52-.33-1.56-.92-1.63l-.47-.05c-.21-.02-.45-.27-.55-.56l-.24-.67c-.29-.83-1.13-1.23-1.3-.62l-.14.49c-.06.21-.28.24-.5.06l-.5-.41c-.63-.52-1.08.03-.71.85Z"/>
      <ellipse class="cls-22" cx="94.41" cy="27.03" rx="1.07" ry="1.89" transform="translate(-.86 50.86) rotate(-30.02)"/>
    </g>
  </g>
  <g>
    <polygon class="cls-7" points="99.55 112.78 100.49 112.45 99.94 111.63 99.55 112.78"/>
    <polygon class="cls-7" points="97.73 114.89 98.75 114.52 98.12 113.55 97.73 114.89"/>
    <polygon class="cls-7" points="91.49 103.56 92.52 103.2 93.22 104.24 91.49 103.56"/>
    <polygon class="cls-7" points="94.27 103.23 95.3 102.87 96 103.91 94.27 103.23"/>
    <g>
      <path class="cls-7" d="m92.33,104.63l.41.91c.18.4.14.78-.1.87l-.54.21c-.67.26-.3,1.75.58,2.32l.71.46c.31.2.56.64.57,1.01l.02.83c.02,1.03.76,1.38,1.34.96l.83.43c.21-.15.56.02.81.39l.57.83c.71,1.03,1.7.92,1.54-.17l-.12-.88c-.05-.39.14-.62.44-.53l.69.2c.86.25,1-.99.22-1.94l-.62-.76c-.27-.34-.39-.79-.26-1.04l.29-.57c.36-.72-.45-2.16-1.27-2.25l-.65-.07c-.29-.03-.62-.37-.76-.77l-.33-.92c-.41-1.15-1.56-1.7-1.8-.86l-.19.67c-.08.3-.39.33-.69.08l-.69-.57c-.87-.71-1.5.04-.98,1.17Z"/>
      <ellipse class="cls-22" cx="96" cy="108.54" rx="1.48" ry="2.6" transform="translate(-41.42 62.58) rotate(-30.02)"/>
    </g>
    <g>
      <path class="cls-17" d="m91.37,104.96l.41.91c.18.4.14.78-.1.87l-.54.21c-.67.26-.3,1.75.58,2.32l.71.46c.31.2.56.64.57,1.01l.02.83c.02,1.03,1.12,2.14,1.7,1.72l.47-.33c.21-.15.56.02.81.39l.57.83c.71,1.03,1.7.92,1.54-.17l-.12-.88c-.05-.39.14-.62.44-.53l.69.2c.86.25,1-.99.22-1.94l-.62-.76c-.27-.34-.39-.79-.26-1.04l.29-.57c.36-.72-.45-2.16-1.27-2.25l-.65-.07c-.29-.03-.62-.37-.76-.77l-.33-.92c-.41-1.15-1.56-1.7-1.8-.86l-.19.67c-.08.3-.39.33-.69.08l-.69-.57c-.87-.71-1.5.04-.98,1.17Z"/>
      <ellipse class="cls-22" cx="95.31" cy="108.79" rx="1.48" ry="2.6" transform="translate(-41.64 62.27) rotate(-30.02)"/>
    </g>
  </g>
  <g>
    <polygon class="cls-7" points="25.91 49.42 27.15 49 26.42 47.92 25.91 49.42"/>
    <polygon class="cls-7" points="23.53 52.19 24.87 51.7 24.04 50.43 23.53 52.19"/>
    <polygon class="cls-7" points="15.35 37.35 16.7 36.87 17.61 38.23 15.35 37.35"/>
    <polygon class="cls-7" points="19 36.91 20.35 36.44 21.27 37.8 19 36.91"/>
    <g>
      <path class="cls-7" d="m16.45,38.74l.54,1.19c.24.53.18,1.02-.13,1.14l-.71.27c-.88.34-.4,2.29.76,3.05l.93.61c.41.27.73.84.74,1.32l.03,1.09c.03,1.35.99,1.81,1.76,1.26l1.09.56c.27-.19.73.03,1.06.51l.74,1.09c.92,1.35,2.22,1.21,2.02-.23l-.16-1.15c-.07-.51.18-.81.58-.69l.9.27c1.12.33,1.31-1.3.29-2.54l-.82-1c-.36-.44-.51-1.04-.34-1.37l.38-.75c.47-.94-.59-2.83-1.66-2.94l-.86-.09c-.38-.04-.81-.48-1-1.01l-.43-1.21c-.53-1.5-2.05-2.23-2.36-1.13l-.25.88c-.11.39-.51.43-.91.1l-.91-.75c-1.14-.93-1.96.05-1.29,1.54Z"/>
      <ellipse class="cls-22" cx="21.27" cy="43.86" rx="1.94" ry="3.41" transform="translate(-19.09 16.52) rotate(-30.02)"/>
    </g>
    <g>
      <path class="cls-17" d="m15.2,39.17l.54,1.19c.24.53.18,1.02-.13,1.14l-.71.27c-.88.34-.4,2.29.76,3.05l.93.61c.41.27.73.84.74,1.32l.03,1.09c.03,1.35,1.46,2.8,2.23,2.26l.61-.44c.27-.19.73.03,1.06.51l.74,1.09c.92,1.35,2.22,1.21,2.02-.23l-.16-1.15c-.07-.51.18-.81.58-.69l.9.27c1.12.33,1.31-1.3.29-2.54l-.82-1c-.36-.44-.51-1.04-.34-1.37l.38-.75c.47-.94-.59-2.83-1.66-2.94l-.86-.09c-.38-.04-.81-.48-1-1.01l-.43-1.21c-.53-1.5-2.05-2.23-2.36-1.13l-.25.88c-.11.39-.51.43-.91.1l-.91-.75c-1.14-.93-1.96.05-1.29,1.54Z"/>
      <ellipse class="cls-22" cx="20.35" cy="44.2" rx="1.94" ry="3.41" transform="translate(-19.38 16.11) rotate(-30.02)"/>
    </g>
  </g>
  <ellipse class="cls-13" cx="54.41" cy="27.76" rx="1.57" ry="2.77" transform="translate(-6.61 30.38) rotate(-29.49)"/>
  <ellipse class="cls-13" cx="59.86" cy="31.03" rx="1.57" ry="2.77" transform="translate(-7.52 33.49) rotate(-29.49)"/>
  <ellipse class="cls-13" cx="65.61" cy="34.48" rx="1.57" ry="2.77" transform="translate(-8.47 36.76) rotate(-29.49)"/>
  <g>
    <polygon class="cls-8" points="45.87 27.59 48.26 26.6 45.98 24.76 45.87 27.59"/>
    <polygon class="cls-8" points="42.77 31.13 45.43 29.97 42.77 27.67 42.77 31.13"/>
    <path class="cls-8" d="m37.14,12.08l2.45-1.1s.74,2.35.77,2.47c.03.12-2.19.28-2.19.28l-1.04-1.65Z"/>
    <path class="cls-8" d="m32.63,12.61l2.45-1.1s.74,2.35.77,2.47c.03.12-2.19.28-2.19.28l-1.04-1.65Z"/>
    <g>
      <path class="cls-8" d="m34.88,13.8l.68,1.49c.3.66.23,1.28-.16,1.43l-.89.34c-1.1.42-.5,2.86.95,3.8l1.16.76c.51.33.92,1.05.93,1.65l.03,1.36c.04,1.69,1.83,3.5,2.79,2.82l.77-.55c.34-.24.91.03,1.32.63l.93,1.35c1.15,1.69,2.78,1.51,2.53-.29l-.2-1.44c-.09-.63.23-1.01.72-.86l1.12.33c1.4.41,1.63-1.62.36-3.18l-1.02-1.25c-.45-.55-.63-1.29-.43-1.71l.47-.94c.59-1.17-.74-3.53-2.07-3.68l-1.07-.12c-.47-.05-1.02-.6-1.25-1.27l-.53-1.5c-.66-1.88-2.56-2.78-2.95-1.41l-.31,1.1c-.14.49-.63.54-1.13.13l-1.14-.94c-1.42-1.17-2.45.07-1.6,1.92Z"/>
      <path class="cls-19" d="m32.33,14.93l.68,1.49c.3.66.23,1.28-.16,1.43l-.89.34c-1.1.42-.5,2.86.95,3.8l1.16.76c.51.33.92,1.05.93,1.65l.03,1.36c.04,1.69,1.83,3.5,2.79,2.82l.77-.55c.34-.24.91.03,1.32.63l.93,1.35c1.15,1.69,2.78,1.51,2.53-.29l-.2-1.44c-.09-.63.23-1.01.72-.86l1.12.33c1.4.41,1.63-1.62.36-3.18l-1.02-1.25c-.45-.55-.63-1.29-.43-1.71l.47-.94c.59-1.17-.74-3.53-2.07-3.68l-1.07-.12c-.47-.05-1.02-.6-1.25-1.27l-.53-1.5c-.66-1.88-2.56-2.78-2.95-1.41l-.31,1.1c-.14.49-.63.54-1.13.13l-1.14-.94c-1.42-1.17-2.45.07-1.6,1.92Z"/>
      <ellipse class="cls-22" cx="38.76" cy="21.2" rx="2.42" ry="4.26" transform="translate(-5.41 22.23) rotate(-30.02)"/>
    </g>
  </g>
  <g>
    <polygon class="cls-8" points="120.67 74.71 122.14 74.09 120.73 72.95 120.67 74.71"/>
    <polygon class="cls-8" points="118.75 76.9 120.39 76.18 118.75 74.76 118.75 76.9"/>
    <path class="cls-8" d="m115.25,65.09l1.52-.68s.46,1.46.48,1.53-1.35.17-1.35.17l-.64-1.03Z"/>
    <path class="cls-8" d="m112.46,65.42l1.52-.68s.46,1.46.48,1.53c.02.08-1.35.17-1.35.17l-.64-1.03Z"/>
    <g>
      <path class="cls-8" d="m113.86,66.16l.42.92c.18.41.14.79-.1.88l-.55.21c-.68.26-.31,1.77.59,2.36l.72.47c.32.21.57.65.58,1.02l.02.84c.03,1.05,1.13,2.17,1.73,1.75l.48-.34c.21-.15.57.02.82.39l.57.84c.72,1.05,1.72.93,1.57-.18l-.12-.89c-.05-.39.14-.63.45-.53l.7.21c.87.26,1.01-1.01.23-1.97l-.63-.77c-.28-.34-.39-.8-.26-1.06l.29-.58c.37-.73-.46-2.19-1.28-2.28l-.66-.07c-.29-.03-.63-.37-.77-.78l-.33-.93c-.41-1.16-1.58-1.72-1.83-.87l-.19.68c-.09.3-.39.34-.7.08l-.7-.58c-.88-.72-1.52.04-.99,1.19Z"/>
      <path class="cls-19" d="m112.27,66.86l.42.92c.18.41.14.79-.1.88l-.55.21c-.68.26-.31,1.77.59,2.36l.72.47c.32.21.57.65.58,1.02l.02.84c.03,1.05,1.13,2.17,1.73,1.75l.48-.34c.21-.15.57.02.82.39l.57.84c.72,1.05,1.72.93,1.57-.18l-.12-.89c-.05-.39.14-.63.45-.53l.7.21c.87.26,1.01-1.01.23-1.97l-.63-.77c-.28-.34-.39-.8-.26-1.06l.29-.58c.37-.73-.46-2.19-1.28-2.28l-.66-.07c-.29-.03-.63-.37-.77-.78l-.33-.93c-.41-1.16-1.58-1.72-1.83-.87l-.19.68c-.09.3-.39.34-.7.08l-.7-.58c-.88-.72-1.52.04-.99,1.19Z"/>
      <ellipse class="cls-22" cx="116.26" cy="70.75" rx="1.5" ry="2.64" transform="translate(-19.8 67.65) rotate(-30.02)"/>
    </g>
  </g>
  <g>
    <polygon class="cls-8" points="57.22 97.87 58.21 97.46 57.26 96.69 57.22 97.87"/>
    <polygon class="cls-8" points="55.93 99.34 57.03 98.86 55.93 97.9 55.93 99.34"/>
    <path class="cls-8" d="m53.59,91.42l1.02-.46s.31.98.32,1.03c.01.05-.91.12-.91.12l-.43-.69Z"/>
    <path class="cls-8" d="m51.71,91.64l1.02-.46s.31.98.32,1.03c.01.05-.91.12-.91.12l-.43-.69Z"/>
    <g>
      <path class="cls-8" d="m52.65,92.14l.28.62c.12.27.09.53-.07.59l-.37.14c-.46.17-.21,1.19.39,1.58l.48.31c.21.14.38.44.39.69v.56c.03.7.77,1.46,1.17,1.17l.32-.23c.14-.1.38.01.55.26l.39.56c.48.7,1.15.63,1.05-.12l-.08-.6c-.04-.26.09-.42.3-.36l.47.14c.58.17.68-.68.15-1.32l-.42-.52c-.19-.23-.26-.54-.18-.71l.2-.39c.25-.49-.31-1.47-.86-1.53l-.44-.05c-.2-.02-.42-.25-.52-.53l-.22-.63c-.28-.78-1.06-1.16-1.23-.58l-.13.46c-.06.2-.26.23-.47.05l-.47-.39c-.59-.49-1.02.03-.67.8Z"/>
      <path class="cls-19" d="m51.59,92.6l.28.62c.12.27.09.53-.07.59l-.37.14c-.46.17-.21,1.19.39,1.58l.48.31c.21.14.38.44.39.69v.56c.03.7.77,1.46,1.17,1.17l.32-.23c.14-.1.38.01.55.26l.39.56c.48.7,1.15.63,1.05-.12l-.08-.6c-.04-.26.09-.42.3-.36l.47.14c.58.17.68-.68.15-1.32l-.42-.52c-.19-.23-.26-.54-.18-.71l.2-.39c.25-.49-.31-1.47-.86-1.53l-.44-.05c-.2-.02-.42-.25-.52-.53l-.22-.63c-.28-.78-1.06-1.16-1.23-.58l-.13.46c-.06.2-.26.23-.47.05l-.47-.39c-.59-.49-1.02.03-.67.8Z"/>
      <ellipse class="cls-22" cx="54.26" cy="95.21" rx="1.01" ry="1.77" transform="translate(-40.35 39.91) rotate(-30.02)"/>
    </g>
  </g>
  <polygon class="cls-13" points="41.1 52.97 38.43 51.16 38.26 54.38 40.93 56.19 41.1 52.97"/>
  <polygon class="cls-13" points="53.94 87.24 51.27 85.44 51.1 88.66 53.77 90.46 53.94 87.24"/>
  <path class="cls-4" d="m29.25,66.05l3.18-.81,2.1,3.44c.11.17.28.29.48.32l4.01.68-.15.94-4.99-.25c-.18,0-.34-.08-.46-.21l-2.86-3-1.3-1.11Z"/>
  <path class="cls-6" d="m29.92,98.57l.22-.05c.1-.02.2,0,.28.04l.46.27c.18.1.35.22.51.36.29.26.78.69,1.06,1.02.11.1.19.21.2.33.03.45-.7.15-.7.15h0s-.02-.01-.04-.02l-2.18-1.24c-.09-.05-.17-.19-.15-.28l.06-.3c.03-.13.13-.23.27-.27Z"/>
  <path class="cls-6" d="m22.34,100.39l.22-.05c.1-.02.2,0,.28.04l.46.27c.18.1.35.22.51.36.29.26.78.69,1.06,1.02.11.1.19.21.2.33.03.45-.7.15-.7.15h0s-.02-.01-.04-.02l-2.18-1.24c-.09-.05-.17-.19-.15-.28l.06-.3c.03-.13.13-.23.27-.27Z"/>
  <path class="cls-20" d="m29.66,97.54l.02,1.04c0,.15.17.26.33.21l.46-.14s.03-.02.04-.04l.14-1.2s-.03-.06-.06-.05l-.88.13s-.05.03-.04.05Z"/>
  <path class="cls-20" d="m22.4,99.49l-.13.94c-.02.14.12.26.27.23l.31-.05c.09-.02.17-.08.19-.16l.27-.95s-.02-.06-.05-.06h-.81s-.04.03-.05.05Z"/>
  <path class="cls-20" d="m26.88,62.54v-.02h1.09l.04.18c-.37.11-.76.04-1.13-.16Z"/>
  <path class="cls-20" d="m28.44,64.95l-2.54-.09.79-1.87c.4.24.84.31,1.24.17.05-.02.11-.04.16-.07l.36,1.86Z"/>
  <path class="cls-8" d="m25.11,74.3s-2,.78-1.54,4.88l.5,8.61-1.81,11.84c-.01.19.14.35.33.35h.32c.2,0,.38-.14.43-.33l3.65-11.64,1.01-9.02-.91-.25,1.94,7.92.43,11.42s.04.07.09.07l.98-.09c.14-.01.25-.12.27-.25l1.2-11.52-.99-11.53-5.9-.48Z"/>
  <path class="cls-20" d="m28.9,61.84c-.17.4-.45.7-.83.84-.02,0-.04.01-.06.02-.37.11-.76.04-1.13-.16-.53-.29-1.01-.87-1.27-1.62-.19-.56-.24-1.11-.15-1.6.11-.64.46-1.14.97-1.32.91-.32,2.01.47,2.46,1.76.26.75.25,1.51,0,2.08Z"/>
  <path class="cls-23" d="m28.08,63.09s-.1.05-.16.07c-.4.14-.84.06-1.24-.17l.19-.45c.37.2.76.27,1.13.16l.08.39Z"/>
  <path class="cls-8" d="m27.52,59.11c-.2.03-.36.16-.42.34-.19.57-.05,1.89-1.2,2.4-.88.39-1.84-.89-2.21-1.77-.21-.49.14-1.37.19-1.83.03-.22.14-.43.32-.57.73-.57,2-1.04,2.8-1.14l1.45.16c.52-.06.93.43.77.93l-.28.91c.02.21-.13.39-.34.42l-1.08.15Z"/>
  <path class="cls-20" d="m27.09,60.53c.07-.3-.05-.59-.27-.65-.22-.06-.47.14-.54.45s.05.59.27.65.47-.14.54-.45Z"/>
  <path class="cls-15" d="m26.69,68.64s-.13.08-.23.1l.41.62.2-.61c.06-.06.06-.16,0-.22l-1.65-1.71,1.27,1.82Z"/>
  <g>
    <polygon class="cls-9" points="87.09 92.29 88.14 91.93 87.52 91.01 87.09 92.29"/>
    <polygon class="cls-9" points="85.06 94.64 86.2 94.23 85.49 93.15 85.06 94.64"/>
    <polygon class="cls-9" points="78.09 82.01 79.24 81.6 80.02 82.76 78.09 82.01"/>
    <polygon class="cls-9" points="81.2 81.64 82.35 81.23 83.13 82.39 81.2 81.64"/>
    <g>
      <path class="cls-9" d="m79.03,83.19l.46,1.02c.2.45.15.87-.11.97l-.6.23c-.75.29-.34,1.95.65,2.59l.79.52c.35.23.62.72.63,1.13l.02.93c.03,1.15.85,1.54,1.5,1.08l.93.48c.23-.16.62.02.9.43l.63.92c.79,1.15,1.89,1.03,1.72-.19l-.14-.98c-.06-.43.15-.69.49-.59l.77.23c.95.28,1.11-1.11.25-2.17l-.69-.85c-.31-.37-.43-.88-.29-1.16l.32-.64c.4-.8-.5-2.41-1.41-2.51l-.73-.08c-.32-.03-.69-.41-.85-.86l-.36-1.03c-.45-1.28-1.74-1.9-2.01-.96l-.21.75c-.09.33-.43.37-.77.09l-.78-.64c-.97-.8-1.67.05-1.09,1.31Z"/>
      <ellipse class="cls-22" cx="83.13" cy="87.56" rx="1.65" ry="2.91" transform="translate(-32.65 53.33) rotate(-30.02)"/>
    </g>
    <g>
      <path class="cls-21" d="m77.96,83.56l.46,1.02c.2.45.15.87-.11.97l-.6.23c-.75.29-.34,1.95.65,2.59l.79.52c.35.23.62.72.63,1.13l.02.93c.03,1.15,1.25,2.39,1.9,1.92l.52-.37c.23-.16.62.02.9.43l.63.92c.79,1.15,1.89,1.03,1.72-.19l-.14-.98c-.06-.43.15-.69.49-.59l.77.23c.95.28,1.11-1.11.25-2.17l-.69-.85c-.31-.37-.43-.88-.29-1.16l.32-.64c.4-.8-.5-2.41-1.41-2.51l-.73-.08c-.32-.03-.69-.41-.85-.86l-.36-1.03c-.45-1.28-1.74-1.9-2.01-.96l-.21.75c-.09.33-.43.37-.77.09l-.78-.64c-.97-.8-1.67.05-1.09,1.31Z"/>
      <ellipse class="cls-22" cx="82.35" cy="87.84" rx="1.65" ry="2.91" transform="translate(-32.9 52.98) rotate(-30.02)"/>
    </g>
  </g>
  <g>
    <path class="cls-17" d="m29.65,81.21l1.9-2.74,3.05,2.11-1.9,2.74c-.38.55-1.07.72-1.55.39l-1.33-.92c-.48-.33-.55-1.04-.18-1.59Z"/>
    <rect class="cls-17" x="31.09" y="68.49" width="16.7" height="3.71" transform="translate(-40.84 62.7) rotate(-55.28)"/>
    <polygon class="cls-14" points="48.72 56.95 47.38 60.34 46.02 59.39 48.72 56.95"/>
    <polygon class="cls-11" points="46.02 59.39 47.38 60.34 45.72 64.54 42.67 62.42 46.02 59.39"/>
    <rect class="cls-22" x="32.47" y="76.51" width="2.82" height="3.71" transform="translate(-49.83 61.58) rotate(-55.28)"/>
  </g>
  <path class="cls-11" d="m31.43,64.31c-.54-.14-1.45-.35-1.66-.35l-1.56.27c-.67,1.02-2.31.37-2.31.37l-2.26.95c-.66.28-.96,1.01-.74,1.65.04.11.09.23.17.34.43.59.76,1.06,1.2,1.06.07,0,.13-.01.21-.04l-.03.98.02.03,1.1,1.67-1.6,1.67c-.27,1.28-1.12,3.72-.96,3.83,2.79,2.02,8.51.1,8.51.1.05-.73-.32-2.29-.31-3.18,0-.57,0-1.15,0-1.72-.01-1.14-.03-2.23-.03-3.1,0-.55.01-1,.04-1.31h0c0-.08.01-.15.02-.21-.09-.36-.21-.82-.28-1.08-.22-.3.3-1.11.63-1.56.02-.02.03-.05.03-.08.04-.14.03-.22-.21-.28Zm-4.72,4.75l-.27-.38c.1-.02.16-.04.16-.04l-1.27-1.82,1.59,1.83-.21.41Z"/>
  <path class="cls-15" d="m23.69,74.79l2.03-3.42-1.51-2.41c.05.73-.26,4.64-.52,5.83Z"/>
  <path class="cls-11" d="m31.66,68.05c0,.45-.26.1-.44-.18,0-.13.01-.24.02-.34h0s-.29-1.09-.29-1.09l-.57.09c-.11-.17-.18-.3-.18-.32,0-.07,1.15-1.89,1.15-1.89,0,0,.11-.04.29.09.41.3,1.11.97,1.23,1.34.17.54-1.2,1.62-1.21,2.3Z"/>
  <path class="cls-15" d="m31.22,67.86c-.01.27-.02.6-.02.97l-.97-1.12c-.21-.24-.23-.59-.06-.86l.22-.33c.26.41.69,1.06.69,1.06,0,0,.07.13.15.27Z"/>
  <path class="cls-20" d="m23.45,69.22l.69.89,3.31,4.38c.2.26.65.37.95.25l2.9-.93,3.32-1.66v-1.22c-.2.13-1.63.62-3.32,1.15-.65.2-1.49.31-1.86.43-.27.08-.6.24-.75.01l-1.89-3.31-.27-.38-1.11-1.59-.04.05-1.01,1.46-.91.47Z"/>
  <g>
    <path class="cls-20" d="m38.09,72.01s-2.81,1.71-3.84,0c-1.03-1.72,5.67-.99,3.84,0Z"/>
    <path class="cls-20" d="m34.33,71.12s1.55-1.27,1.29-.5c-.18.53-1.2.92-1.2.92l-.09-.42Z"/>
  </g>
  <path class="cls-11" d="m24.11,70.36s.3-1.03,2.03-1.58c.16-.05.29-.02.39-.04.2.07.16-.09.16-.09l-1.27-1.82-1.94-.48s-.39.38-.48.82c1.02-2.73-.61-.08-.61-.07-.1.79,1.48,3.38,1.72,3.28Z"/>
</svg>