<?xml version="1.0" encoding="UTF-8"?>
<svg xmlns="http://www.w3.org/2000/svg" viewBox="0 0 67.26 54.74">
  <defs>
    <style>
      .cls-1 {
        mix-blend-mode: screen;
        opacity: .5;
      }

      .cls-1, .cls-2, .cls-3, .cls-4, .cls-5, .cls-6, .cls-7, .cls-8, .cls-9, .cls-10, .cls-11, .cls-12, .cls-13, .cls-14, .cls-15, .cls-16, .cls-17, .cls-18, .cls-19, .cls-20, .cls-21, .cls-22, .cls-23, .cls-24, .cls-25, .cls-26, .cls-27, .cls-28 {
        stroke-width: 0px;
      }

      .cls-1, .cls-22 {
        fill: #a0379f;
      }

      .cls-29 {
        isolation: isolate;
      }

      .cls-2 {
        fill: #f3fcac;
      }

      .cls-3 {
        fill: #4c2e3f;
      }

      .cls-4 {
        fill: #633e53;
      }

      .cls-5 {
        fill: #491d16;
      }

      .cls-6 {
        fill: #2b1622;
      }

      .cls-7 {
        fill: #563243;
      }

      .cls-8 {
        fill: #70475e;
      }

      .cls-9 {
        fill: #895189;
      }

      .cls-10 {
        fill: #895271;
      }

      .cls-11 {
        fill: #a37db6;
      }

      .cls-12 {
        fill: #3a2230;
      }

      .cls-13 {
        fill: #c47aa4;
      }

      .cls-14 {
        fill: #ddb464;
      }

      .cls-15 {
        fill: #b14dc0;
      }

      .cls-16 {
        fill: #ceb26f;
      }

      .cls-17 {
        fill: #b7749a;
      }

      .cls-18 {
        fill: #b79f5c;
      }

      .cls-19 {
        fill: #8f4ca0;
      }

      .cls-20 {
        fill: #995e80;
      }

      .cls-21 {
        fill: #a0247a;
      }

      .cls-23 {
        fill: #fce195;
      }

      .cls-24 {
        fill: #9328a5;
      }

      .cls-25 {
        fill: #fff;
      }

      .cls-26 {
        fill: #ffe9a1;
      }

      .cls-27 {
        fill: #e5f987;
      }

      .cls-28 {
        fill: #f1c977;
      }
    </style>
  </defs>
  <g class="cls-29">
    <g id="_ÎÓÈ_2" data-name="—ÎÓÈ_2">
      <g>
        <g>
          <path class="cls-9" d="m48.39.95c-.89-.24-1.94-.11-2.85-.11s-1.88-.02-2.82,0c-1.8.03-3.21,1.42-3.25,3.23-.01.67,0,1.34,0,2.01v6.86c0,.55.47,1.02,1.02,1.02h9.25c.31,0,.55-.12.72-.29.18-.16.31-.41.31-.73V4.25c0-1.51-.86-2.9-2.38-3.3Zm-6.74,10.96h-.13v-7.41c0-.15,0-.3,0-.44.01-.56.34-.98.88-1.13.11-.03.11-.03.29-.04.02,0,.04,0,.07,0,.14,0,.28,0,.43,0h1.52c.93,0,1.86,0,2.79,0,.77,0,1.23.5,1.24,1.28,0,.76,0,1.53,0,2.29v5.45h-7.07Z"/>
          <rect class="cls-9" x="35.37" y="8.53" width="18.09" height="21.62" rx="1.56" ry="1.56"/>
          <rect class="cls-22" x="37.09" y="8.53" width="18.09" height="21.62" rx="1.56" ry="1.56"/>
          <path class="cls-25" d="m47.01,19.65l1.28,4.63h-4.3l1.28-4.63c-.75-.33-1.28-1.09-1.28-1.96,0-1.19.96-2.15,2.15-2.15s2.15.96,2.15,2.15c0,.88-.52,1.63-1.28,1.96Z"/>
          <path class="cls-9" d="m47.01,19.65l1.28,4.63h-1.28l-1.28-4.63c.75-.33,1.28-1.09,1.28-1.96,0-.96-.63-1.78-1.51-2.05.2-.06.42-.1.64-.1,1.19,0,2.15.96,2.15,2.15,0,.88-.52,1.63-1.28,1.96Z"/>
          <path class="cls-22" d="m49.41.95c-.89-.24-1.94-.11-2.85-.11s-1.88-.02-2.82,0c-1.8.03-3.21,1.42-3.25,3.23-.01.67,0,1.34,0,2.01v6.86c0,.55.47,1.02,1.02,1.02h9.25c.31,0,.55-.12.72-.29.18-.16.31-.41.31-.73V4.25c0-1.51-.86-2.9-2.38-3.3Zm-6.74,10.96h-.13v-7.41c0-.15,0-.3,0-.44.01-.56.34-.98.88-1.13.11-.03.11-.03.29-.04.02,0,.04,0,.07,0,.14,0,.28,0,.43,0h1.52c.93,0,1.86,0,2.79,0,.77,0,1.23.5,1.24,1.28,0,.76,0,1.53,0,2.29v5.45h-7.07Z"/>
          <path class="cls-1" d="m53.29,11.7c-.31,0-.57.26-.57.57v13.95c0,.31.26.57.57.57s.57-.26.57-.57v-13.95c0-.31-.26-.57-.57-.57Z"/>
        </g>
        <g>
          <circle class="cls-25" cx="62.31" cy="4.99" r="4.95"/>
          <path class="cls-19" d="m62.31.05c-2.73,0-4.95,2.21-4.95,4.95s2.21,4.95,4.95,4.95,4.95-2.21,4.95-4.95S65.04.05,62.31.05Zm0,8.51c-1.97,0-3.56-1.59-3.56-3.56s1.6-3.56,3.56-3.56,3.56,1.59,3.56,3.56-1.59,3.56-3.56,3.56Z"/>
          <path class="cls-19" d="m64.97,3.13c-.13-.29-.42-.5-.68-.5-.16,0-.31.08-.44.23l-2.32,2.65-.76-.84c-.14-.15-.29-.23-.45-.23-.27,0-.56.21-.69.5-.07.16-.15.48.13.79l1.27,1.41c.11.12.3.2.51.2h0c.2,0,.39-.07.49-.19l2.81-3.22c.28-.32.2-.65.12-.81Z"/>
        </g>
        <path class="cls-11" d="m53.15,54.23c0,.35-11.9.51-26.58.51s-26.58-.13-26.58-.51,11.9-.46,26.58-.46,26.58.11,26.58.46Z"/>
        <g>
          <g>
            <path class="cls-6" d="m31.99,28.91l1.48-12.82c.11-.94.9-1.64,1.85-1.64h6.18c1.11,0,1.97.97,1.85,2.07l-1.48,12.82c-.11.94-.9,1.64-1.85,1.64h-6.18c-1.11,0-1.97-.97-1.85-2.07Z"/>
            <path class="cls-3" d="m30.17,28.91l1.48-12.82c.11-.94.9-1.64,1.85-1.64h6.18c1.11,0,1.97.97,1.85,2.07l-1.48,12.82c-.11.94-.9,1.64-1.85,1.64h-6.18c-1.11,0-1.97-.97-1.85-2.07Z"/>
            <path class="cls-8" d="m27.73,51.02c.54,0,1.01.24,1.33.63l4.06-1.54v-12.38h1.44v12.38l4.06,1.54c.31-.38.79-.63,1.33-.63.95,0,1.72.77,1.72,1.72s-.77,1.72-1.72,1.72c-.85,0-1.56-.62-1.69-1.44l-3.73-1.4h-1.36l-3.73,1.4c-.13.82-.84,1.44-1.69,1.44-.95,0-1.72-.77-1.72-1.72s.77-1.72,1.72-1.72Z"/>
            <path class="cls-12" d="m27.51,35.72c0,1.11.9,2.01,2.01,2.01h10.13c.55,0,1.06-.22,1.42-.59.36-.36.59-.86.59-1.42,0-1.11-.9-2.01-2.01-2.01h-10.13c-.55,0-1.06.22-1.42.59-.36.36-.59.86-.59,1.42Z"/>
            <path class="cls-6" d="m37.49,35.72c0,1.11.9,2.01,2.01,2.01h.15c.55,0,1.06-.22,1.42-.59.36-.36.59-.86.59-1.42,0-1.11-.9-2.01-2.01-2.01h-.15c-.55,0-1.06.22-1.42.59-.36.36-.59.86-.59,1.42Z"/>
          </g>
          <path class="cls-6" d="m24.62,49.97c.35,1.26.52,2.57.5,3.88-1.88.26-3.76.48-5.65.4-.17,0-.35-.02-.51-.1-.15-.08-.27-.26-.23-.43.06-.22.33-.3.55-.35,1.74-.42,3.18-1.9,3.56-3.65.44.2,1.29.22,1.78.25Z"/>
          <path class="cls-6" d="m32.86,50.15c.35,1.26.52,2.57.5,3.88-1.88.26-3.76.48-5.65.4-.17,0-.35-.02-.51-.1-.15-.08-.27-.26-.23-.43.06-.22.33-.3.55-.35,1.74-.42,3.18-1.9,3.56-3.65.44.2,1.29.22,1.78.25Z"/>
          <polygon class="cls-23" points="19.98 25.51 19.98 27.25 30.6 27.25 31.86 20.33 29.95 19.18 29.95 19.18 28.62 24.54 19.98 25.51"/>
          <path class="cls-4" d="m22.01,50.34s.6.36,1.79.39c.69.01.87.04,1.47-.21l2.18-14.4c2.01.2,4.2.36,5.9-.67,1.12-.68,1.89-1.84,2.05-3.09.16-1.25-.3-2.55-1.22-3.46-1.32.11-2.74.18-4.06.29-1.47,1.44-4.18.73-5.93,1.84-.96.61-1.49,1.7-1.64,2.78-.02.14-.03.28-.04.42h0s-.49,16.09-.49,16.09Z"/>
          <path class="cls-4" d="m27.31,33.83c.16-1.08.69-2.17,1.67-2.78.82-.52,1.85-.64,2.87-.77,1.18-.15,2.35-.3,3.15-1.07,1.34-.11,2.34-.18,3.68-.29,0,0,0,0,0,0,.04.09,3.05,6.74-4.74,7.2-.5.03-1.05.03-1.65,0,0,.05,0,.1.02.15,0,0,0,0,0,.02.48,4.79.71,9.98,1.19,14.76-1.39.3-2.22.34-3.6,0-.71-4.51-1.69-9.45-2.4-13.96-.17-1.08-.34-2.18-.18-3.27Z"/>
          <path class="cls-4" d="m36.99,7.71c1.53.11.88,2.65.16,4.12-.36.73-1.67,1.1-2.3,1.01.7-.94,1.67-1.85,1.81-3.13.28.07.05-1.87.32-2Z"/>
          <path class="cls-26" d="m33.82,15.37c.96.36,2.06.33,3.01-.06-.43-1-.51-2.67-.21-3.72-.51.2-1.03.35-1.54.52-.38.12-.75.24-1.12.38.03.52.02,1.26-.03,1.93-.02.35-.06.68-.11.95Z"/>
          <path class="cls-28" d="m33.93,14.42c1.85-.47,2.39-2.14,2.39-2.14l-1.23-.17c-.38.12-.75.24-1.12.38.03.52.02,1.26-.03,1.93Z"/>
          <path class="cls-4" d="m33.2,7.67c-.32.27-.68.86-.42,1.67.12.37.35.7.66.93-.02-.64-.02-1.28-.04-1.92-.21-.02-.01-.59-.2-.68Z"/>
          <path class="cls-26" d="m33.37,13.23c.55.46,1.58.33,2.16,0,.59-.34.89-.78,1.12-1.43.01-.04.03-.08.04-.12-.01-.08-.03-.16-.03-.25-.02-.22-.02-.45-.02-.67,0-.37-.02-.76-.19-1.1-.2-.42.14-1.25-.29-1.44-.84-.27-2.58.09-2.89.04-.06,0-.1.03-.11.09l-.03.87h0c0,.13,0,.25-.01.38-.05.64-.24,1.25-.27,1.89-.03.64,0,1.31.51,1.74Z"/>
          <path class="cls-26" d="m36.59,10.58c0-.14.16-.36.28-.41.12-.06.27.02.37.11.26.24.22.7.1,1.02-.12.31-.46.52-.81.5,0-.4.05-.82.05-1.21Z"/>
          <path class="cls-14" d="m34.24,11.12s-.03.04-.09.05c-.06.01-.16,0-.25-.05,0,0,0,0,0,0-.06-.04-.1-.08-.13-.12-.04-.06-.06-.12-.05-.16,0-.02,0-.03.02-.03,0,0,0,0,.01,0,.02.01.05.05.09.09.03.03.07.07.11.09,0,0,0,0,.02.01.07.04.14.06.2.08.05.01.08.02.09.04Z"/>
          <path class="cls-3" d="m35.47,9.41c-.3-.18-.56-.31-.9-.19-.1.03-.07.16.06.18.37.04.49.05.81.18.14.06.21-.06.04-.17Z"/>
          <path class="cls-3" d="m33.16,9.34c.12-.12.3-.13.45-.14.1,0,.18.09.06.15-.33.15-.33.11-.48.2-.1.07-.17-.08-.03-.21Z"/>
          <path class="cls-4" d="m36.65,10.24c-.34-.52-.79-1.08-.59-1.66-.71.16-1.44.21-2.16.16-.48-.03-.66-.13-1-.47-.72-.75-.1-2.18.29-2.46.21.46.75.66,1.25.7.5.04,1.02-.03,1.49.12.73.23,1.24.96,1.27,1.72.04.76.07,1.46-.55,1.9Z"/>
          <path class="cls-7" d="m34.87,10s.1,0,.12.03c.04.08.04.19,0,.27-.02.04-.08.05-.12.03-.02-.01-.03-.03-.04-.05-.05-.08-.04-.23.04-.28Z"/>
          <path class="cls-7" d="m33.36,10.02s.1,0,.12.03c.04.08.04.19,0,.27-.02.04-.08.05-.12.03-.02-.01-.03-.03-.04-.05-.05-.08-.04-.23.04-.28Z"/>
          <path class="cls-3" d="m32.99,30.21c-1,.18-2.03.21-3,.5-1.03.31-1.82.99-2.25,1.97-.43.98-.44,2.07-.33,3.12.13,1.17.35,2.34.54,3.5.02.13-.18.19-.2.05-.2-1.21-.44-2.42-.56-3.64-.11-1.06-.08-2.15.36-3.14.39-.87,1.05-1.55,1.93-1.91,1.08-.45,2.3-.45,3.44-.66.13-.02.19.18.05.2h0Z"/>
          <path class="cls-5" d="m32.3,36.28s0,0,0,.02c0,0,0-.01-.01-.02,0,0,0,0,.01,0Z"/>
          <path class="cls-15" d="m42.39,20.73s-1.34.57-2.85.44c-.06.5-.11,1.03-.16,1.59-.18,1.88-.32,3.99-.41,5.61-.03.45-.05.86-.07,1.21-2.02.24-4.05.3-6.07.17-.31-.02-.63-.04-.94-.07-.37-.03-.74-.07-1.1-.11-.35-.04-.69-.09-1.03-.14.22-.93.41-1.84.58-2.72.06-.31.11-.61.16-.91.03-.15.05-.31.08-.46.28-1.73.45-3.34.57-4.74-.36-.2-.66-.44-.9-.7-.22-.24-.14-.49-.28-.72l.83-2.49c.19-.58.61-1.07,1.17-1.33,0,0,.01,0,.01,0,.32-.14.69-.31.93-.41.14-.06.29-.12.43-.18.04-.02.07-.03.11-.05.13-.06.27-.11.4-.17.47-.2.93-.4,1.36-.61.49.21.97.42,1.46.63,0,0,.02,0,.02.01h0s0,0,0,0c.02,0,.18.07.43.17.07.03.15.06.23.1l.13.05,2.01.71c1.45.51,2.49,1.77,2.74,3.28,0,0,.18,1.33.17,1.83Z"/>
          <path class="cls-25" d="m37.47,14.9l-.06.08c-1.66,2.23-2.45,2.48-2.9,2.48-.27,0-.51-.11-.69-.31-.51-.58-.45-1.87-.4-2.44.13-.06.27-.11.4-.17.47-.2.93-.4,1.36-.61.49.21.97.42,1.46.63,0,0,.02,0,.02.01h0s0,0,0,0c.02,0,.18.07.43.17.07.03.15.06.23.1l.13.05Z"/>
          <path class="cls-26" d="m28.78,27.25h3.95s6.45,0,6.45,0h0s1.94,0,1.94,0c.74,0,1.36-.58,1.4-1.32.1-1.88-.12-5.2-.12-5.2,0,0,0,0,0,0-1.47.52-3.6.39-3.6.39l.23,3.56-6.88,1.29s-3.93-1.86-3.35,1.27Z"/>
          <path class="cls-28" d="m37.45,24.91c.79-.18,1.6-.34,2.41-.39.09,0,.09.13,0,.14-.8.05-1.6.21-2.38.39-.09.02-.12-.11-.04-.13h0Z"/>
          <path class="cls-28" d="m27.66,24.75c.44-.05.89-.08,1.33-.08.09,0,.1-.14,0-.14-.45,0-.91.03-1.36.08,0,0-.15.07.02.14Z"/>
          <path class="cls-14" d="m34.45,11.79c-.14,0-.27.01-.4.05-.06.02-.03.11.03.09.12-.04.25-.06.37-.05.06,0,.06-.09,0-.09Z"/>
          <path class="cls-24" d="m38.81,22.64c-.07-.85-.14-1.7-.22-2.55,0-.09.13-.09.14,0,.07.85.14,1.7.22,2.55,0,.09-.13.09-.14,0h0Z"/>
          <path class="cls-24" d="m30.99,21.42c.09-.89.18-1.77.27-2.66,0-.09.15-.09.14,0-.09.89-.18,1.77-.27,2.66,0,.09-.15.09-.14,0h0Z"/>
          <path class="cls-3" d="m33.58,36.19c-.57.07-1.13.07-1.7,0-.13-.02-.13-.22,0-.21.57.07,1.13.06,1.7,0,.13-.02.13.19,0,.21h0Z"/>
          <path class="cls-3" d="m35.6,30.07c.6,1.07,1.77,1.7,2.99,1.61.13,0,.17.19.04.2-1.32.09-2.57-.57-3.22-1.72-.07-.12.12-.2.19-.09h0Z"/>
          <path class="cls-26" d="m37.11,14.76c-4.01,5.37-3.28-.21-3.28-.21.47-.2.93-.4,1.36-.61.49.21.97.42,1.46.63,0,0,.02,0,.02.01h0s0,0,0,0c.02,0,.18.07.43.17Z"/>
        </g>
        <g>
          <path class="cls-20" d="m1.46,54.38h.58v-.41h-.03c.03-.07.05-.15.05-.23.28-2.73.55-5.45.83-8.18.13-1.28.26-2.56.39-3.84h15.56c-.31,3.02-.61,6.04-.92,9.06-.1.99-.2,1.98-.3,2.97-.04.35.3.64.6.64h.58v-.41h-.03c.03-.07.05-.15.05-.23.28-2.73.55-5.45.83-8.18.44-4.34.88-8.68,1.32-13.02.1-.99.2-1.98.3-2.97.04-.35-.3-.64-.6-.64-.36,0-.57.3-.6.64-.28,2.73-.55,5.45-.83,8.18-.09.89-.18,1.78-.27,2.68H3.42c.27-2.63.53-5.26.8-7.89.1-.99.2-1.98.3-2.97.04-.35-.3-.64-.6-.64-.36,0-.57.3-.6.64-.28,2.73-.55,5.45-.83,8.18-.44,4.34-.88,8.68-1.32,13.02-.1.99-.2,1.98-.3,2.97-.04.35.3.64.6.64Z"/>
          <path class="cls-4" d="m21.26,28.93c-.35,0-.57.3-.6.64-.28,2.73-.55,5.45-.83,8.18-.09.89-.18,1.78-.27,2.68H4c.27-2.63.53-5.26.8-7.89.1-.99.2-1.98.3-2.97.04-.35-.3-.64-.6-.64-.35,0-.57.3-.6.64-.28,2.73-.55,5.45-.83,8.18-.44,4.34-.88,8.68-1.32,13.02-.1.99-.2,1.98-.3,2.97-.04.35.3.64.6.64.35,0,.57-.3.6-.64.28-2.73.55-5.45.83-8.18.13-1.28.26-2.56.39-3.84h15.56c-.31,3.02-.61,6.04-.92,9.06-.1.99-.2,1.98-.3,2.97-.04.35.3.64.6.64.35,0,.57-.3.6-.64.28-2.73.55-5.45.83-8.18.44-4.34.88-8.68,1.32-13.02.1-.99.2-1.98.3-2.97.04-.35-.3-.64-.6-.64Z"/>
          <path class="cls-13" d="m30.4,29.57c.1.99.2,1.98.3,2.97.44,4.34.88,8.68,1.32,13.02.28,2.73.55,5.45.83,8.18.04.35.25.64.6.64h.56v-.39c.03-.08.05-.17.04-.25-.1-.99-.2-1.98-.3-2.97-.31-3.02-.61-6.04-.92-9.06h15.56c.13,1.28.26,2.56.39,3.84.28,2.73.55,5.45.83,8.18.04.35.25.64.6.64h.56v-.39c.03-.08.05-.17.04-.25-.1-.99-.2-1.98-.3-2.97-.44-4.34-.88-8.68-1.32-13.02-.28-2.73-.55-5.45-.83-8.18-.04-.35-.25-.64-.6-.64-.3,0-.64.3-.6.64.1.99.2,1.98.3,2.97.27,2.63.53,5.26.8,7.89h-15.56c-.09-.89-.18-1.78-.27-2.68-.28-2.73-.55-5.45-.83-8.18-.04-.35-.25-.64-.6-.64-.3,0-.64.3-.6.64Z"/>
          <path class="cls-20" d="m31.56,28.93c.35,0,.57.3.6.64.28,2.73.55,5.45.83,8.18.09.89.18,1.78.27,2.68h15.56c-.27-2.63-.53-5.26-.8-7.89-.1-.99-.2-1.98-.3-2.97-.04-.35.3-.64.6-.64.35,0,.57.3.6.64.28,2.73.55,5.45.83,8.18.44,4.34.88,8.68,1.32,13.02.1.99.2,1.98.3,2.97.04.35-.3.64-.6.64-.36,0-.57-.3-.6-.64-.28-2.73-.55-5.45-.83-8.18-.13-1.28-.26-2.56-.39-3.84h-15.56c.31,3.02.61,6.04.92,9.06.1.99.2,1.98.3,2.97.04.35-.3.64-.6.64-.36,0-.57-.3-.6-.64-.28-2.73-.55-5.45-.83-8.18-.44-4.34-.88-8.68-1.32-13.02-.1-.99-.2-1.98-.3-2.97-.04-.35.3-.64.6-.64Z"/>
          <rect class="cls-27" x="1.44" y="27.25" width="49.64" height="2.92"/>
          <g>
            <path class="cls-2" d="m37.98,27.37c.06-.04.11-.08.17-.12h-.61c-.05.05-.1.09-.15.14-.43.43-.78.94-1.24,1.34-.67.57-1.5.71-2.32.38-.22-.09-.31.27-.1.35,1.08.44,2.14.1,2.93-.72.44-.45.8-.99,1.31-1.37Z"/>
            <path class="cls-2" d="m41.85,29.1c-.43.09-.85.09-1.24-.14-.23-.14-.43-.33-.67-.45-.39-.2-.81-.2-1.21-.04-.9.35-1.48,1.18-2.25,1.7h.6c.34-.28.66-.6,1.01-.88.36-.29.74-.54,1.22-.55.38,0,.6.17.9.38.41.29.81.43,1.32.4,1.26-.09,2.24-1.14,3.55-.85.99.22,1.76.94,2.6,1.5h.7c-1.03-.55-1.87-1.45-3-1.8-1.35-.42-2.26.46-3.52.73Z"/>
            <path class="cls-2" d="m42.6,30.17h.67c.64-.38,1.36-.61,2.04-.26.15.08.28.16.42.26h.6c-.41-.32-.81-.65-1.32-.77-.84-.2-1.7.27-2.41.77Z"/>
            <path class="cls-2" d="m50.41,28.08c-.93.15-1.97.6-2.91.34-.69-.19-1.24-.66-1.73-1.17h-.49c.99,1.06,2.08,1.85,3.65,1.51.71-.15,1.43-.31,2.15-.41v-.38c-.23.03-.45.07-.67.1Z"/>
            <path class="cls-2" d="m50.54,30.17c.17-.1.35-.18.54-.25v-.38c-.43.13-.83.35-1.18.63h.64Z"/>
          </g>
          <rect class="cls-18" x="1.44" y="27.25" width="32.4" height="2.92"/>
          <g>
            <path class="cls-16" d="m27.83,30.17h-.61c-.05-.04-.11-.08-.16-.12-.77-.53-1.59-.95-2.54-.97-.99-.02-1.95.3-2.92.46-.76.12-1.53.11-2.28-.06-.87-.2-1.71-.87-2.63-.72-.9.15-1.71.81-2.46,1.28-.07.04-.13.08-.2.13h-.72c.11-.06.21-.12.3-.18.67-.4,1.3-.86,1.99-1.22.6-.31,1.22-.51,1.89-.34.87.22,1.61.7,2.52.8,1.69.18,3.29-.71,4.97-.48.76.1,1.45.45,2.08.87.26.17.51.36.76.55Z"/>
            <path class="cls-16" d="m33.84,29.12v.37c-1.02-.29-2.11-.26-3.16-.15-1.17.13-2.18.29-3.25-.31-.76-.43-1.33-1.08-1.82-1.78h.45c.63.84,1.42,1.6,2.47,1.82,1.18.25,2.48-.2,3.69-.17.55.01,1.1.08,1.62.22Z"/>
            <path class="cls-16" d="m33.06,27.25c-.73.55-1.48,1.07-2.46,1.17-1.2.13-2.34-.33-3.14-1.17h.54c.86.72,2.02,1.02,3.16.69.5-.14.93-.4,1.34-.69h.56Z"/>
            <path class="cls-16" d="m23.89,27.25c-.77.62-1.7,1.02-2.69,1.16-.62.09-1.25.07-1.87-.06-.86-.18-1.68-.7-2.58-.61-.79.07-1.46.59-2.25.72-.7.11-1.43,0-2.09-.24-.62-.23-1.18-.57-1.68-.97h.61c.42.29.87.53,1.37.68.79.25,1.61.28,2.4-.02.57-.21,1.1-.52,1.72-.55.72-.04,1.38.28,2.05.49.63.2,1.27.28,1.92.24.89-.07,1.73-.36,2.46-.83h.63Z"/>
            <path class="cls-16" d="m9.5,30.17h-.33c0-.38-.11-.74-.39-1.06-.63-.73-1.7-.66-2.57-.63-1.39.05-2.65-.29-3.64-1.23h.57c.67.51,1.46.82,2.32.86.92.05,1.85-.15,2.73.17.95.35,1.31,1.08,1.31,1.88Z"/>
            <path class="cls-16" d="m6.43,30.17h-.39c-.3-.44-1.02-.69-1.51-.77-.6-.1-1.21-.11-1.8-.24-.5-.11-.91-.33-1.28-.62v-.48c.33.31.71.56,1.18.7.71.21,1.47.17,2.19.33.65.14,1.35.52,1.61,1.09Z"/>
          </g>
        </g>
        <g>
          <path class="cls-4" d="m12.05,16.63h12.08c.35,0,.64.26.68.61l1.04,8.96h-13.46l-1.02-8.8c-.05-.41.27-.77.68-.77Z"/>
          <path class="cls-10" d="m31.08,26.2c.2,0,.36.16.36.36v.32c0,.2-.16.36-.36.36H12.24c-.2,0-.36-.16-.36-.36v-.68h19.21Z"/>
          <path class="cls-4" d="m31.08,26.2c.2,0,.36.16.36.36v.32c0,.2-.16.36-.36.36h-5.75v-1.05h5.75Z"/>
          <path class="cls-20" d="m11.54,16.63h12.08c.35,0,.64.26.68.61l1.04,8.96h-13.46l-1.02-8.8c-.05-.41.27-.77.68-.77Z"/>
          <polygon class="cls-25" points="16.6 22.19 19.61 22.19 19.47 20.98 16.46 20.98 16.6 22.19"/>
          <path class="cls-17" d="m11.86,18.35c.24,2.32.58,4.65.83,6.97.03.26-.39.26-.41,0-.24-2.32-.58-4.65-.83-6.97-.03-.26.39-.26.41,0h0Z"/>
        </g>
        <g>
          <path class="cls-21" d="m12.47.76v2.32c0,.42.34.76.76.76h19.08l1.3,1.79c.18.18.48.05.48-.2V.76c0-.42-.34-.76-.76-.76H13.24c-.42,0-.76.34-.76.76Z"/>
          <g>
            <path class="cls-25" d="m15.09,2.47v-.14l.12.08c.11.07.25.05.33-.05.08-.1.06-.23-.05-.3l-.24-.17.24-.17c.11-.07.13-.21.05-.3-.08-.1-.23-.12-.33-.05l-.12.08v-.14c0-.12-.11-.22-.24-.22s-.24.1-.24.22v.14l-.12-.08c-.11-.07-.25-.05-.33.05s-.06.23.05.3l.24.17-.24.17c-.11.07-.13.21-.05.3.08.1.23.12.33.05l.12-.08v.14c0,.12.11.22.24.22s.24-.1.24-.22Z"/>
            <path class="cls-25" d="m17.01,2.47v-.14l.12.08c.11.07.25.05.33-.05.08-.1.06-.23-.05-.3l-.24-.17.24-.17c.11-.07.13-.21.05-.3-.08-.1-.23-.12-.33-.05l-.12.08v-.14c0-.12-.11-.22-.24-.22s-.24.1-.24.22v.14l-.12-.08c-.11-.07-.25-.05-.33.05-.08.1-.06.23.05.3l.24.17-.24.17c-.11.07-.13.21-.05.3.08.1.23.12.33.05l.12-.08v.14c0,.12.11.22.24.22s.24-.1.24-.22Z"/>
            <path class="cls-25" d="m18.94,2.47v-.14l.12.08c.11.07.25.05.33-.05.08-.1.06-.23-.05-.3l-.24-.17.24-.17c.11-.07.13-.21.05-.3s-.23-.12-.33-.05l-.12.08v-.14c0-.12-.11-.22-.24-.22s-.24.1-.24.22v.14l-.12-.08c-.11-.07-.25-.05-.33.05-.08.1-.06.23.05.3l.24.17-.24.17c-.11.07-.13.21-.05.3.08.1.23.12.33.05l.12-.08v.14c0,.12.11.22.24.22s.24-.1.24-.22Z"/>
            <path class="cls-25" d="m20.86,2.47v-.14l.12.08c.11.07.25.05.33-.05.08-.1.06-.23-.05-.3l-.24-.17.24-.17c.11-.07.13-.21.05-.3-.08-.1-.23-.12-.33-.05l-.12.08v-.14c0-.12-.11-.22-.24-.22s-.24.1-.24.22v.14l-.12-.08c-.11-.07-.25-.05-.33.05-.08.1-.06.23.05.3l.24.17-.24.17c-.11.07-.13.21-.05.3.08.1.23.12.33.05l.12-.08v.14c0,.12.11.22.24.22s.24-.1.24-.22Z"/>
            <path class="cls-25" d="m22.79,2.47v-.14l.12.08c.11.07.25.05.33-.05.08-.1.06-.23-.05-.3l-.24-.17.24-.17c.11-.07.13-.21.05-.3s-.23-.12-.33-.05l-.12.08v-.14c0-.12-.11-.22-.24-.22s-.24.1-.24.22v.14l-.12-.08c-.11-.07-.25-.05-.33.05-.08.1-.06.23.05.3l.24.17-.24.17c-.11.07-.13.21-.05.3.08.1.23.12.33.05l.12-.08v.14c0,.12.11.22.24.22s.24-.1.24-.22Z"/>
            <path class="cls-25" d="m24.71,2.47v-.14l.12.08c.11.07.25.05.33-.05.08-.1.06-.23-.05-.3l-.24-.17.24-.17c.11-.07.13-.21.05-.3s-.23-.12-.33-.05l-.12.08v-.14c0-.12-.11-.22-.24-.22s-.24.1-.24.22v.14l-.12-.08c-.11-.07-.25-.05-.33.05-.08.1-.06.23.05.3l.24.17-.24.17c-.11.07-.13.21-.05.3.08.1.23.12.33.05l.12-.08v.14c0,.12.11.22.24.22s.24-.1.24-.22Z"/>
            <path class="cls-25" d="m26.63,2.47v-.14l.12.08c.11.07.25.05.33-.05.08-.1.06-.23-.05-.3l-.24-.17.24-.17c.11-.07.13-.21.05-.3-.08-.1-.23-.12-.33-.05l-.12.08v-.14c0-.12-.11-.22-.24-.22s-.24.1-.24.22v.14l-.12-.08c-.11-.07-.25-.05-.33.05-.08.1-.06.23.05.3l.24.17-.24.17c-.11.07-.13.21-.05.3.08.1.23.12.33.05l.12-.08v.14c0,.12.11.22.24.22s.24-.1.24-.22Z"/>
            <path class="cls-25" d="m28.56,2.47v-.14l.12.08c.11.07.25.05.33-.05.08-.1.06-.23-.05-.3l-.24-.17.24-.17c.11-.07.13-.21.05-.3-.08-.1-.23-.12-.33-.05l-.12.08v-.14c0-.12-.11-.22-.24-.22s-.24.1-.24.22v.14l-.12-.08c-.11-.07-.25-.05-.33.05-.08.1-.06.23.05.3l.24.17-.24.17c-.11.07-.13.21-.05.3.08.1.23.12.33.05l.12-.08v.14c0,.12.11.22.24.22s.24-.1.24-.22Z"/>
            <path class="cls-25" d="m30.48,2.47v-.14l.12.08c.11.07.25.05.33-.05.08-.1.06-.23-.05-.3l-.24-.17.24-.17c.11-.07.13-.21.05-.3-.08-.1-.23-.12-.33-.05l-.12.08v-.14c0-.12-.11-.22-.24-.22s-.24.1-.24.22v.14l-.12-.08c-.11-.07-.25-.05-.33.05-.08.1-.06.23.05.3l.24.17-.24.17c-.11.07-.13.21-.05.3.08.1.23.12.33.05l.12-.08v.14c0,.12.11.22.24.22s.24-.1.24-.22Z"/>
          </g>
        </g>
      </g>
    </g>
  </g>
</svg>