<?xml version="1.0" encoding="UTF-8"?>
<svg id="Layer_1" data-name="Layer 1" xmlns="http://www.w3.org/2000/svg" viewBox="0 0 130.35 144">
  <defs>
    <style>
      .cls-1 {
        isolation: isolate;
      }

      .cls-2 {
        fill: #f4d6d4;
      }

      .cls-2, .cls-3, .cls-4, .cls-5, .cls-6, .cls-7, .cls-8, .cls-9, .cls-10, .cls-11, .cls-12, .cls-13, .cls-14, .cls-15, .cls-16, .cls-17, .cls-18, .cls-19, .cls-20, .cls-21, .cls-22, .cls-23, .cls-24, .cls-25 {
        stroke-width: 0px;
      }

      .cls-3 {
        fill: #f3a250;
      }

      .cls-4 {
        fill: #4c5c75;
      }

      .cls-5 {
        fill: #6d4eea;
      }

      .cls-6 {
        fill: #1d2943;
      }

      .cls-7 {
        fill: #ddb040;
      }

      .cls-8 {
        fill: #c9cee2;
      }

      .cls-9 {
        fill: #c148f4;
      }

      .cls-10 {
        fill: #b28afd;
      }

      .cls-11 {
        fill: #a5cfee;
      }

      .cls-12 {
        fill: #8fabfe;
      }

      .cls-13 {
        fill: #7e5af2;
      }

      .cls-14 {
        fill: #986ff9;
      }

      .cls-15 {
        fill: #a32de9;
      }

      .cls-16 {
        fill: #72d561;
      }

      .cls-17 {
        fill: #678aee;
      }

      .cls-18 {
        fill: #f45170;
      }

      .cls-19 {
        fill: #f1f6fa;
      }

      .cls-20 {
        fill: #fff;
      }

      .cls-21 {
        fill: #f5c9c6;
      }

      .cls-22 {
        fill: #e93565;
      }

      .cls-23 {
        fill: #e3e7f0;
      }

      .cls-24 {
        fill: #ffd06c;
      }

      .cls-25 {
        fill: #eabab9;
      }
    </style>
  </defs>
  <path class="cls-21" d="m80.07,61.2c-.85,2.51-7.85,7.83-9.25,7.8-1.41-.01-1.31-1.62.74-3.46,2-1.82,2.94-4.26,2.99-4.4-1.01.95-3.06,1.12-3.08.12-.04-1.31,3.45-2.69,5.03-3.23,1.57-.52,4.42.68,3.58,3.18Z"/>
  <path class="cls-12" d="m97.37,23.99l-1.83,11.77-.94,13.93-14.41,12.85c-.08.06-.19.06-.33.02-.43-.12-1.14-.69-1.85-1.38h-.01c-1.31-1.27-3.34-3.68-2.95-4.05l10.32-10.32c1.11-5.05,4.45-10.28,7.9-16.11,0-.01.02-.04.02-.06.55-1.16,1.1-2.19,1.63-3.08,1.34-2.27,2.44-3.57,2.44-3.57Z"/>
  <path class="cls-17" d="m97.37,23.99l-1.83,11.77-.94,13.93-14.41,12.85c-.08.06-.19.06-.33.02-.43-.12-1.14-.69-1.85-1.38,0,0,9.82-9,11.41-12.19l5.5-21.43c1.34-2.27,2.44-3.57,2.44-3.57Z"/>
  <path class="cls-4" d="m120.63,109.28s5.26,2.13,4.47,4.63c-.79,2.5-1.12,1.87-1.13,4.94-.01,3.07-2.39,12.09-6.24,11.06-3.85-1.02-.89-13.01-.87-13.36.02-.35,3.76-7.27,3.76-7.27Z"/>
  <path class="cls-4" d="m105.08,144c4.05.2,7.12-3.72,7.96-5.44.83-1.72,4.88-3.56,5.31-5.12.44-1.55-1.66-3.63-1.66-3.63l-2.57-3.76-7.72,4.19c-1.4,4-2.04,7.6-5.02,11-.43.67-.33,2.56,3.7,2.76Z"/>
  <path class="cls-15" d="m94.11,71.32c-.79,6.93-3.38,16.78-3.51,25.4-.07.76.14,1.54.58,2.16,6.24,8.65,16.99,12.77,25.45,17.94,1.34.73,5.35-6.8,4.01-7.53l-18.65-15.57,8.33-26.09-11.2-4.57-5,8.26Z"/>
  <path class="cls-9" d="m105.05,103.75c1.93,10.05,1.16,26.77,1.16,26.77.03.81,4,.94,7.12.63,2.06-.22,3.77-.62,3.74-1.16l-1.47-29.34c5.15-16.58,3.01-30.33,3.01-30.33l-9.84-6.57-5.75-3.85s-.4.21-.97,8.87c-.56,8.68,1.07,24.93,3,34.98Z"/>
  <g>
    <path class="cls-12" d="m119.28,72.5c.01,1.03.01,1.68.01,1.68,0,0-19.01,4.17-25.13-2.98,0,0,.27-6.24.36-13.11.02-1.82.04-3.69.03-5.49h0c-.01-3.65-.1-7.04-.35-9.35-1.32-12.3,1.86-19.31,4.19-19.88,3.48-.87,13.2,3.06,13.2,3.06,0,0,2.65,1.11,5.12,2.49h.01c1.66.93,3.23,1.98,3.8,2.87.07.11.12.26.18.44.95,3.59-1.66,20.98-1.55,26.1.09,3.74.12,9.88.14,13.32v.86Z"/>
    <path class="cls-17" d="m111.86,58.13c.37-.25,2.06,2.06,2.71,3.41.24.49.34.84.21.93,0,0,11.24-5.28,13.91-6.78.18-.1.32-.19.43-.26,1.54-1.04,1.87-2.78-.35-9.37-2.29-6.77-8.3-14.4-8.3-14.4,0,0-1.18-1.5-2.74-1.26-.96.13-2.07.96-3.15,3.24-1.91,4.1,1.21,8.81,1.21,8.81l7.47,9.15-11.4,6.55Z"/>
    <path class="cls-17" d="m119.3,74.17s-19.01,4.17-25.13-2.98c0,0,.27-6.24.36-13.11.88,3.94,2.85,8.97,7.33,11.41,4.89,2.69,12.36,3.11,17.43,3,.01,1.03.01,1.68.01,1.68Z"/>
    <polygon class="cls-8" points="123.47 62.05 110.1 74.49 109.24 74.34 103.19 50.73 116.74 38.45 117.61 38.6 123.47 62.05"/>
    <polygon class="cls-19" points="104.05 50.87 110.1 74.48 123.47 62.06 117.6 38.6 104.05 50.87"/>
    <polygon class="cls-23" points="103.19 50.72 104.05 50.87 117.6 38.6 116.75 38.46 103.19 50.72"/>
    <polygon class="cls-8" points="103.19 50.72 109.24 74.34 110.1 74.48 104.05 50.87 103.19 50.72"/>
  </g>
  <path class="cls-21" d="m112.14,58.13s-2.47.68-3.06,1.65c-.59.97-2.27.77-2.6.27-.32-.5-1.15-.09-.54,2.19.62,2.28,1.78,3.64,2.78,3.72,1,.07,3.11.13,4.85-1.14l1.29-1.03.24-3.6-1.86-2.06h-1.1Z"/>
  <path class="cls-17" d="m113.5,62.26c.63,1.15,1.21,2.06,1.35,1.99,0,0,11.03-6.71,13.72-8.43.18-.1.32-.19.43-.26l-2.28-1.5-3.57-2.34-11.59,6.19c-.22.1.93,2.53,1.94,4.35Z"/>
  <path class="cls-12" d="m113.5,62.26c.28-.18.6-.37.96-.59,3.37-2.04,9.53-5.81,11.46-7.05.18-.1.32-.19.43-.26.13-.09.26-.19.38-.31,1.19-1.07,1.28-3.04-.75-9.06-2.29-6.77-8.18-14.53-8.18-14.53,0,0-.01-.03-.06-.07-.96.13-2.34.93-3.41,3.21-1.91,4.1,1.35,8.96,1.35,8.96l7.47,9.15-11.59,6.19c-.22.1.93,2.53,1.94,4.35Z"/>
  <g>
    <path class="cls-21" d="m102.23,32.18c.57.49,1.51.86,2.86,1,3.37.34,6.38-1.84,7.84-4.2.91-1.44-.02-3.86-.86-5.52-.54-1.05-1.05-1.8-1.05-1.8l-7.92,4.27c.38.75-.4,2.52-1.28,3.83-.51.78-.45,1.71.4,2.41Z"/>
    <g>
      <path class="cls-25" d="m102.23,32.18c.57.49,1.51.86,2.86,1,3.37.34,6.38-1.84,7.84-4.2.91-1.44-.02-3.86-.86-5.52l-.63-.08s-.15,6.83-9.21,8.79Z"/>
      <path class="cls-2" d="m115.27,12.69c-.17-.68-.41-1.3-.7-1.89h-9.52c-.99,2.24-3.39,3.74-5.87,3.86-.37.02-.73-.02-1.08-.07l-.06.66c-.56,7.01,1.12,9.06,1.12,9.06,3.2,6.3,10.48,2.57,12.57.81,2.09-1.74,3.37-5.51,3.37-5.51.17-.41.33-.83.43-1.24.64-2.11.15-4.03-.25-5.67Z"/>
      <path class="cls-6" d="m98.1,15.95s2.36,1.38,5.39,1.65c0,0,2.45.39,3.71-.49.18-.12.38-.23.6-.29.39-.12,1.01-.1,1.52.61,0,0,1.29,1.14,1.75,3.95,0,0,.01.88.64.84.44-.03.57-1.16.61-1.83.03-.51.18-1.01.48-1.41.48-.65,1.24-1.31,2.64-.37.76-2.09.61-3.95.23-5.57-1.51-6.45-9.31-9.1-14.3-4.74-.83.71-2.3,1.57-2.97,2.13-4.56,3.76-.31,5.5-.29,5.53Z"/>
    </g>
  </g>
  <polygon class="cls-19" points="117.6 38.6 120.6 50.57 109.63 50.57 109.63 54.29 104.92 54.29 104.05 50.87 117.6 38.6"/>
  <polygon class="cls-23" points="103.19 50.72 104.05 50.87 117.6 38.6 116.75 38.46 103.19 50.72"/>
  <g>
    <g>
      <g>
        <g>
          <path class="cls-7" d="m80.5,72.71l-23.38-11.55c2.56,1.28,5.96-.1,7.68-3.22,1.77-3.22,1.09-7.08-1.49-8.57l23.38,11.55c2.58,1.49,3.26,5.35,1.49,8.57-1.72,3.12-5.12,4.5-7.68,3.22Z"/>
          <path class="cls-6" d="m89.15,65.98c-.05,1.16-.35,2.37-.98,3.51-.4.76-.93,1.41-1.52,1.94-1.82,1.69-4.22,2.25-6.16,1.26l-3.74-1.84c1.92.96,4.34.4,6.14-1.26.58-.56,1.11-1.21,1.54-1.97.61-1.14.91-2.35.96-3.51.08-2.15-.78-4.09-2.45-5.05l3.74,1.84c1.67.96,2.55,2.93,2.47,5.08Z"/>
          <path class="cls-6" d="m89.15,65.98c-.04,1.16-.35,2.37-.98,3.51-.4.77-.93,1.42-1.52,1.95-1.81,1.69-4.22,2.25-6.17,1.26l-23.33-11.53c-.09-.05-.18-.08-.27-.13-2.64-1.52-3.32-5.33-1.54-8.55,1.78-3.22,5.33-4.64,7.97-3.12h.01l23.35,11.54c1.68.96,2.55,2.93,2.48,5.07Z"/>
          <path class="cls-4" d="m89.15,65.98c-.05,1.16-.35,2.37-.98,3.51-.4.76-.93,1.41-1.52,1.94-1.82,1.69-4.22,2.25-6.16,1.26l-23.36-11.54c1.92.96,4.34.4,6.14-1.26.58-.56,1.11-1.19,1.54-1.97.61-1.14.91-2.35.96-3.51.08-2.12-.78-4.09-2.45-5.05l23.36,11.54c1.67.96,2.55,2.93,2.47,5.08Z"/>
          <path class="cls-6" d="m63.31,49.36c2.58,1.49,3.26,5.35,1.49,8.57-1.77,3.22-5.34,4.58-7.92,3.1-2.64-1.52-3.31-5.33-1.54-8.55,1.77-3.22,5.33-4.64,7.97-3.11Z"/>
          <g class="cls-1">
            <path class="cls-20" d="m62.89,56.91c-1.2,2.16-3.55,3.1-5.33,2.23l-3.79-1.9-.17-.1-2.07-1-2.87-1.45c1.75-2.55,3.23-5.32,4.39-8.13l2.86,1.43,2.01.99.19.1h.04l3.71,1.86c1.8,1.04,2.28,3.71,1.03,5.97Z"/>
          </g>
        </g>
        <g>
          <path class="cls-5" d="m56.62,35.45l8.62-6.87-.03-9.1-5.55-3.23-5.06,1.8c-.09-.13-.18-.29-.27-.43l4.91-11.18-5.63-3.21-5.55-3.23-7.27,9.87-.63-.37-.91-4.82-5.55-3.23-7.92,4.58-1.63,10.86c-1.92,1.69-3.72,3.61-5.4,5.7l-7.28-1.46-5.58,9.66,4.95,5.51c-.99,2.5-1.73,5.01-2.24,7.5L0,50.69l.03,9.1,5.55,3.22,5.06-1.8c.09.13.17.29.27.42l-4.89,11.19,5.55,3.23,5.61,3.2,7.26-9.84c.18.01.38.01.56.02l.98,5.16,5.55,3.23,7.92-4.58,1.64-10.87c1.91-1.69,3.72-3.6,5.39-5.69l7.29,1.45,5.59-9.66-4.96-5.49c.98-2.5,1.73-5.03,2.23-7.53Zm-21.81,16c-3.76,4.03-9.36,8.01-14.86,7.85-.58-.94-.71-1.33-.9-1.89-.42-.99-.23-.6-.52-1.63-.4-1.58-.52-2.98-.54-4.49,0-2.53.42-5.48,1.35-8.57,1.34-4.44,3.68-9.1,6.91-13.23,2.42-3.16,5.65-6.24,9.09-8.22,1.76-1.03,3.06-1.46,4.16-1.81.35-.1.7-.21,1.04-.28.09-.02,1.37-.23,1.6-.25.14-.01,1.19-.03,1.3-.03,1.23,2.02,1.94,4.71,1.95,8.01.02,8.28-4.33,17.91-10.58,24.55Z"/>
          <g class="cls-1">
            <path class="cls-11" d="m30.7,55.16c1.43-1.08,2.81-2.33,4.11-3.71,2.47,1.44,4.94,2.87,7.41,4.31-1.29,1.38-2.67,2.63-4.11,3.71-2.47-1.44-4.94-2.87-7.41-4.31Z"/>
            <path class="cls-11" d="m30.7,55.16c2.47,1.44,4.94,2.87,7.41,4.31-.87.66-1.76,1.25-2.67,1.77l-7.41-4.31c.91-.52,1.8-1.12,2.67-1.77Z"/>
            <polygon class="cls-13" points="31.53 77.82 25.97 74.59 24.29 65.64 29.84 68.86 31.53 77.82"/>
            <polygon class="cls-13" points="56.59 22.53 51.04 19.31 59.66 16.25 65.21 19.48 56.59 22.53"/>
            <path class="cls-11" d="m45.38,26.89c-.02-5.48-1.95-9.34-5.07-11.16l7.41,4.31c3.12,1.81,5.06,5.67,5.07,11.16.02,8.28-4.34,17.91-10.58,24.55-2.47-1.44-4.94-2.87-7.41-4.31,6.24-6.64,10.6-16.27,10.58-24.55Z"/>
            <path class="cls-11" d="m15.66,58.14c3.16,1.84,7.55,1.58,12.38-1.21,2.18,1.27,4.36,2.54,6.54,3.8l.87.5c-4.83,2.79-9.21,3.05-12.38,1.21-2.22-1.29-5.19-3.01-7.41-4.31Z"/>
            <polygon class="cls-13" points="11.57 76.05 6.01 72.83 10.91 61.63 16.46 64.86 11.57 76.05"/>
            <polygon class="cls-13" points="46.34 13.09 40.79 9.86 48.06 0 53.61 3.23 46.34 13.09"/>
            <path class="cls-5" d="m16.46,64.86l-5.55-3.23c-.99-1.35-1.76-2.99-2.27-4.91l5.55,3.23c.51,1.92,1.28,3.56,2.27,4.91Z"/>
            <path class="cls-5" d="m40.95,13.62l-7.41-4.31c1.91-.53,3.73-.7,5.4-.53l7.41,4.31c-1.67-.17-3.48,0-5.4.53Z"/>
            <path class="cls-20" d="m23.07,62.45l-7.41-4.31c-3.12-1.81-5.06-5.67-5.07-11.15l7.41,4.31c.02,5.48,1.95,9.34,5.07,11.15Z"/>
            <path class="cls-20" d="m40.31,15.74l7.41,4.31c-3.16-1.84-7.55-1.58-12.39,1.22l-7.41-4.31c4.84-2.8,9.23-3.06,12.39-1.22Z"/>
            <path class="cls-20" d="m17.99,51.29l-7.41-4.31c-.03-11.04,7.74-24.49,17.34-30.03l7.41,4.31c-9.6,5.54-17.37,18.99-17.34,30.03Z"/>
            <path class="cls-14" d="m65.23,28.58l-8.61,6.88c-.5,2.5-1.25,5.02-2.23,7.52l4.96,5.49-5.59,9.66-7.3-1.45c-1.66,2.09-3.47,4.01-5.38,5.7l-1.64,10.87-7.92,4.57-1.68-8.95c-1.93.53-3.73.7-5.41.54l-7.25,9.85-5.61-3.2,4.9-11.2c-.99-1.35-1.76-2.99-2.27-4.91l-8.62,3.07-.03-9.1,8.61-6.89c.5-2.49,1.24-5,2.23-7.49l-4.95-5.51,5.57-9.67,7.29,1.46c1.67-2.09,3.47-4.01,5.4-5.7l1.63-10.85,7.92-4.57,1.69,8.93c1.91-.53,3.73-.7,5.4-.53l7.27-9.86,5.62,3.2-4.91,11.19c.99,1.35,1.76,3,2.27,4.91l8.62-3.06.03,9.1Zm-29.79,32.66c9.62-5.55,17.38-18.99,17.35-30.04-.03-11.04-7.84-15.49-17.46-9.94-9.6,5.54-17.37,18.99-17.34,30.03.03,11.04,7.85,15.49,17.45,9.94h0Z"/>
            <path class="cls-5" d="m14.16,47.03l-5.55-3.23c.5-2.49,1.24-5,2.23-7.49l5.55,3.23c-.99,2.49-1.73,5-2.23,7.49Z"/>
            <path class="cls-5" d="m24.31,25.81l-5.55-3.23c1.67-2.09,3.47-4.01,5.4-5.7l5.55,3.23c-1.92,1.69-3.72,3.62-5.4,5.7Z"/>
            <polygon class="cls-13" points="5.55 53.92 0 50.69 8.61 43.8 14.16 47.03 5.55 53.92"/>
            <polygon class="cls-10" points="5.58 63.02 .03 59.79 0 50.69 5.55 53.92 5.58 63.02"/>
            <polygon class="cls-13" points="29.7 20.11 24.15 16.88 25.78 6.03 31.33 9.26 29.7 20.11"/>
            <polygon class="cls-10" points="31.33 9.26 25.78 6.03 33.7 1.46 39.25 4.68 31.33 9.26"/>
            <polygon class="cls-13" points="16.39 39.54 10.84 36.31 5.9 30.8 11.45 34.02 16.39 39.54"/>
            <polygon class="cls-10" points="11.45 34.02 5.9 30.8 11.47 21.13 17.02 24.35 11.45 34.02"/>
            <polygon class="cls-13" points="17.02 24.35 11.47 21.13 18.76 22.58 24.31 25.81 17.02 24.35"/>
          </g>
        </g>
      </g>
      <path class="cls-20" d="m54.35,30.3c0,.15,0,.31-.01.46-.18,11.94-8.54,26.29-18.89,32.26-10.46,6.04-18.99,1.2-19.02-10.84-.03-12.03,8.44-26.68,18.9-32.73h.01c10.48-6.05,18.99-1.2,19.01,10.84Z"/>
    </g>
    <path class="cls-24" d="m54.35,30.3c0,.15,0,.31-.01.46l-18.93,10.93-.07-22.23c10.48-6.05,18.99-1.2,19.01,10.84Z"/>
    <path class="cls-18" d="m37.96,39.76c0,1.62-1.14,3.62-2.56,4.44-1.4.83-2.57.17-2.57-1.46,0-.92.34-1.92.91-2.78l1.63-11.44,1.68,9.52v.02c.55.2.92.81.92,1.7Z"/>
    <g>
      <path class="cls-4" d="m35.34,20.87c.28-.16.51-.03.51.29v2.66c0,.32-.22.72-.5.88-.28.16-.51.03-.51-.29v-2.66c0-.32.22-.72.5-.88Z"/>
      <path class="cls-4" d="m31.37,24.27l.61,2.22c.07.27-.09.69-.35.92-.29.26-.56.2-.62-.05l-.61-2.22c-.07-.27.09-.68.35-.92.28-.25.55-.2.62.06Z"/>
      <path class="cls-4" d="m26.73,28.49c.17-.1.35-.1.44.04l1.16,1.63c.14.2.06.6-.19.91-.2.25-.53.42-.7.19l-1.16-1.63c-.14-.2-.06-.61.19-.91.08-.1.17-.18.26-.23Z"/>
      <path class="cls-4" d="m23.17,33.7c.13-.08.26-.09.36-.04l1.64.94c.2.11.2.48,0,.82-.15.25-.47.55-.72.42l-1.64-.94c-.2-.11-.2-.48,0-.82.1-.17.23-.3.36-.38Z"/>
      <path class="cls-4" d="m20.45,39.38c.09-.05.17-.07.25-.07l2.01.17c.24.02.33.33.19.69-.11.29-.41.64-.69.62l-2.01-.17c-.24-.02-.33-.33-.19-.69.09-.24.26-.44.44-.55Z"/>
      <path class="cls-4" d="m18.74,45.15s.09-.04.13-.06l2.24-.6c.27-.07.43.16.36.51-.07.32-.33.69-.62.77l-2.23.6c-.27.08-.44-.15-.36-.51.06-.29.26-.58.49-.71Z"/>
      <path class="cls-4" d="m49.8,36.78s.09-.05.13-.06l2.23-.6c.27-.08.43.15.36.51-.06.29-.26.58-.49.71-.04.03-.09.04-.13.06l-2.24.6c-.27.08-.43-.15-.36-.51.06-.29.26-.58.49-.71Z"/>
      <path class="cls-4" d="m20.48,49.27c.28-.16.51-.03.51.29,0,.32-.23.72-.51.88l-2.31,1.34c-.28.16-.51.03-.51-.29,0-.32.23-.72.51-.88l2.31-1.34Z"/>
      <path class="cls-4" d="m22.94,56.72c.14.2.06.6-.19.91l-2,2.49c-.08.1-.17.17-.25.22-.18.1-.35.1-.44-.04-.14-.2-.06-.6.18-.9l2-2.49c.2-.24.53-.42.7-.19Z"/>
      <path class="cls-4" d="m21.49,53.56c.07.27-.09.69-.35.92-2.32,2.05-2.24,2.01-2.37,2.08-.59.34-.71-.57-.13-1.07l2.23-1.98c.29-.26.55-.2.62.05Z"/>
      <path class="cls-4" d="m52.15,27l-2.23,1.98c-.29.26-.56.2-.63-.05-.07-.27.09-.68.36-.92l2.23-1.98c.65-.58.92.41.26.97Z"/>
      <path class="cls-4" d="m50.72,22.19c.14.2.06.6-.18.9l-2,2.49c-.2.24-.53.42-.7.19-.14-.2-.06-.6.18-.9l2-2.49c.2-.24.53-.42.7-.19Z"/>
      <path class="cls-4" d="m43.95,18.55c.09-.05.18-.08.26-.07.24.02.33.33.19.69l-1.15,2.96c-.11.29-.41.64-.69.62-.24-.02-.33-.33-.19-.69l1.15-2.97c.09-.24.26-.44.44-.54Z"/>
      <path class="cls-4" d="m39.79,18.97s.09-.04.13-.06c.27-.07.44.15.36.51l-.59,2.91c-.06.29-.26.58-.49.71-.34.2-.58-.03-.49-.45l.59-2.91c.06-.3.27-.59.49-.72Z"/>
      <g class="cls-1">
        <path class="cls-4" d="m48.33,41.77c.09-.05.17-.08.25-.07l2.01.17c.24.02.33.33.19.69-.09.24-.26.44-.44.55-.09.05-.17.08-.25.07l-2.01-.17c-.24-.02-.33-.33-.19-.69.09-.24.26-.44.44-.55Z"/>
        <path class="cls-4" d="m52.61,30.72c.28-.16.51-.03.51.29,0,.32-.23.72-.51.88l-2.31,1.34c-.28.16-.51.03-.51-.29,0-.32.22-.71.51-.88l2.31-1.34Z"/>
        <path class="cls-4" d="m47.89,19.6c.2.11.2.49,0,.82l-1.63,2.83c-.14.25-.47.55-.72.41-.2-.12-.2-.49,0-.82l1.63-2.83c.14-.25.47-.55.72-.41Z"/>
      </g>
    </g>
  </g>
  <path class="cls-21" d="m73.3,68.42c-.67,1.34-3.28,1.43-5.81.17-2.53-1.26-4.03-3.39-3.37-4.73.68-1.34,2.69-.51,5.23.75,2.54,1.27,4.63,2.47,3.95,3.81Z"/>
  <g>
    <path class="cls-16" d="m30.82,52.47l-.36,1.24c-1.26-.12-3.07,1.02-3.06,2.18,0,1.24,2.39-.6,3.38.11.21.15.32.46.32.92,0,2.53-3.61,4.7-4.96,4.13l.4-1.26c1.17.39,3.43-.89,3.43-2.12,0-1.56-3.7,1.6-3.71-1.05,0-2.35,3.11-4.42,4.57-4.14Z"/>
    <polygon class="cls-3" points="36.76 48.5 36.76 49.62 33.38 51.57 33.38 53.43 36.39 51.7 36.39 52.79 33.39 54.52 33.39 56.49 36.9 54.47 36.91 55.58 32.24 58.27 32.22 51.13 36.76 48.5"/>
    <path class="cls-22" d="m44.09,47.39l.57-.33v.93s-.56.33-.56.33c-.07.59-.26,1.21-.53,1.8l.4.23-.57.99-.4-.23c-.37.54-.81,1.01-1.3,1.37v.65s-.81.47-.81.47v-.65c-.48.2-.93.24-1.3.13l-.4.69-.57-.33.4-.69c-.28-.27-.47-.67-.54-1.18l-.57.33v-.93s.56-.33.56-.33c.07-.59.26-1.21.53-1.8l-.4-.23.57-.99.4.23c.37-.54.81-1.01,1.3-1.37v-.65s.81-.47.81-.47v.65c.48-.2.93-.24,1.3-.13l.4-.69.57.33-.4.69c.28.27.47.67.54,1.18Zm-2.81,3.98c.91-.53,1.65-1.8,1.64-2.85,0-1.05-.74-1.47-1.65-.94-.91.53-1.65,1.8-1.64,2.85,0,1.05.74,1.47,1.65.94"/>
  </g>
</svg>