<?xml version="1.0" encoding="UTF-8"?>
<svg id="Layer_1" data-name="Layer 1" xmlns="http://www.w3.org/2000/svg" viewBox="0 0 160.03 147.45">
  <defs>
    <style>
      .cls-1 {
        fill: none;
      }

      .cls-1, .cls-2, .cls-3, .cls-4, .cls-5, .cls-6, .cls-7, .cls-8, .cls-9, .cls-10, .cls-11, .cls-12, .cls-13, .cls-14, .cls-15, .cls-16, .cls-17, .cls-18, .cls-19, .cls-20, .cls-21, .cls-22, .cls-23, .cls-24, .cls-25, .cls-26 {
        stroke-width: 0px;
      }

      .cls-3 {
        fill: #f4d4f2;
      }

      .cls-4 {
        fill: #f7cbcb;
      }

      .cls-5 {
        fill: #f9cadd;
      }

      .cls-6 {
        fill: #5eadd8;
      }

      .cls-7 {
        fill: #262222;
      }

      .cls-8 {
        fill: #7c40e5;
      }

      .cls-9 {
        fill: #191818;
      }

      .cls-10 {
        fill: #0f054e;
      }

      .cls-11 {
        fill: #3f9ec9;
      }

      .cls-12 {
        fill: #161616;
      }

      .cls-13 {
        fill: #caedf9;
      }

      .cls-14 {
        fill: #ddbadc;
      }

      .cls-15 {
        fill: #d4a21b;
      }

      .cls-16 {
        fill: #d9caf9;
      }

      .cls-17 {
        fill: #dacaf9;
      }

      .cls-18 {
        fill: #b78509;
      }

      .cls-19 {
        fill: #bad8e2;
      }

      .cls-20 {
        fill: #9ebdc6;
      }

      .cls-21 {
        fill: #7f4ee5;
      }

      .cls-22 {
        fill: #ff4f5b;
      }

      .cls-23 {
        fill: #fce6e6;
      }

      .cls-24 {
        fill: #ffba93;
      }

      .cls-25 {
        fill: #efac8b;
      }

      .cls-26 {
        fill: #011b40;
      }
    </style>
  </defs>
  <path class="cls-1" d="m24.98,42.63c0,1.21-.51,2.37-1.4,3.18-.8.73-1.84,1.14-2.92,1.14-.03,0-.06,0-.09,0l.18.9c.79.31,1.58.81,2.34,1.43,2.2-2.78,3.3-7.53,3.66-11.51-.91.13-1.52.45-1.77.6v4.26Z"/>
  <path class="cls-20" d="m20.5,96.98c0,.61,0,1.22.02,1.84l.17.28c.12.2.25.41.38.6.45-5.92.4-16.15.38-18.44-.28.08-.57.15-.86.22l-.1,15.49Z"/>
  <path class="cls-8" d="m106.28,10.42c-3.07-3.26-6.64-5.83-10.62-7.62-4.12-1.86-8.51-2.8-13.02-2.8s-8.9.94-13.02,2.8c-1.22.55-2.39,1.17-3.53,1.86-2.58,1.57-4.96,3.5-7.08,5.76-3.4,3.62-5.97,7.88-7.62,12.52-.23.64-.44,1.28-.63,1.94.21-.02.42-.04.64-.05.17,0,.34-.01.52-.01h1.07c.41-1.29.89-2.54,1.44-3.75h5.94c-.37,1.22-.7,2.48-.97,3.75h2.15c.28-1.25.61-2.47.99-3.65.01-.04.02-.07.03-.11h19.03v3.75h2.1v-3.75h19.03c.39,1.21.73,2.47,1.02,3.75h2.15c-.27-1.28-.6-2.53-.97-3.75h5.94c.55,1.21,1.03,2.47,1.44,3.75h.95c.43,0,.86.03,1.28.07-.53-1.8-1.19-3.55-1.98-5.23-1.59-3.37-3.69-6.49-6.27-9.24Zm3.55,8.54h-5.6c-.6-1.67-1.3-3.28-2.09-4.81-.65-1.26-1.36-2.47-2.13-3.61-.04-.06-.08-.11-.12-.17.93-.07,1.96-.23,2.75-.56,2.88,2.56,5.32,5.65,7.19,9.14Zm-25.85-10.65h-.28V2.14c4.41.31,8.5,2.55,11.88,6.18h-1.47s-10.13,0-10.13,0Zm-13.59,0h-.66c.18-.2.37-.39.56-.58.98-.99,2.02-1.86,3.11-2.61,2.52-1.73,5.29-2.78,8.2-2.99v6.18h-10.39s-.82,0-.82,0Zm30.24-.13c-.69.1-1.51.15-2.28.15-1.09-1.35-2.26-2.54-3.5-3.58,2.05.93,3.98,2.08,5.78,3.43Zm-30.29-3.39s.07-.03.1-.05c-.02.02-.04.03-.06.05-1.21,1.03-2.36,2.2-3.43,3.52-.74,0-1.49-.12-2.14-.25,1.73-1.28,3.58-2.38,5.53-3.28Zm-10.93,14.17h-3.94c1.9-3.53,4.38-6.67,7.31-9.24.6.18,1.58.44,2.69.59-.06.08-.11.16-.17.24-.44.65-.86,1.32-1.26,2.02-.3.52-.59,1.05-.87,1.59-.25.48-.49.96-.72,1.46-.5,1.08-.96,2.2-1.38,3.35h-1.66Zm9.08,0h-5.17c1.23-3.23,2.81-6.11,4.66-8.55h2.78s10.85,0,10.85,0v8.55h-13.11Zm15.22,0v-8.55h4.03s9.61,0,9.61,0c1.85,2.44,3.42,5.32,4.65,8.54h-18.29Z"/>
  <path class="cls-21" d="m111.72,48.22c-.12.36-.26.71-.39,1.07h-6.19c.09-.35.18-.71.26-1.07h-2.16c-.09.36-.18.71-.28,1.07h-19.57v-1.07h-2.1v1.07h-19.57c-.1-.35-.19-.71-.28-1.07h-2.16c.08.36.17.71.26,1.07h-6.19c-.14-.35-.27-.71-.39-1.07h-1.35c-.3,0-.6-.01-.89-.04.13.39.26.78.39,1.16.01.02.03.03.04.05.07.11.11.24.11.36,1.65,4.45,4.16,8.53,7.43,12.02,3.07,3.26,6.64,5.83,10.62,7.62,4.12,1.86,8.51,2.8,13.02,2.8s8.9-.94,13.02-2.8c3.98-1.79,7.55-4.36,10.62-7.62,3.66-3.9,6.36-8.54,7.98-13.61-.33.03-.67.05-1.02.05h-1.23Zm-9.39,3.17c-1.2,3.66-2.83,6.94-4.8,9.7,0,0-.01,0-.02,0h-14.13s0-9.7,0-9.7h18.94Zm-32.78,11.81h11.74s0,3.28,0,3.28v3.59c-4.68-.33-8.99-2.84-12.49-6.86h.75Zm13.84,6.86v-6.87h11.75s.74,0,.74,0c-3.5,4.03-7.81,6.55-12.5,6.87Zm-2.1-18.68v9.71h-14.11s-.02,0-.03,0c-1.97-2.76-3.6-6.05-4.8-9.71h18.94Zm-27.06,0h5.9c.73,2.35,1.64,4.58,2.71,6.66.58,1.12,1.2,2.19,1.88,3.22-1.43.23-2.57.62-2.83.71-3.18-2.93-5.79-6.53-7.66-10.59Zm9.57,12.21c.64-.16,1.46-.33,2.31-.39,1.24,1.62,2.59,3.04,4.02,4.24-2.26-1.02-4.38-2.32-6.33-3.86Zm30.74,3.86c1.44-1.21,2.79-2.64,4.04-4.27.9.03,1.83.12,2.46.28-2,1.59-4.18,2.94-6.5,3.99Zm8.27-5.52c-.72-.44-1.79-.66-2.81-.77.65-1,1.26-2.04,1.82-3.12,1.08-2.08,1.98-4.31,2.71-6.66h5.9c-1.86,4.04-4.47,7.63-7.62,10.55Z"/>
  <path class="cls-11" d="m111.33,94.65s.07-.06.12-.06c0,0,0,0,.01,0,.04,0,.08.02.12.04l3.31,2.93.21.19.21.19,4.45,3.94.24.21.24.21.24.21.08-.1.27-.31.27-.31,2.43-2.76c-.12-.17-.18-.37-.17-.57.01-.23.11-.55.54-.78.31-.17.69-.24,1.07-.27l.84-.95c-.14-.13-.3-.27-.47-.42-.05-.05-.11-.09-.17-.13l-3.99,4.52-.03.03s-.07.06-.12.06c0,0,0,0-.01,0-.04,0-.07-.01-.1-.03,0,0,0,0-.01-.01l-.23-.21-.18-.16-.24-.21-.24-.21-4.14-3.66-.21-.19-.21-.19-3.44-3.04-4.49,5.5s-.1.07-.16.06-.11-.05-.14-.11l-8.4-20.58s0,0,0,0l-.7-1.7-.21-.51-.38,1.79,9.39,23,4.41-5.41Z"/>
  <polygon class="cls-11" points="118.37 86.01 118.57 86.16 118.6 86.19 119.78 84.83 120.33 84.19 120.77 83.69 121.99 82.28 122.35 80.59 121.46 81.62 120.96 82.19 120.96 82.19 117.94 85.68 118.16 85.85 118.37 86.01"/>
  <polygon class="cls-19" points="10.38 122.11 10.56 122.38 10.56 116.17 8.11 118.38 10.38 122.11"/>
  <path class="cls-19" d="m24.45,112.18l5.64-4.52c.4-.32.87-.69,1.37-1.01,1.09-.71,1.71-1.88,1.84-3.49.01-.13.02-.27.02-.41,0-.15,0-.29,0-.44-.03-1.17-.33-2.37-.87-3.48l-8.88-18.29c-.7.29-1.41.53-2.12.73.02,2.28.07,12.52-.38,18.44.36.56.74,1.08,1.11,1.58,1.91,2.58-.21,4.57-.23,4.59l-1.44,1.3c-.07,1.97-.17,3.72-.26,4.99-.08,1.27-.15,2.06-.15,2.08,0,0,0,0,0,.01l-.19,1.54,4.54-3.64Z"/>
  <path class="cls-19" d="m11.14,115.25v18.23h5.98l2.03-16.31.05-.42.05-.42.27-2.13c0-.08.09-1.03.18-2.49.07-1.09.15-2.46.21-3.98,0-.13.01-.27.02-.41,0-.13,0-.27.01-.41.08-2.42.12-5.14.02-7.66,0-.09,0-.17,0-.26,0-.2-.01-.4-.02-.6,0,0,0-.01,0-.02,0-.19,0-.38,0-.57,0-.28,0-.56,0-.84l.1-15.2v-.15c-2.21.47-4.39.61-6.15.61-1.54,0-2.76-.1-3.43-.17-.09-.01-.18-.02-.25-.03v.2s.04.62.04.62l.84,15.67c.01.21.02.41.03.62.03.65.04,1.31.04,1.96v14.15Z"/>
  <path class="cls-25" d="m19.96,46.89c-2.41-.31-3.72-1.66-4.36-2.64l-.02.07-.06,1.37c.67.67,2.45,2.19,4.58,1.89l-.14-.69Z"/>
  <path class="cls-4" d="m14.26,49s.72,1.02,2.37,1.56c.15.05.3.09.47.13.14.03.28.06.44.09.1.02.21.03.32.05.57.07,1.11.02,1.59-.11.17-.04.34-.1.5-.16.2-.08.39-.16.57-.26.71-.37,1.24-.83,1.51-1.09-.4-.28-.81-.52-1.22-.7-.03-.02-.07-.03-.1-.05-.05.09-.1.19-.18.3-.08.11-.16.23-.27.35-.27.3-.65.59-1.16.73-.78.22-1.67.04-2.66-.51-.23-.13-.47-.28-.71-.45-.22-.15-.44-.32-.66-.51-.02,0-.05,0-.08,0-.94.05-5.25.5-8.27,4.17-3.16,3.85-5.08,8.73-5.38,9.54.09.15.32.47.85.83.72.32,1.46.58,2.22.76-.21-10.84,9.87-14.69,9.87-14.69Z"/>
  <path class="cls-4" d="m19.33,74.98c-.02-.15-.02-.3-.02-.44l-9.48-1.64.06,1.55,8.85,1.51s-.25,2.92,4.82,3.06l.07-1.18c-.28.04-.55.06-.81.07-.04,0-.07,0-.11,0-1.72,0-3.2-1.26-3.38-2.92Z"/>
  <path class="cls-15" d="m10.23,122.99s.01-.07.02-.11l-1.03-1.55-1.71-2.58-.5-.07c-.57-.08-1.14.05-1.62.36l-2.32,1.54,6.49,9.79c-.22-2.31.42-6.06.67-7.38Z"/>
  <path class="cls-15" d="m12.19,138.68h10.51c.53,0,1.06-.2,1.42-.59.34-.37.59-.95.32-1.8-.16-.12-.35-.22-.55-.28l-6.55-1.94h-5.12c-.38.47-1.07,1.44-1.07,2.29v1.28c0,.58.47,1.04,1.04,1.04Z"/>
  <path class="cls-18" d="m10.56,131.4v-8.05l-.31-.47s-.01.07-.02.11c-.25,1.32-.89,5.07-.67,7.38l.31.47c.17.26.41.45.69.57Z"/>
  <path class="cls-18" d="m24.67,138.64c.31-.35.45-.8.39-1.25v-.05c-.07-.42-.29-.8-.63-1.05.26.86.02,1.43-.32,1.8-.36.39-.89.59-1.42.59h-10.51c-.58,0-1.04-.47-1.04-1.04v-1.28c0-.84.69-1.81,1.07-2.29h-1.23l-.36.41c-.41.47-.64,1.07-.64,1.69v3.04h13.43c.48,0,.94-.21,1.26-.57Z"/>
  <path class="cls-3" d="m146.81,63.55c5.63-6.47,11.31-21.52,3.77-35.37-5.47-10.05-20.25-10.19-30.74-9.03,1.61,3.54,2.73,7.35,3.27,11.35,1.07,1.71,1.69,3.72,1.69,5.88,0,2.28-.69,4.4-1.88,6.17-3.17,19.17-19.82,33.79-39.89,33.79-15.93,0-29.71-9.22-36.3-22.61-.3.22-.67.36-1.07.36-.09,0-.18,0-.26-.02-.13-.02-.25.02-.33.11l-11.29,12.71c-.63.7-1.49,1.13-2.43,1.2-.08,0-.17,0-.25,0-.88,0-1.73-.32-2.39-.91l-3.69-3.28-.52,9.04c.87.48.98.73,1.04.87.14.32.26.65.34.99.17.66.05,1.37-.33,1.94-.31.48-.79.83-1.33,1l-.14,2.44s0,.04,0,.05l8.91,18.37c.54,1.12.86,2.32.92,3.51l5.2-1.97-1.54-3.61,13.51,1.31,1.01.85-8.75,10.51-1.01-.85-1.05-2.7-5.4,2.49-1.01-.85-1.15-3.02c-.3,1.27-.96,2.25-1.94,2.88-.43.28-.84.59-1.32.98l-5.07,4.06h85.3l4.09-14.25-3.3-2.92-4.49,5.5s-.1.07-.16.06c-.06,0-.11-.05-.14-.11l-9.52-23.32s-.02-.07,0-.1l.51-2.4s0,0,0-.01c0-.01,0-.02.01-.03,0,0,0-.01.01-.02,0,0,0,0,0-.01,0,0,0,0,.01-.01,0,0,0,0,.02-.01,0,0,.02-.01.03-.02,0,0,.01,0,.02,0,.01,0,.02,0,.04,0,0,0,0,0,.01,0,0,0,0,0,0,0,.02,0,.03,0,.05,0l24.82,5.28s.03,0,.04.01c0,0,0,0,0,0,0,0,0,0,0,0,.02,0,.03.02.04.03,0,0,0,0,.01.01,0,0,.01.02.02.03,0,0,0,.01,0,.02,0,0,0,0,0,.01,0,0,0,.02,0,.02,0,0,0,.01,0,.02,0,.02,0,.04,0,.05,0,0,0,0,0,0l-.51,2.4s-.02.06-.04.08l-.79.91c.74-.29,1.47-.5,2.03-.65,0,0,0,0,0,0l.22-3.3c-.27-.42-.44-.85-.54-1.16-.49-1.56-.1-6.01-.02-6.78-.29-.36-1.18-1.71-.19-3.62,1.05-2.01,3.37-1.66,3.87-1.55.66-.3,4.91-2.03,7.1,2.14.16.23,1.62,2.37,1.79,6.55.02.39.03.78.04,1.17.13,3.73.24,6.95,2.54,9.09.42.24.75.44.91.54,0,0,0,0,0,0,0,0,0,0,0,0,0,0,0,0,0,0,.02.01.03.02.05.04,0,0,0,0,0,0,0,0,0,0,0,0,.07.08,1.6,1.99,1.95,5.64.16,1.65.32,4.16.44,6.36,1.06-1.28,2.26-2.38,3.57-3.26,2.28-1.53,4.45-2.15,6.28-1.78,1.42.28,2.46,1.14,3.1,2.55,1.03,2.27.7,5.34.17,6.26-.5.88-3.12,4.75-4.63,6.98-.46.67-.8,1.24-1.1,1.78-.24.45-.71,1.13-1.46,1.53l.04.02c.06.04.11.1.13.17,0,.02,0,.04,0,.06h5.07c10.01-8.32,7.3-24.42,4.99-29.21-2.31-4.79-16.69-12.95-11.05-19.42Zm-61.98,42.84l-2.22-.78-1.31,4.64-1.06.18-3.96-1.42,1.78-4.96-3.03-.96,7.93-7.63,1.06-.18,1.86,10.93-1.06.18Z"/>
  <path class="cls-3" d="m136.45,96.14c.11.05.22.11.32.19l-.1-2.9-.22,2.71Z"/>
  <path class="cls-3" d="m8.09,64.85c-.06,0-.12,0-.18,0l-.32.42-.63,1.63c.31.09.83.24,1.51.44l-.37-2.49Z"/>
  <path class="cls-3" d="m21.57,105.45c.07-.06,1.74-1.66.15-3.81-.38-.51-.77-1.06-1.15-1.64.06,2.12.04,4.33-.03,6.37l1.02-.92Z"/>
  <path class="cls-3" d="m9.59,81.72s0,0,0,0c0,0,0,0,0,0,0-.02,0-.04,0-.06,0,0,0,0,0-.01,0-.02,0-.03.02-.05l-.37-8.79-3.62-.63c-1.35,9.7,1.39,18.7,4.83,25.7l-.87-16.15Z"/>
  <path class="cls-3" d="m120.35,109.18c.42-1.22.92-1.79,1.14-1.99v-1.35c-.23-.07-.44-.17-.62-.29l-1.68,6.63h.68l.03-.61c.04-.84.19-1.65.45-2.39Z"/>
  <path class="cls-3" d="m30.89,59.94s.03.09.03.13l.97,1.11c.09.1.22.16.35.16.12,0,.23-.04.32-.12l9.36-8.62c.21-.2.39-.43.52-.69l.88-1.72c.3-.59.82-1.03,1.43-1.26-.7-2.06-1.24-4.19-1.6-6.39-1.18-1.77-1.88-3.89-1.88-6.17,0-2.16.62-4.18,1.69-5.88.49-3.64,1.46-7.13,2.85-10.4-.54.23-1.13.35-1.74.35-2.48,0-4.5-2.01-4.5-4.5s2.01-4.5,4.5-4.5c2.14,0,3.93,1.49,4.38,3.5,1.96-3.22,4.36-6.15,7.11-8.7-3.26.61-5.89,1.34-7.52,1.85-1.17.36-2.36.66-3.56.93-14.26,3.19-17.51,16.38-17.69,22.43,1.65.27,2.78,1.54,2.8,1.56.08.09.1.23.04.34-.06.11-.18.17-.3.15-.59-.1-1.14.38-1.49.77,2.26.23,2.96,3.62,2.99,3.78.02.11-.02.22-.1.29-.09.07-.2.08-.3.04-1.48-.65-2.73-.71-3.66-.57-.36,3.99-1.46,8.74-3.66,11.51,4.1,3.35,7.62,10.31,7.8,10.66Z"/>
  <path class="cls-14" d="m37.57,96.52l1.54,3.61-5.2,1.97c.01.23.01.45,0,.67-.02.53-.08,1.03-.19,1.48l1.15,3.02,1.01.85,5.4-2.49,1.05,2.7,1.01.85,8.75-10.51-1.01-.85-13.51-1.31Z"/>
  <polygon class="cls-14" points="82.97 95.46 75.04 103.09 78.07 104.05 76.29 109 80.25 110.42 81.3 110.24 82.61 105.61 84.83 106.38 85.89 106.21 84.03 95.28 82.97 95.46"/>
  <path class="cls-14" d="m44.06,20.44c.62,0,1.21-.13,1.74-.35.76-1.79,1.64-3.51,2.64-5.15-.46-2-2.25-3.5-4.38-3.5-2.48,0-4.5,2.01-4.5,4.5s2.01,4.5,4.5,4.5Z"/>
  <path class="cls-10" d="m21.77,37.66c.53.53,2.15.39,2.8.28.22-.14,1.01-.6,2.22-.76.89-.11,2.01-.06,3.3.41-.31-1-1.15-3.01-2.83-2.75-.11.02-.23-.03-.29-.13-.06-.1-.06-.22,0-.32.04-.06.73-1.15,1.71-1.45-.41-.34-1.08-.78-1.91-.93-.74-.13-1.6-.04-2.52.57-.85.57-1.95.55-2.72-.03-.05-.04-.11-.08-.16-.13-.33-.27-1.07-.52-1.92-.63-1.91-.26-3.74.52-4.9,2.08-1.16,1.57-1.37,3.56-.56,5.32l.04.1s.03.08.03.12v.57c0,.49-.4.89-.89.89h-.55l.46.59c.05.07.09.15.11.23.04.18,0,.37-.11.51-.11.14-.29.23-.47.23h-.09c.08.1.19.2.35.3.5.3,1.25.34,2.18.13v-4.42s0-.09.03-.12c.46-.99,1.28-1.62,2.37-1.81,1.76-.31,3.79.59,4.34,1.14Z"/>
  <path class="cls-10" d="m135.25,75.03c-.17-4.17-1.69-6.26-1.7-6.28,0-.01-.02-.02-.02-.04-.89-1.71-2.25-2.55-4.04-2.5-1.35.04-2.45.6-2.46.6-.06.03-.12.04-.18.02-.1-.03-2.39-.61-3.37,1.27-.7,1.34-.34,2.33-.05,2.8,1.6-3.17,3.65-2.53,3.74-2.5.08.03.14.09.17.17,1.19,4.01,4.54,5.53,5.22,5.8.2-.13.58-.32.99-.17.43.16.72.65.85,1.45.13.76,0,1.3-.35,1.62-.31.27-.71.3-.99.28-.03.13-.1.26-.2.41v4.46s2.45,1.3,2.45,1.3c.06.03.1.08.12.15.34.04.97.32,1.63.66-1.53-2.2-1.63-5.09-1.74-8.35-.01-.38-.03-.77-.04-1.17Z"/>
  <path class="cls-10" d="m124.54,82.49s.04,0,.06,0c0,0,.01,0,.02,0,.02,0,.03,0,.05.01,0,0,.01,0,.02,0,.01,0,.03.01.04.02,0,0,.01,0,.02.01,0,0,0,0,.01,0l.22.2.73-.2v-1.64c-.15-.04-.29-.09-.43-.14-.42-.18-.77-.44-1.05-.73l-.17,2.56c.27-.06.44-.1.48-.11,0,0,0,0,0,0,0,0,0,0,0,0Z"/>
  <path class="cls-26" d="m122.75,121.99c.75,1.29,1.02,2.81.76,4.28-.19,1.1-.04,2.23.43,3.24l3.8,8.16.3-.07.69-.16,1.43-.33,3.16-.74.25-.06.25-.06.9-.21-.82-17.16c0-.07.02-.14.07-.19.05-.05.12-.08.19-.08h3.29l.22-.25-.94-.65c-.06-.04-.1-.1-.11-.17-.01-.07,0-.14.05-.2l3.81-5.17,2.1-2.86c.08-.11.22-.14.34-.07l4.16,2.36c.82-.3,1.32-1.01,1.56-1.46.3-.56.66-1.14,1.13-1.83,1.51-2.22,4.12-6.08,4.61-6.94.42-.73.77-3.67-.19-5.79-.57-1.25-1.49-2.01-2.73-2.26-2.13-.43-4.38.69-5.89,1.7-1.34.9-2.57,2.04-3.64,3.38l-.17.22c.08,1.48.14,2.75.17,3.41.01.3.04.6.07.9.09.81.07,3.5-3.74,4.25-.28.06-.58.08-.9.08-1.37,0-2.69-.57-3.6-1.56-.18-.2-.38-.42-.57-.67h0s-8.35.63-8.35.63l-2.83.21v1.43c0,.08-.04.16-.11.21,0,0-.58.44-1.06,1.83-.24.69-.38,1.45-.42,2.25l-.03.58-.11,2.05c-.11,2.1.39,4.18,1.45,6l1.02,1.76Z"/>
  <path class="cls-17" d="m102.63,9.82c-.8.33-1.83.49-2.75.56.04.06.08.11.12.17.77,1.14,1.48,2.35,2.13,3.61.79,1.53,1.49,3.13,2.09,4.81h5.6c-1.87-3.49-4.32-6.59-7.19-9.14Z"/>
  <path class="cls-17" d="m98.35,8.33c.77,0,1.59-.05,2.28-.15-1.8-1.35-3.73-2.51-5.78-3.43,1.24,1.04,2.41,2.24,3.5,3.58Z"/>
  <path class="cls-17" d="m83.69,5.73v2.59h.28s10.13,0,10.13,0h1.47c-3.38-3.63-7.46-5.87-11.88-6.18v3.59Z"/>
  <path class="cls-13" d="m95.3,66.71c2.32-1.05,4.5-2.4,6.5-3.99-.63-.15-1.56-.25-2.46-.28-1.25,1.63-2.6,3.05-4.04,4.27Z"/>
  <path class="cls-17" d="m51.87,48.6c-.14-.39-.27-.77-.39-1.16-3.47-.28-6.49-2.16-8.33-4.89.36,2.19.9,4.33,1.6,6.39.22-.08.45-.13.69-.15l5.84-.44c.23-.02.45.08.6.26Z"/>
  <path class="cls-5" d="m110.74,50.18h-5.9c-.73,2.35-1.64,4.58-2.71,6.66-.56,1.08-1.17,2.13-1.82,3.12,1.01.11,2.08.33,2.81.77,3.16-2.92,5.76-6.51,7.62-10.55Z"/>
  <path class="cls-13" d="m112.47,47.47h-6.32c-.08.36-.17.71-.26,1.07h6.19c.14-.35.27-.71.39-1.07Z"/>
  <path class="cls-16" d="m66.86,62.46c-.84.06-1.67.22-2.31.39,1.95,1.53,4.07,2.83,6.33,3.86-1.44-1.21-2.78-2.63-4.02-4.24Z"/>
  <path class="cls-17" d="m110.86,21.06h-5.94c.37,1.22.7,2.48.97,3.75h6.41c-.41-1.29-.89-2.54-1.44-3.75Z"/>
  <path class="cls-5" d="m62.19,60.77c.26-.09,1.4-.48,2.83-.71-.67-1.02-1.3-2.1-1.88-3.22-1.08-2.08-1.98-4.31-2.71-6.66h-5.9c1.87,4.06,4.49,7.66,7.66,10.59Z"/>
  <path class="cls-17" d="m55.91,19.42h5.6c.41-1.15.87-2.27,1.38-3.35.23-.49.47-.98.72-1.46.28-.54.57-1.07.87-1.59.4-.69.82-1.36,1.26-2.02.06-.08.11-.16.17-.24-1.11-.15-2.09-.41-2.69-.59-2.93,2.58-5.41,5.71-7.31,9.24Z"/>
  <path class="cls-13" d="m65.25,8.53c.65.13,1.4.24,2.14.25,1.07-1.32,2.22-2.5,3.43-3.52.02-.02.04-.03.06-.05-.03.01-.07.03-.1.05-1.95.9-3.81,2-5.53,3.28Z"/>
  <path class="cls-17" d="m53.44,25.27h6.41c.27-1.28.6-2.53.97-3.75h-5.94c-.55,1.21-1.03,2.47-1.44,3.75Z"/>
  <path class="cls-5" d="m81.59,68.86v-6.87h-11.74s-.75,0-.75,0c3.49,4.03,7.8,6.54,12.49,6.86Z"/>
  <path class="cls-13" d="m82.04,47.47h-19.85c.09.36.18.71.28,1.07h19.57v-1.07Z"/>
  <path class="cls-5" d="m82.94,60.64h14.13s.01,0,.02,0c1.97-2.76,3.6-6.04,4.8-9.7h-18.94v9.71Z"/>
  <path class="cls-17" d="m81.59,10.42h-10.85s-2.78,0-2.78,0c-1.85,2.44-3.43,5.33-4.66,8.55h18.29v-8.55Z"/>
  <path class="cls-13" d="m84.14,48.54h19.57c.1-.35.19-.71.28-1.07h-19.85v1.07Z"/>
  <path class="cls-17" d="m81.59,21.06h-19.03s-.02.07-.03.11c-.38,1.18-.71,2.4-.99,3.65h20.05v-3.75Z"/>
  <path class="cls-17" d="m83.69,24.82h20.05c-.29-1.29-.63-2.54-1.02-3.75h-19.03v3.75Z"/>
  <path class="cls-17" d="m83.69,18.96h18.29c-1.23-3.22-2.8-6.11-4.65-8.54h-9.61s-4.03,0-4.03,0v8.55Z"/>
  <path class="cls-5" d="m80.83,50.93h-18.94c1.2,3.66,2.84,6.95,4.8,9.71,0,0,.02,0,.03,0h14.11v-9.71Z"/>
  <path class="cls-17" d="m82.04,7.71V2.59c-2.91.2-5.68,1.25-8.2,2.99-1.08.75-2.12,1.62-3.11,2.61-.19.19-.37.38-.56.58h.66s.82,0,.82,0h10.39s0-1.05,0-1.05Z"/>
  <path class="cls-17" d="m60.03,47.47h-6.32c.12.36.26.71.39,1.07h6.19c-.09-.35-.18-.71-.26-1.07Z"/>
  <path class="cls-5" d="m83.69,65.27v3.59c4.69-.33,9-2.84,12.5-6.87h-.74s-11.75,0-11.75,0v3.28Z"/>
  <path class="cls-13" d="m126.74,97.38s.02-.02.02-.02c-.1-.11-.34-.33-.7-.66l-.62.7c.33,0,.64.04.88.08.16.02.31-.01.42-.1Z"/>
  <path class="cls-13" d="m124.45,99.43c-.23.03-.46-.03-.65-.15l-2.71,3.07-.11,2.64c.21.17.47.31.79.39l11.05-.83c-.67-.96-1.29-2.17-1.5-3.58-.27.05-.56.09-.89.09-.73,0-1.58-.17-2.53-.7-1.75-.97-2.91-1-3.45-.93Z"/>
  <path class="cls-13" d="m121.84,88.67l5.65,4.33s0,0,.01.01c0,0,0,0,0,0,.01.01.02.03.03.04,0,0,0,0,0,0,0,.01.01.03.01.04,0,0,0,0,0,0,0,0,0,0,0,0,0,.02,0,.03,0,.05,0,0,0,0,0,0l-.13.61c.68.55,1.62,1.41,2.73,2.69.07.08.18.11.28.07l.52-.19s0-.05,0-.07c.02-.07.06-.13.13-.16.08-.04,2.01-1.04,3.78.1.21-.1.62-.26,1.09-.21l.5-6.2c0-.07,0-.36.09-.76.03-.17.13-.61.37-1.12.31-.66.83-1.36,1.69-1.9-.15-.09-.32-.19-.48-.28-.15-.09-.3-.17-.45-.26-.16-.09-.31-.17-.47-.26-.83-.45-1.59-.82-1.85-.83l-.15.02-.33.04-.33.04-5.68.73-.5.06-.43.06-.64.08c-.07,0-.15-.01-.21-.06l-1.39-1.26-.84-.76h0s-.18-.17-.18-.17l-.03.05-.1.2-.02.03-.2.39-.12.24-.12.24-2.23,4.35Z"/>
  <path class="cls-13" d="m110.19,115.78l5.4,1.47c.22.01,1.83.06,2.11-1.34,0,0,0,0,0-.01l.94-3.71,1.78-7,.03-.1v-.25s.03-.41.03-.41l.06-1.5s-.02,0-.04,0c0,0,0,0-.01,0-.04,0-.08-.02-.12-.04l-.18-.16-.24-.21-.24-.21-4.52-3.99-3.98,13.87-1.03,3.6Z"/>
  <path class="cls-13" d="m118.88,86.4l2.54,1.95,2.25-4.38.12-.24.22-.44.05-.1.04-.07s-.08.02-.12.03c-.21.05-.47.12-.76.2-.75.22-1.68.53-2.51.93l-1.83,2.11Z"/>
  <path class="cls-13" d="m137.2,88.58c-.08.22-.12.4-.14.51,0,.04-.01.06-.01.08l.26,7.86c0,.12-.07.22-.18.26-.11.03-.23-.01-.29-.11-.13-.2-.27-.36-.43-.46-.08-.05-.16-.1-.25-.13-.04-.01-.08-.03-.12-.04-.04-.01-.09-.02-.13-.02-.48-.05-.92.22-.92.22-.09.06-.2.05-.29,0-1.19-.85-2.55-.48-3.11-.27.2.33.35.65.46.96.13.34.21.67.25.97.03.21.04.41.04.6,0,.45-.08.84-.18,1.16-.04.13-.08.24-.13.34-.06.14-.12.26-.17.34-.01.02-.02.04-.03.06.22,1.45.9,2.68,1.6,3.62.06.08.13.17.19.24.07.08.13.17.2.24h0c.11.13.22.25.32.37.82.89,1.99,1.4,3.22,1.4.29,0,.56-.02.8-.07,3.29-.65,3.42-2.79,3.33-3.69-.03-.3-.06-.62-.07-.93-.03-.57-.08-1.6-.14-2.82,0-.13-.01-.26-.02-.39,0-.13-.01-.26-.02-.39-.13-2.32-.3-5.12-.47-6.91-.28-2.9-1.35-4.67-1.71-5.2,0,0,0,0,0,0,0,0,0,0,0,0-.03.02-.06.04-.1.06-.02.01-.04.02-.06.04-1,.63-1.47,1.54-1.68,2.13Z"/>
  <path class="cls-22" d="m141.32,143.59s.05-.07.04-.12c0-.04-.05-.18-.4-.36-.64-.34-3.69-.43-5.59-.42-.12,0-.22-.07-.25-.18l-1.66-5.64-4.79,1.11,2.62,8.88,10.03-3.27Z"/>
  <path class="cls-22" d="m138.23,118.12l.21.15,7.48,5.18s.09,0,.12-.04c.03-.03.11-.14.05-.54-.12-.71-1.89-3.2-3.05-4.7-.07-.09-.07-.22,0-.31l4.13-5.61-.13-.07h-.01s-.34-.2-.34-.2l-2.28-1.29-1.53-.87-1.74,2.36-3.87,5.26.77.53.21.15Z"/>
  <path class="cls-24" d="m31.31,67.48c.79-.06,1.51-.41,2.03-1l11.29-12.71c.21-.24.54-.35.86-.3.05,0,.1.01.16.01.3,0,.59-.12.81-.31.28-.24.47-.61.48-1.02.01-.43-.08-.82-.15-1.07-.06-.2-.03-.42.09-.59.12-.18.31-.29.53-.3.82-.06,2.29-.16,2.99-.16.45,0,.83-.6,1.02-.95.03-.05,0-.1,0-.12-.01-.02-.04-.05-.1-.05l-5.84.44c-.19.01-.37.05-.54.12-.47.17-.87.52-1.1.97l-.88,1.72c-.16.32-.38.61-.65.85l-9.36,8.62c-.19.18-.45.28-.71.28-.3,0-.59-.13-.79-.36l-.76-.87c-1.01,1.91-4.02,2.53-5.31,2.72l3.72,3.31c.6.54,1.41.81,2.21.75Z"/>
  <path class="cls-24" d="m18.94,49.29c.73-.2,1.12-.82,1.27-1.12v-.04s-.11-.54-.11-.54c-2.13.3-3.91-1.23-4.58-1.89l-.09,2.22c1.39,1.15,2.6,1.62,3.52,1.37Z"/>
  <path class="cls-24" d="m15.58,44.22v.1s.02-.07.02-.07c0,0-.01-.02-.02-.03Z"/>
  <path class="cls-24" d="m9.2,72.19l.28.05.25.04h.08s9.86,1.72,9.86,1.72c.15.03.26.17.24.32-.02.19-.02.39,0,.58.15,1.39,1.42,2.44,2.89,2.4.27,0,.57-.04.86-.08.05,0,.09-.01.14-.02.03,0,.05-.01.08-.02.13-.03.26-.07.38-.12.33-.14.6-.38.81-.68.29-.44.38-.97.25-1.48-.08-.3-.18-.6-.31-.89-.04-.09-.17-.23-.54-.46-.1-.06-.22-.13-.36-.2-.07-.04-.14-.07-.21-.11-1.18-.6-3.56-1.58-8.36-3.13-2.33-.76-4.65-1.46-6.35-1.96-.12-.03-.23-.07-.34-.1-.1-.03-.19-.06-.28-.08-.98-.29-1.68-.49-1.95-.57-.08-.02-.12-.03-.12-.04-.08-.02-.15-.08-.18-.15-.04-.07-.04-.16-.01-.24l.76-1.97s.02-.05.04-.07l.09-.12.09-.12-1.22-.12c-1.45-.15-2.86-.53-4.19-1.14,0,0-.02,0-.03-.01l-.26-.12c-.2.68-.67,2.39-.96,4.6-.34,2.58,1.99,3.14,2.14,3.17l2.94.51,3.49.61Z"/>
  <path class="cls-24" d="m15.7,43.24c.03.07.07.16.12.26,0,.02.02.04.03.06.44.83,1.57,2.37,4.03,2.74.1.01.2.03.3.04.02,0,.03,0,.05,0,.04,0,.07,0,.11.01.04,0,.09,0,.13,0,.01,0,.03,0,.04,0,.99.04,1.93-.3,2.67-.98.77-.71,1.21-1.71,1.21-2.75v-4.08c-.13.02-.28.03-.45.05-.21.02-.44.03-.68.03-.7,0-1.47-.13-1.9-.55-.42-.42-2.23-1.26-3.82-.98-.88.16-1.52.63-1.91,1.42v4.54s.02.07.04.12c0,.02.02.04.03.07Z"/>
  <path class="cls-24" d="m132.46,82.81c-.08-.04-.14-.13-.14-.23v-4.08c-.58.49-1.49,1.05-2.72,1.68-1.11.56-2.11.85-2.99.85-.14,0-.27,0-.4-.02v1.74c0,.12-.08.22-.19.25l-.6.17.56.51.84.76.5.46.26-.03.43-.06,6.59-.84-2.16-1.15Z"/>
  <path class="cls-24" d="m124.44,93.89c.07.02.13.03.2.05.06,0,.13.02.19.03.08.02.16.04.24.06.05.01.11.02.16.03.18.03.36.07.53.1.04,0,.08.02.12.05l.2.15h0s.14.11.14.11l.14.11h0s.47.36.47.36l.15.12.15.12.78.61c.11.09.13.24.05.36-.08.11-.24.14-.36.06l-.67-.47-.14-.1-.14-.1-.7-.49-.14-.1h-.01s-.09-.07-.14-.1c-.22-.14-.47-.24-.72-.32-.11-.02-.24-.05-.36-.08-.07,0-.13-.02-.2-.02-.6-.04-.77-.08-.85-.1-.07,0-.37.09-.55.3-.08.09-.11.17-.09.25.02.03.25.23,1.49.26.29,0,.57.08.83.2.05.03.11.05.16.08.05.03.1.06.15.1.06.04.12.09.17.14.15.13.31.28.47.42.04.04.09.08.13.12.04.04.09.08.13.12.33.3.62.57.74.7.13.15.15.29.15.38-.01.14-.09.28-.23.39-.22.18-.52.25-.82.21-.26-.04-.77-.1-1.26-.06-.09,0-.17.02-.26.03-.1.02-.2.04-.29.06-.1.03-.2.07-.28.11-.23.13-.26.26-.27.35,0,.05,0,.09.02.14.02.06.05.11.1.16,0,0,0,.01.01.02.04.04.08.06.13.08.07.03.15.04.23.03.12-.02.27-.03.44-.03.7,0,1.82.18,3.33,1.02,1.39.78,2.58.7,3.35.49.22-.46.55-1.45.08-2.76l-.44-.79-.53.19c-.3.11-.63.02-.84-.22-.98-1.13-1.82-1.92-2.46-2.46-.05-.04-.1-.08-.15-.13-.05-.04-.1-.08-.15-.12-.05-.04-.09-.07-.14-.11h0s-.1-.07-.14-.11c-.05-.04-.1-.07-.14-.1-.25-.18-.43-.29-.53-.35-.04-.02-.09-.04-.14-.05-.84-.2-1.59-.35-2.14-.46-.14-.02-.26-.05-.37-.06-.14-.02-.26-.04-.35-.05-.08,0-.14-.01-.18,0-.13.12-.18.21-.11.51.13.16.84.38,1.69.58Z"/>
  <path class="cls-24" d="m123.71,78.12c.07.21.15.44.27.67.08.17.18.34.29.5.29.41.68.78,1.21,1.01.13.06.27.1.42.14.11.03.22.05.34.06.13.01.26.02.39.02.79,0,1.71-.26,2.74-.79,1.2-.61,1.94-1.08,2.4-1.44.16-.12.28-.23.38-.33.13-.12.22-.23.27-.31.1-.14.11-.22.11-.25-.06-.08-.06-.19,0-.28.06-.1.18-.15.3-.12,0,0,.56.16.86-.11.27-.24.25-.76.19-1.15-.1-.59-.28-.97-.52-1.05-.27-.1-.6.17-.6.17-.07.06-.16.08-.25.05-.17-.06-4.19-1.44-5.63-6.05-.43-.07-1.92-.09-3.15,2.58,0,0,0,.01,0,.02-.02.17-.08.83-.13,1.68-.05.72-.09,1.58-.09,2.4,0,.92.03,1.79.16,2.36.02.07.03.14.05.2Z"/>
  <path class="cls-24" d="m103.02,120.66c.22.01.95-.42,1.73-.97.11-.09.23-.18.36-.26.19-.14.38-.28.56-.42.03-.03.07-.04.12-.05l2.53-.43c.14-.02.27.07.3.2.03.14-.06.27-.2.3l-2.17.49c-.31.07-.61.19-.87.36-.09.07-.2.14-.3.22-.05.04-.1.09-.15.13-.44.41-.58.52-.65.56-.06.05-.18.34-.15.6.01.12.06.2.12.24.04,0,.34-.03,1.2-.92.34-.35.79-.57,1.27-.62.74-.08,1.68-.17,1.99-.17.2,0,.32.08.38.15.1.11.14.25.13.43-.02.28-.16.56-.4.75-.34.27-1.14.97-1.31,1.64-.06.26.01.37.07.43.08.08.19.12.32.11.13-.01.26-.08.33-.19.35-.5,1.24-1.43,3.28-2.11,2.13-.71,2.74-2.25,2.9-2.88.06-.22.16-.42.29-.58l-3.44-.81-.22.52c-.12.29-.41.48-.73.47-2.98-.09-4.58.33-5,.46-.05.01-.09.04-.13.06-1.29.89-2.29,1.63-2.48,1.85,0,.17.03.28.3.42Z"/>
  <path class="cls-7" d="m126.07,96.7s-.09-.08-.13-.12c-.04-.04-.09-.08-.13-.12l-.84.95c.08,0,.16,0,.24-.01.08,0,.16,0,.23,0l.62-.7Z"/>
  <path class="cls-7" d="m127.55,93.11s0-.03-.01-.04c0,0,0,0,0,0,0-.01-.02-.03-.03-.04,0,0,0,0,0,0,0,0,0,0-.01-.01l-5.65-4.33h0l-.21-.16-.21-.16-2.54-1.95,1.83-2.11.41-.47.38-.43.79-.91s.03-.05.04-.08l.51-2.4s0,0,0,0c0-.02,0-.04,0-.05,0,0,0-.01,0-.02,0,0,0-.02,0-.02,0,0,0,0,0-.01,0,0,0-.01,0-.02,0-.01-.01-.02-.02-.03,0,0,0,0-.01-.01-.01-.01-.03-.02-.04-.03,0,0,0,0,0,0,0,0,0,0,0,0-.01,0-.02-.01-.04-.01l-24.82-5.28s-.03,0-.05,0c0,0,0,0,0,0,0,0,0,0-.01,0-.01,0-.03,0-.04,0,0,0-.01,0-.02,0,0,0-.02.01-.03.02,0,0-.01,0-.02.01,0,0,0,0-.01.01,0,0,0,0,0,.01,0,0,0,.01-.01.02,0,.01,0,.02-.01.03,0,0,0,0,0,.01l-.51,2.4s0,.07,0,.1l9.52,23.32c.02.06.08.1.14.11.06,0,.12-.01.16-.06l4.49-5.5,3.3,2.92.21.19.21.19,4.52,3.99.24.21.24.21.18.16s.07.04.12.04c0,0,0,0,.01,0,.01,0,.02,0,.04,0,.03,0,.06-.03.08-.05l.19-.21.27-.31,2.71-3.07s-.09-.06-.13-.1c0,0,0,0,0,0-.04-.04-.08-.09-.12-.13l-2.43,2.76-.27.31-.27.31-.08.1-.24-.21-.24-.21-.24-.21-4.45-3.94-.21-.19-.21-.19-3.31-2.93s-.07-.04-.12-.04c0,0,0,0-.01,0-.05,0-.09.03-.12.06l-4.41,5.41-9.39-23,.38-1.79.21.51.7,1.7s0,0,0,0l8.4,20.58c.02.06.08.1.14.11s.12-.01.16-.06l4.49-5.5,3.44,3.04.21.19.21.19,4.14,3.66.24.21.24.21.18.16.23.21s0,0,.01.01c.03.02.07.03.1.03,0,0,0,0,.01,0,.05,0,.09-.02.12-.06l.03-.03,3.99-4.52s-.1-.06-.15-.09c-.05-.03-.11-.05-.17-.07l-3.65,4.13-.2.22-.07-.06-.25-.22-.16-.14-.24-.21-.24-.21-4.08-3.61-.21-.19-.21-.19-3.45-3.05s-.07-.04-.12-.04c0,0,0,0-.01,0-.05,0-.09.03-.12.06l-4.41,5.41-8.17-20-.08-.2-.08-.2-.96-2.35,24.2,5.15h0l-1.41,1.63-.16.18-.13.15-.13.15-2.95,3.4s-.05.08-.04.13c0,.05.03.09.07.12l.41.31.21.16.18.13.03.03.1.08.14.11,2.6,2,.21.16.21.16h0s5.45,4.18,5.45,4.18l-.21.24h0s.09.07.14.1c.04.03.09.07.14.11.02.02.05.04.07.05.05.04.1.08.15.12l.13-.61s0,0,0,0c0-.02,0-.03,0-.05,0,0,0,0,0,0,0,0,0,0,0,0Zm-8.98-6.95l-.21-.16-.21-.16-.22-.17,3.02-3.48s0,0,0,0l.5-.57.89-1.03-.36,1.69-1.22,1.41-.44.5-.55.64-1.18,1.36-.03-.02Z"/>
  <path class="cls-6" d="m121.67,88.98l-.21-.16-.21-.16-2.6-2-.14-.11-.1-.08-.03-.03-.18-.13-.21-.16-.41-.31s-.06-.07-.07-.12c0-.05.01-.1.04-.13l2.95-3.4.13-.15.13-.15.16-.18,1.41-1.63h0l-24.2-5.15.96,2.35.08.2.08.2,8.17,20,4.41-5.41s.07-.06.12-.06c0,0,0,0,.01,0,.04,0,.08.02.12.04l3.45,3.05.21.19.21.19,4.08,3.61.24.21.24.21.16.14.25.22.07.06.2-.22,3.65-4.13c-.16-.06-.32-.09-.49-.1-1.6-.05-1.9-.36-1.97-.63-.08-.27.01-.56.25-.8.08-.08.19-.17.31-.23-.51-.2-.64-.37-.68-.53-.16-.61.08-.87.26-1.05.01-.01.03-.02.04-.04.03-.02.05-.05.12-.07.05-.01.14-.02.26-.02.39.01,1.21.15,3.08.58.1.02.19.06.28.11.12.07.33.2.62.41l.21-.24-5.45-4.18h0Z"/>
  <path class="cls-12" d="m5.62,72.17l3.62.63.37,8.79s-.01.03-.02.05c0,0,0,0,0,.01,0,.02,0,.04,0,.06,0,0,0,0,0,0,0,0,0,0,0,0l.87,16.15.04.69c.05.84.07,1.7.07,2.54v14.28l-3.02,2.73s-.05.06-.07.09l-.39-.06c-.7-.1-1.4.06-1.99.45l-2.54,1.69c-.06.04-.1.1-.11.17-.01.07,0,.14.04.2l6.94,10.48c.27.41.67.7,1.14.84v1.69l-.38.42c-.51.57-.79,1.31-.79,2.08v3.33c0,.16.13.29.29.29h13.72c.65,0,1.27-.28,1.7-.77.42-.47.61-1.1.54-1.71v-.05c-.13-.85-.75-1.56-1.59-1.81l-6.35-1.88,2.11-16.91,5.58-4.47,5.07-4.06c.48-.38.89-.7,1.32-.98.98-.63,1.64-1.62,1.94-2.88.11-.46.18-.95.19-1.48,0-.22,0-.45,0-.67-.06-1.19-.37-2.39-.92-3.51l-8.91-18.37s0-.03,0-.05l.14-2.44c.54-.17,1.02-.52,1.33-1,.38-.57.49-1.28.33-1.94-.08-.33-.2-.67-.34-.99-.06-.14-.18-.39-1.04-.87l.52-9.04,3.69,3.28c.66.58,1.52.91,2.39.91.08,0,.17,0,.25,0,.94-.07,1.8-.49,2.43-1.2l11.29-12.71c.08-.09.2-.13.33-.11.08.01.17.02.26.02.39,0,.76-.13,1.07-.36.47-.34.79-.9.8-1.54.01-.51-.09-.96-.18-1.26-.01-.04,0-.08.01-.09.01-.02.04-.05.09-.05.81-.06,2.27-.15,2.94-.15.57,0,1.1-.44,1.54-1.27.06-.11.08-.23.08-.35,0-.13-.04-.25-.11-.36-.01-.02-.03-.03-.04-.05-.14-.18-.36-.28-.6-.26l-5.84.44c-.24.02-.47.07-.69.15-.61.22-1.13.67-1.43,1.26l-.88,1.72c-.13.26-.31.49-.52.69l-9.36,8.62c-.09.08-.2.12-.32.12-.13,0-.26-.06-.35-.16l-.97-1.11s0-.09-.03-.13c-.18-.35-3.7-7.31-7.8-10.66-.77-.63-1.56-1.13-2.34-1.43l-.18-.9s.06,0,.09,0c1.07,0,2.12-.4,2.92-1.14.89-.82,1.4-1.98,1.4-3.18v-4.26c.25-.15.87-.46,1.77-.6.94-.14,2.19-.08,3.66.57.1.04.22.03.3-.04.09-.07.13-.18.1-.29-.03-.16-.73-3.55-2.99-3.78.35-.39.9-.86,1.49-.77.12.02.24-.04.3-.15.06-.11.05-.24-.04-.34-.02-.02-1.15-1.29-2.8-1.56-.84-.14-1.82-.02-2.85.67-.65.43-1.47.42-2.04-.01-.05-.03-.09-.07-.14-.11-.42-.35-1.23-.63-2.22-.76-2.13-.29-4.16.58-5.45,2.31-1.29,1.74-1.52,3.95-.63,5.91,0,.01.01.03.02.04v.51c0,.17-.14.3-.3.3h-1.15c-.11,0-.21.06-.26.16-.05.1-.04.22.03.31l.82,1.07s0,0,0,.01c0,0,0,0-.01,0h-.58c-.09,0-.17.04-.23.11s-.08.16-.06.25c0,.03.14.62.8,1.02.39.24.87.36,1.44.36.32,0,.67-.04,1.05-.11l-.18,4.34c-1.21.08-5.49.61-8.58,4.38-3.51,4.28-5.5,9.77-5.52,9.83-.02.06-.02.13,0,.2.01.03.1.27.39.58,0,0,0,0,0,0-.03.08-.7,2.11-1.08,5.02-.42,3.16,2.58,3.82,2.62,3.82l2.97.51Zm9.36-23.78s.06,0,.08,0c.23.19.45.35.66.51.24.17.48.32.71.45.99.55,1.88.73,2.66.51.51-.14.89-.43,1.16-.73.11-.12.2-.24.27-.35.07-.11.13-.21.18-.3.03.01.07.03.1.05.41.18.81.42,1.22.7.23.16.45.33.68.52,3.5,2.87,6.69,8.63,7.47,10.12.06.11.1.19.13.25,0,0,0,.01,0,.02-.04.12-.09.23-.15.33-.9,1.65-3.73,2.22-4.9,2.38-.16.02-.29.04-.38.05-.08,0-.13.01-.14.01-.15.01-.26.13-.27.28v.2s-.54,9.24-.54,9.24c-1.31-.64-3.72-1.6-8.21-3.06-2.46-.8-4.9-1.54-6.63-2.05l-.45-3c-.02-.14-.14-.25-.29-.25-.1,0-.2,0-.3,0-.05-.05-.11-.09-.18-.09l-.18-.02-1.56-.16c-.58-.06-1.16-.16-1.73-.3-.76-.18-1.5-.44-2.22-.76-.52-.36-.76-.68-.85-.83.31-.81,2.22-5.68,5.38-9.54,3.01-3.67,7.33-4.12,8.27-4.17Zm-2.12-5.65c-.15-.09-.27-.2-.35-.3h.09c.18,0,.36-.08.47-.23.11-.14.16-.33.11-.51-.02-.08-.06-.16-.11-.23l-.46-.59h.55c.49,0,.89-.4.89-.89v-.57s0-.09-.03-.12l-.04-.1c-.81-1.76-.6-3.75.56-5.32,1.16-1.56,2.99-2.34,4.9-2.08.86.12,1.59.36,1.92.63.05.04.11.09.16.13.77.59,1.86.6,2.72.03.92-.61,1.78-.71,2.52-.57.82.15,1.49.59,1.91.93-.98.29-1.68,1.39-1.71,1.45-.06.1-.06.22,0,.32.06.1.18.15.29.13,1.69-.26,2.52,1.74,2.83,2.75-1.29-.47-2.41-.52-3.3-.41-1.22.15-2.01.62-2.22.76-.65.11-2.27.26-2.8-.28-.55-.55-2.58-1.45-4.34-1.14-1.09.19-1.9.82-2.37,1.81-.02.04-.03.08-.03.12v4.42c-.93.21-1.68.16-2.18-.13Zm11.53-4.19v4.08c0,1.04-.44,2.05-1.21,2.75-.74.68-1.68,1.02-2.67.98-.01,0-.03,0-.04,0-.04,0-.09,0-.13,0-.04,0-.07,0-.11-.01-.02,0-.03,0-.05,0-.1-.01-.2-.02-.3-.04-2.47-.37-3.59-1.9-4.03-2.74-.01-.02-.02-.04-.03-.06-.05-.1-.09-.19-.12-.26-.01-.02-.02-.05-.03-.07-.02-.05-.04-.09-.04-.12v-4.54c.39-.79,1.03-1.27,1.91-1.42,1.6-.28,3.4.56,3.82.98.43.43,1.2.55,1.9.55.24,0,.47,0,.68-.03.17-.01.33-.03.45-.05Zm-8.88,7.15l.06-1.37v-.1s.02.02.02.03c.65.98,1.95,2.33,4.36,2.64l.14.69.11.54v.04c-.15.3-.54.92-1.27,1.12-.91.25-2.13-.22-3.52-1.37l.09-2.22Zm35.9,3.27s.03.06,0,.12c-.19.36-.57.95-1.02.95-.7,0-2.17.1-2.99.16-.21.02-.41.12-.53.3-.12.17-.15.39-.09.59.08.25.16.64.15,1.07-.01.41-.2.77-.48,1.02-.22.19-.5.31-.81.31-.06,0-.11,0-.16-.01-.33-.05-.65.06-.86.3l-11.29,12.71c-.52.59-1.25.95-2.03,1-.8.06-1.61-.22-2.21-.75l-3.72-3.31c1.29-.18,4.3-.81,5.31-2.72l.76.87c.2.23.49.36.79.36.27,0,.52-.1.71-.28l9.36-8.62c.27-.24.48-.53.65-.85l.88-1.72c.23-.45.63-.8,1.1-.97.17-.06.35-.1.54-.12l5.84-.44c.06,0,.09.03.1.05ZM7.59,65.26l.32-.42c.06,0,.12,0,.18,0l.37,2.49c-.68-.2-1.2-.35-1.51-.44l.63-1.63Zm-6.97,2.64c.29-2.21.76-3.92.96-4.6l.26.12s.02,0,.03.01c1.33.61,2.74.99,4.19,1.14l1.22.12-.09.12-.09.12s-.03.05-.04.07l-.76,1.97c-.03.08-.03.16.01.24.04.07.1.13.18.15,0,0,.05.01.12.04.27.08.97.28,1.95.57.09.03.19.05.28.08.11.03.22.07.34.1,1.71.51,4.03,1.21,6.35,1.96,4.79,1.56,7.18,2.53,8.36,3.13.07.04.14.07.21.11.14.07.26.14.36.2.37.23.51.38.54.46.13.29.23.59.31.89.13.51.04,1.04-.25,1.48-.2.31-.48.54-.81.68-.12.05-.25.09-.38.12-.03,0-.05.01-.08.02-.05,0-.09.01-.14.02-.3.04-.59.07-.86.08-1.47.04-2.74-1.01-2.89-2.4-.02-.2-.02-.4,0-.58.02-.16-.09-.3-.24-.32l-9.86-1.71h-.08s-.25-.06-.25-.06l-.28-.05-3.49-.61-2.94-.51c-.15-.03-2.48-.59-2.14-3.17Zm32.7,34.85c0,.14-.01.27-.02.41-.13,1.61-.75,2.78-1.84,3.49-.5.32-.97.69-1.37,1.01l-5.64,4.52-4.54,3.64.19-1.54s0,0,0-.01c0-.03.07-.81.15-2.08.08-1.27.19-3.03.26-4.99l1.44-1.3s2.14-2.01.23-4.59c-.37-.5-.75-1.02-1.11-1.58-.13-.2-.26-.4-.38-.6l-.17-.28c-.02-.62-.03-1.24-.02-1.84l.1-15.49c.29-.07.57-.14.86-.22.72-.2,1.43-.44,2.12-.73l8.88,18.29c.54,1.11.84,2.3.87,3.48,0,.15,0,.29,0,.44Zm-14.17,14.42l-2.03,16.31h-5.98v-32.38c0-.65-.01-1.3-.04-1.96,0-.21-.02-.41-.03-.62l-.84-15.67-.03-.62v-.2c.06,0,.14.02.24.03.67.07,1.9.17,3.43.17,1.76,0,3.93-.14,6.15-.61v.15s-.1,15.2-.1,15.2c0,.28,0,.56,0,.84,0,.19,0,.38,0,.57,0,0,0,.01,0,.02,0,.2.01.4.02.6,0,.09,0,.17,0,.26.1,2.52.07,5.24-.02,7.66,0,.14,0,.27-.01.41,0,.14-.01.27-.02.41-.06,1.52-.14,2.9-.21,3.98-.09,1.47-.17,2.41-.18,2.49l-.27,2.13-.05.42-.05.42Zm5.9,20.16v.05c.06.46-.08.9-.39,1.25-.32.36-.78.57-1.26.57h-13.43v-3.04c0-.62.23-1.22.64-1.69l.36-.41h6.35l6.55,1.94c.2.06.39.16.55.28.33.26.56.63.62,1.05Zm-15.19-6.5l-.31-.47-6.49-9.79,2.32-1.54c.48-.32,1.05-.45,1.62-.36l.5.07,1.71,2.58,1.03,1.55.31.47v8.05c-.28-.12-.52-.31-.69-.57Zm.69-8.45l-.18-.28-2.27-3.72,2.45-2.21v6.21Zm10.01-22.38c.38.58.77,1.12,1.15,1.64,1.59,2.15-.08,3.75-.15,3.81l-1.02.92c.06-2.04.09-4.25.03-6.37Zm-1.26-25.46c0,.15,0,.29.02.44.18,1.66,1.66,2.92,3.38,2.92.04,0,.07,0,.11,0,.26,0,.53-.03.81-.07l-.07,1.18-.05.86v.07c-.26.11-.52.21-.79.31-.46.17-.93.32-1.39.45-.32.09-.65.18-.97.25-.18.04-.37.08-.55.12-.22.04-.43.09-.64.12-2.28.41-4.47.48-6.14.44-.69-.02-1.3-.05-1.79-.09-.07,0-.14-.01-.21-.02-.25-.02-.46-.04-.63-.06-.08,0-.15-.02-.2-.02v-.07s0-.13,0-.13l-.28-6.79-.06-1.55,9.48,1.64Z"/>
  <path class="cls-17" d="m102.8,121.12c.14.08.36.1.85-.14-.03.13-.04.26-.04.38.02.34.16.6.42.73.25.13.68.12,1.8-1.03.25-.26.59-.42.95-.46,1.03-.11,1.71-.17,1.94-.17,0,0,0,.02,0,.03,0,.14-.08.28-.21.38-.47.38-1.29,1.13-1.49,1.92-.12.47.05.76.21.92.17.17.4.26.65.26.03,0,.05,0,.08,0,.29-.02.55-.17.71-.41.31-.44,1.12-1.28,3.02-1.91,2.37-.79,3.05-2.53,3.24-3.24.05-.18.13-.34.26-.46l.2-.2.1.03s.03,0,.05,0c.07,0,.14,0,.22,0,.83,0,2.18-.35,2.46-1.76l.97-3.83,1.68-6.63c.18.12.39.22.62.29v1.35c-.22.2-.72.78-1.14,1.99-.26.74-.41,1.54-.45,2.39l-.03.61-.1,2.02c-.11,2.2.41,4.38,1.52,6.29l1.02,1.76c.69,1.19.94,2.58.7,3.94-.21,1.21-.05,2.44.47,3.55l3.89,8.35c.04.09.14.15.23.15.02,0,.04,0,.06,0l.52-.12,2.7,9.16c.02.07.07.12.13.16.04.02.08.03.12.03.03,0,.05,0,.08-.01l10.34-3.37s.06-.02.08-.04c.03-.02.29-.24.26-.59-.03-.29-.25-.55-.67-.77-.88-.46-4.64-.48-5.64-.48l-1.6-5.42,1.08-.25c.12-.03.21-.14.2-.26l-.81-17.1h3.14c.07,0,.15-.03.19-.09l.34-.39,7.58,5.25s.05.03.08.04c.02,0,.08.02.17.02.13,0,.31-.03.46-.17.21-.2.28-.54.21-1-.16-.98-2.43-3.99-3.03-4.78l4.19-5.69s.05-.09.05-.15c0-.02,0-.04,0-.06-.02-.07-.06-.13-.13-.17l-.04-.02c.75-.41,1.21-1.08,1.46-1.53.29-.55.64-1.11,1.1-1.78,1.52-2.23,4.13-6.1,4.63-6.98.53-.92.86-4-.17-6.26-.64-1.41-1.68-2.26-3.1-2.55-1.83-.37-4,.25-6.28,1.78-1.31.88-2.51,1.97-3.57,3.26-.12-2.2-.28-4.71-.44-6.36-.35-3.65-1.88-5.56-1.95-5.64,0,0,0,0,0,0,0,0,0,0,0,0-.01-.01-.03-.03-.05-.04,0,0,0,0,0,0,0,0,0,0,0,0,0,0,0,0,0,0-.15-.09-.49-.3-.91-.54-2.3-2.14-2.41-5.36-2.54-9.09-.01-.38-.03-.77-.04-1.17-.17-4.17-1.63-6.32-1.79-6.55-2.19-4.17-6.43-2.44-7.1-2.14-.5-.1-2.82-.45-3.87,1.55-.99,1.91-.1,3.25.19,3.62-.07.78-.47,5.23.02,6.78.1.31.27.74.54,1.16l-.22,3.3s0,0,0,0c-.56.15-1.29.36-2.03.65l-.38.43-.41.47c.83-.41,1.76-.72,2.51-.93.28-.08.54-.15.76-.2.04-.01.08-.02.12-.03l-.04.07-.05.1-.22.44-.12.24-2.25,4.38.21.16.21.16h0l2.23-4.35.12-.24.12-.24.2-.39.02-.03.1-.2.03-.05.18.16h0s.84.77.84.77l1.39,1.26c.06.05.13.07.21.06l.64-.08.43-.06.5-.06,5.68-.73.33-.04.33-.04.15-.02c.26.01,1.02.38,1.85.83.15.08.31.17.47.26.15.09.3.17.45.26.16.09.32.19.48.28-.86.54-1.38,1.24-1.69,1.9-.25.52-.34.95-.37,1.12-.08.4-.09.69-.09.76l-.5,6.2c-.46-.05-.87.11-1.09.21-1.77-1.14-3.69-.14-3.78-.1-.06.03-.11.09-.13.16,0,.02,0,.05,0,.07l-.52.19c-.1.04-.21,0-.28-.07-1.11-1.28-2.04-2.14-2.73-2.69-.05-.04-.1-.08-.15-.12-.02-.02-.05-.04-.07-.05-.05-.04-.09-.07-.14-.11-.05-.04-.1-.07-.14-.1h0c-.29-.21-.5-.34-.62-.41-.09-.05-.18-.09-.28-.11-1.87-.43-2.7-.57-3.08-.58-.13,0-.21,0-.26.02-.06.02-.09.04-.12.07-.01.01-.03.02-.04.04-.18.17-.42.44-.26,1.05.04.16.17.33.68.53-.12.07-.22.15-.31.23-.24.24-.33.53-.25.8.08.27.37.58,1.97.63.17,0,.33.04.49.1.06.02.11.04.17.07.05.03.1.06.15.09.06.04.12.08.17.13.17.15.33.29.47.42.04.04.09.08.13.12.04.04.09.08.13.12.36.33.6.55.7.66,0,0-.01.01-.02.02-.11.09-.26.12-.42.1-.23-.04-.54-.07-.88-.08-.08,0-.15,0-.23,0-.08,0-.16,0-.24.01-.38.03-.76.1-1.07.27-.43.23-.53.55-.54.78,0,.21.05.41.17.57.03.05.07.09.12.13,0,0,0,0,0,0,.04.04.09.07.13.1.19.12.42.18.65.15.54-.07,1.7-.04,3.45.93.94.52,1.8.7,2.53.7.32,0,.62-.04.89-.09.22,1.41.83,2.62,1.5,3.58l-11.05.83c-.32-.08-.58-.22-.79-.39l.11-2.64-.27.31-.19.21s-.05.04-.08.05l-.06,1.5-.02.41v.25s-.04.1-.04.1l-1.78,7-.94,3.71s0,0,0,.01c-.28,1.4-1.89,1.36-2.11,1.34l-5.4-1.47,1.03-3.6,3.98-13.87-.21-.19-.21-.19-4.09,14.25-1.06,3.71c-.02.07-.01.14.02.2.03.06.09.1.16.12l1.07.29-.29.68c-.04.1-.14.16-.24.15-3.06-.09-4.73.35-5.17.49-.1.03-.19.07-.27.13-2.71,1.85-2.71,2.06-2.71,2.22,0,.25,0,.64.59.95Zm7.53-3.27c.32,0,.61-.17.73-.47l.22-.52,3.44.81c-.14.17-.24.37-.29.58-.16.63-.77,2.16-2.9,2.88-2.04.68-2.93,1.61-3.28,2.11-.08.11-.2.18-.33.19-.12.01-.23-.03-.32-.11-.06-.06-.14-.18-.07-.43.17-.67.97-1.37,1.31-1.64.24-.19.38-.46.4-.75.01-.18-.03-.33-.13-.43-.06-.07-.18-.15-.38-.15-.31,0-1.26.09-1.99.17-.48.05-.93.27-1.27.62-.87.89-1.17.92-1.2.92-.07-.04-.11-.12-.12-.24-.03-.27.09-.56.15-.6.07-.04.21-.15.65-.56.05-.05.1-.09.15-.13.11-.07.21-.15.3-.22.27-.17.56-.29.87-.36l2.17-.49c.14-.03.22-.16.2-.3-.03-.14-.16-.23-.3-.2l-2.53.43s-.08.02-.12.05c-.18.14-.37.28-.56.42-.12.08-.24.16-.36.26-.78.55-1.52.98-1.73.97-.27-.15-.3-.25-.3-.42.19-.22,1.19-.97,2.48-1.85.04-.03.09-.05.13-.06.42-.13,2.02-.55,5-.46Zm13.82-18.97s-.09-.05-.13-.08c0,0,0-.01-.01-.02-.05-.05-.08-.1-.1-.16-.01-.04-.02-.09-.02-.14,0-.09.04-.22.27-.35.09-.05.18-.08.28-.11.09-.03.19-.05.29-.06.09-.01.17-.02.26-.03.49-.04,1,.02,1.26.06.3.05.6-.03.82-.21.14-.11.22-.24.23-.39,0-.09-.01-.24-.15-.38-.12-.13-.41-.4-.74-.7-.04-.04-.09-.08-.13-.12-.04-.04-.09-.08-.13-.12-.16-.14-.32-.29-.47-.42-.05-.05-.11-.09-.17-.14-.05-.03-.1-.07-.15-.1-.05-.03-.1-.06-.16-.08-.26-.12-.54-.2-.83-.2-1.24-.04-1.47-.24-1.49-.26-.02-.08.01-.16.09-.25.18-.2.47-.31.55-.3.08.02.25.06.85.1.07,0,.13.01.2.02.13.03.25.05.36.08.25.07.49.18.72.32.05.03.09.06.14.09h.01s.14.11.14.11l.7.49.14.1.14.1.67.47c.12.08.27.05.36-.06.08-.11.06-.27-.05-.36l-.78-.61-.15-.12-.15-.12-.47-.36h0s-.14-.11-.14-.11l-.14-.11h0s-.2-.15-.2-.15c-.03-.03-.07-.04-.12-.05-.17-.03-.35-.06-.53-.1-.05-.01-.11-.02-.16-.03-.08-.02-.16-.04-.24-.06-.06-.01-.13-.02-.19-.03-.07-.01-.13-.03-.2-.05-.84-.2-1.56-.42-1.69-.58-.08-.3-.02-.39.11-.51.04,0,.1,0,.18,0,.09,0,.21.03.35.05.11.02.24.04.37.06.55.1,1.3.26,2.14.46.05.01.09.03.14.05.1.06.29.17.53.35.05.03.09.07.14.1.05.03.09.07.14.11h0s.09.07.14.11c.05.04.1.08.15.12.05.04.1.08.15.13.64.53,1.48,1.32,2.46,2.46.21.24.54.33.84.22l.53-.19.44.79c.47,1.31.15,2.3-.08,2.76-.77.22-1.95.29-3.35-.49-1.51-.84-2.63-1.02-3.33-1.02-.17,0-.32.01-.44.03-.08.01-.16,0-.23-.03Zm7.7,1.95c.05-.08.11-.2.17-.34.04-.1.09-.21.13-.34.1-.31.18-.7.18-1.16,0-.19,0-.39-.04-.6-.04-.3-.12-.63-.25-.97-.11-.31-.26-.62-.46-.96.56-.21,1.92-.58,3.11.27.09.06.2.06.29,0,0,0,.44-.27.92-.22.04,0,.09.01.13.02.04,0,.08.02.12.04.09.03.17.08.25.13.16.11.3.26.43.46.06.1.18.14.29.11.11-.03.19-.14.18-.26l-.26-7.86s0-.04.01-.08c.02-.1.06-.28.14-.51.21-.59.68-1.5,1.68-2.13.02-.01.04-.02.06-.04.03-.02.06-.04.1-.06,0,0,0,0,0,0,0,0,0,0,0,0,.37.53,1.44,2.3,1.71,5.2.17,1.79.34,4.59.47,6.91,0,.13.01.26.02.39,0,.13.01.26.02.39.07,1.23.12,2.25.14,2.82.02.31.04.63.07.93.1.89-.04,3.04-3.33,3.69-.25.05-.52.07-.8.07-1.23,0-2.4-.51-3.22-1.4-.1-.11-.21-.24-.32-.37h0c-.07-.08-.13-.16-.2-.24-.06-.08-.13-.16-.19-.24-.7-.94-1.38-2.18-1.6-3.62.01-.02.02-.04.03-.06Zm4.82-7.39l.1,2.9c-.1-.08-.21-.14-.32-.19l.22-2.71Zm-3.49,11.61c.19.25.39.47.57.67.92.99,2.23,1.56,3.6,1.56.32,0,.62-.03.9-.08,3.81-.75,3.83-3.44,3.74-4.25-.03-.29-.05-.59-.07-.9-.03-.66-.09-1.93-.17-3.41l.17-.22c1.07-1.34,2.3-2.48,3.64-3.38,1.51-1.01,3.76-2.13,5.89-1.7,1.24.25,2.16,1.01,2.73,2.26.97,2.12.61,5.06.19,5.79-.49.86-3.1,4.72-4.61,6.94-.47.68-.82,1.27-1.13,1.83-.24.45-.74,1.16-1.56,1.46l-4.16-2.36c-.11-.06-.26-.03-.34.07l-2.1,2.86-3.81,5.17c-.04.06-.06.13-.05.2.01.07.05.13.11.17l.94.65-.22.25h-3.29c-.07,0-.14.03-.19.08-.05.05-.07.12-.07.19l.82,17.16-.9.21-.25.06-.25.06-3.16.74-1.43.33-.69.16-.3.07-3.8-8.16c-.47-1.02-.62-2.14-.43-3.24.26-1.47-.02-2.99-.76-4.28l-1.02-1.76c-1.06-1.82-1.56-3.9-1.45-6l.11-2.05.03-.58c.04-.8.18-1.55.42-2.25.48-1.39,1.05-1.83,1.06-1.83.07-.05.11-.13.11-.21v-1.43l2.83-.21,8.35-.63h0Zm13.85,7.14l.13.07-4.13,5.61c-.07.09-.07.22,0,.31,1.16,1.5,2.93,3.99,3.05,4.7.07.39-.02.51-.05.54-.03.03-.09.04-.12.04l-7.48-5.18-.21-.15-.21-.15-.77-.53,3.87-5.26,1.74-2.36,1.53.87,2.28,1.29.34.19h.01Zm-11.66,30.52c1.9-.02,4.95.08,5.59.42.35.19.39.32.4.36,0,.05-.02.09-.04.12l-10.03,3.27-2.62-8.88,4.79-1.11,1.66,5.64c.03.11.13.18.25.18Zm-8.55-58.26l-.84-.76-.56-.51.6-.17c.11-.03.19-.13.19-.25v-1.74c.13.01.26.02.4.02.88,0,1.88-.28,2.99-.85,1.23-.63,2.14-1.19,2.72-1.68v4.08c0,.1.06.18.14.23l2.16,1.15-6.59.84-.43.06-.26.03-.5-.46Zm-3.17-6.52c-.13-.57-.17-1.44-.16-2.36,0-.82.05-1.68.09-2.4.05-.85.12-1.51.13-1.68,0,0,0-.01,0-.02,1.22-2.67,2.71-2.65,3.15-2.58,1.44,4.6,5.45,5.99,5.63,6.05.09.03.18.01.25-.05,0,0,.33-.27.6-.17.24.09.42.46.52,1.05.07.39.09.91-.19,1.15-.3.27-.86.11-.86.11-.11-.03-.24.01-.3.12-.05.09-.05.2,0,.28,0,.02-.01.1-.11.25-.06.08-.14.18-.27.31-.1.1-.23.2-.38.33-.46.36-1.21.83-2.4,1.44-1.03.52-1.95.79-2.74.79-.13,0-.26,0-.39-.02-.12-.01-.23-.03-.34-.06-.14-.03-.28-.08-.42-.14-.53-.22-.92-.6-1.21-1.01-.11-.16-.21-.33-.29-.5-.11-.23-.2-.46-.27-.67-.02-.06-.04-.13-.05-.2Zm.57,2.13c.28.29.62.55,1.05.73.14.06.28.1.43.14v1.64l-.73.2-.22-.2s0,0-.01,0c0,0-.01,0-.02-.01-.01,0-.02-.02-.04-.02,0,0-.01,0-.02,0-.02,0-.03,0-.05-.01,0,0-.01,0-.02,0-.02,0-.04,0-.06,0,0,0,0,0,0,0,0,0,0,0,0,0-.03,0-.21.04-.48.11l.17-2.56Zm11.05,3.69l-2.44-1.3v-4.46c.1-.14.17-.28.2-.41.29.02.69,0,.99-.28.36-.32.48-.86.35-1.62-.13-.81-.42-1.3-.85-1.45-.4-.15-.79.05-.99.17-.68-.27-4.03-1.79-5.22-5.8-.02-.08-.09-.15-.17-.17-.09-.03-2.14-.67-3.74,2.5-.29-.47-.65-1.46.05-2.8.98-1.88,3.28-1.3,3.37-1.27.06.02.13,0,.18-.02.01,0,1.11-.56,2.46-.6,1.79-.05,3.15.79,4.04,2.5,0,.01.01.02.02.04.02.02,1.53,2.1,1.7,6.28.02.39.03.78.04,1.17.11,3.26.21,6.15,1.74,8.35-.66-.34-1.29-.62-1.63-.66-.02-.06-.06-.12-.12-.15Z"/>
  <path class="cls-23" d="m9.9,74.45l.28,6.79v.13s0,.07,0,.07c.06,0,.13.02.2.02.17.02.38.04.63.06.07,0,.14.01.21.02.49.04,1.09.08,1.79.09,1.67.04,3.86-.03,6.14-.44.21-.04.43-.08.64-.12.18-.04.37-.08.55-.12.32-.08.65-.16.97-.25.47-.13.93-.28,1.39-.45.26-.1.52-.2.78-.31v-.07s.05-.86.05-.86c-5.07-.13-4.82-3.06-4.82-3.06l-8.85-1.51Z"/>
  <path class="cls-23" d="m8.63,64.51l.45,3c1.73.51,4.18,1.25,6.63,2.05,4.49,1.46,6.9,2.42,8.21,3.06l.53-9.24v-.2c.02-.15.14-.26.28-.28,0,0,.05,0,.14-.01.09,0,.22-.02.38-.05,1.17-.17,4-.73,4.9-2.38.06-.11.11-.22.15-.33,0,0,0-.01,0-.02-.03-.06-.08-.14-.13-.25-.78-1.48-3.97-7.25-7.47-10.12-.23-.18-.45-.36-.68-.52-.27.26-.8.73-1.51,1.09-.18.09-.37.18-.57.26-.16.06-.33.11-.5.16-.49.13-1.02.18-1.59.11-.11-.01-.22-.03-.32-.05-.15-.03-.3-.06-.44-.09-.16-.04-.32-.08-.47-.13-1.65-.54-2.37-1.56-2.37-1.56,0,0-10.08,3.85-9.87,14.69.57.14,1.14.24,1.73.3l1.56.16.18.02c.07,0,.14.04.18.09.1,0,.2,0,.3,0,.14,0,.27.11.29.25Z"/>
  <path class="cls-23" d="m115.25,26.33c-.51-.08-1.03-.12-1.56-.12h-61.33c-.49,0-.96.03-1.43.1-3.89.55-7.09,3.32-8.25,6.98-.31.97-.48,2.01-.48,3.08,0,1.18.2,2.32.58,3.37,1.27,3.59,4.5,6.26,8.39,6.72.39.05.79.07,1.19.07h61.33c.45,0,.88-.03,1.31-.08,3.84-.5,7.01-3.15,8.27-6.7.37-1.06.58-2.19.58-3.37,0-1.07-.17-2.11-.48-3.08-1.15-3.62-4.29-6.37-8.13-6.96Zm-46.35,15.98h-2.41l-1.21-4.51-.36-1.32-.12-.44c-.28-1.1-.51-2.18-.79-3.36h-.1c-.25,1.18-.49,2.29-.8,3.39l-.11.41-.35,1.32-1.18,4.51h-2.31l-.11-.4-1.14-4.1-.37-1.32-1.63-5.85h2.02l.82,3.2.68,2.65.23.9c.03.14.06.28.1.43.21.95.4,1.88.6,2.83h.1c.14-.62.29-1.23.44-1.85.08-.33.16-.66.25-.98.04-.14.07-.28.11-.43l.24-.9,1.56-5.85h1.93l1.58,5.85.24.9c.04.14.07.28.11.43.24.95.47,1.88.7,2.83h.1c.22-.96.41-1.88.63-2.83.03-.14.06-.28.1-.43l.23-.9,1.48-5.85h1.88l-1.57,5.85-.36,1.32-1.21,4.51Zm17.25,0h-2.41l-1.21-4.51-.36-1.32-.12-.44s0-.04-.01-.06c-.28-1.08-.5-2.14-.77-3.3h-.1c-.25,1.18-.49,2.29-.8,3.39l-.11.41-.35,1.32-1.18,4.51h-2.31l-1.25-4.51-.37-1.32-1.63-5.85h2.02l1.5,5.85.23.9c.03.14.06.28.1.43.21.95.4,1.88.6,2.83h.1c.22-.95.44-1.89.68-2.83.04-.14.07-.28.11-.43l.24-.9,1.56-5.85h1.93l1.58,5.85.24.9c.03.1.05.2.08.31.01.04.02.08.03.12.24.95.47,1.88.7,2.83h.1c.22-.96.41-1.88.63-2.83.03-.14.06-.28.1-.43l.23-.9,1.48-5.85h1.88l-1.57,5.85-.36,1.32-1.21,4.51Zm17.25,0h-2.41l-1.21-4.51-.36-1.32-.12-.44c-.28-1.1-.51-2.18-.79-3.36h-.1c-.25,1.18-.49,2.29-.8,3.39l-.11.41-.35,1.32-1.18,4.51h-2.31l-1.25-4.51-.37-1.32-1.63-5.85h2.02l1.5,5.85.23.9c.03.14.06.28.1.43.21.95.4,1.88.6,2.83h.1c.22-.95.44-1.89.68-2.83.04-.14.07-.28.11-.43l.24-.9,1.56-5.85h1.93l1.58,5.85.24.9c.04.14.07.28.11.43.24.95.47,1.88.7,2.83h.1c.22-.96.41-1.88.63-2.83.03-.14.06-.28.1-.43l.23-.9,1.48-5.85h1.88l-1.18,4.39-.39,1.46-.36,1.32-1.21,4.51Zm5.71.29c-.79,0-1.43-.62-1.43-1.5s.64-1.53,1.43-1.53,1.43.62,1.43,1.53-.64,1.5-1.43,1.5Z"/>
  <path class="cls-9" d="m114.98,25.35c-.42-.05-.85-.07-1.28-.07h-61.33c-.17,0-.34,0-.52.01-.21,0-.43.03-.64.05-.49.05-.98.14-1.45.25-2.85.69-5.28,2.48-6.8,4.9-1.07,1.71-1.69,3.72-1.69,5.88,0,2.28.69,4.4,1.88,6.17,1.84,2.74,4.86,4.62,8.33,4.89.29.02.59.04.89.04h61.33c.34,0,.68-.02,1.02-.05,3.42-.31,6.39-2.18,8.2-4.88,1.18-1.77,1.88-3.89,1.88-6.17,0-2.16-.62-4.18-1.69-5.88-1.75-2.79-4.7-4.75-8.12-5.14Zm8.88,11.02c0,1.18-.2,2.32-.58,3.37-1.25,3.55-4.43,6.2-8.27,6.7-.43.06-.87.08-1.31.08h-61.33c-.4,0-.8-.02-1.19-.07-3.9-.46-7.13-3.13-8.39-6.72-.37-1.06-.58-2.19-.58-3.37,0-1.07.17-2.11.48-3.08,1.17-3.66,4.36-6.43,8.25-6.98.47-.07.94-.1,1.43-.1h61.33c.53,0,1.05.04,1.56.12,3.84.59,6.97,3.34,8.13,6.96.31.97.48,2.01.48,3.08Z"/>
  <path class="cls-2" d="m64.93,36.48l.36,1.32,1.21,4.51h2.41l1.21-4.51.36-1.32,1.57-5.85h-1.88l-1.48,5.85-.23.9c-.03.14-.06.28-.1.43-.21.95-.41,1.88-.63,2.83h-.1c-.24-.96-.46-1.88-.7-2.83-.04-.14-.07-.28-.11-.43l-.24-.9-1.58-5.85h-1.93l-1.56,5.85-.24.9c-.04.14-.07.28-.11.43-.08.33-.17.66-.25.98-.15.61-.29,1.22-.44,1.85h-.1c-.19-.96-.39-1.88-.6-2.83-.03-.14-.06-.28-.1-.43l-.23-.9-.68-2.65-.82-3.2h-2.02l1.63,5.85.37,1.32,1.14,4.1.11.4h2.31l1.18-4.51.35-1.32.11-.41c.31-1.1.55-2.21.8-3.39h.1c.28,1.18.51,2.26.79,3.36l.12.44Z"/>
  <path class="cls-2" d="m80.26,36.48l.11-.41c.31-1.1.55-2.21.8-3.39h.1c.28,1.16.5,2.22.77,3.3,0,.02,0,.04.01.06l.12.44.36,1.32,1.21,4.51h2.41l1.21-4.51.36-1.32,1.57-5.85h-1.88l-1.48,5.85-.23.9c-.03.14-.06.28-.1.43-.21.95-.41,1.88-.63,2.83h-.1c-.24-.96-.46-1.88-.7-2.83-.01-.04-.02-.08-.03-.12-.03-.1-.05-.2-.08-.31l-.24-.9-1.58-5.85h-1.93l-1.56,5.85-.24.9c-.04.14-.07.28-.11.43-.24.94-.46,1.88-.68,2.83h-.1c-.19-.96-.39-1.88-.6-2.83-.03-.14-.06-.28-.1-.43l-.23-.9-1.5-5.85h-2.02l1.63,5.85.37,1.32,1.25,4.51h2.31l1.18-4.51.35-1.32Z"/>
  <path class="cls-2" d="m95.98,42.31l1.18-4.51.35-1.32.11-.41c.31-1.1.55-2.21.8-3.39h.1c.28,1.18.51,2.26.79,3.36l.12.44.36,1.32,1.21,4.51h2.41l1.21-4.51.36-1.32.39-1.46,1.18-4.39h-1.88l-1.48,5.85-.23.9c-.03.14-.06.28-.1.43-.21.95-.41,1.88-.63,2.83h-.1c-.24-.96-.46-1.88-.7-2.83-.04-.14-.07-.28-.11-.43l-.24-.9-1.58-5.85h-1.93l-1.56,5.85-.24.9c-.04.14-.07.28-.11.43-.24.94-.46,1.88-.68,2.83h-.1c-.19-.96-.39-1.88-.6-2.83-.03-.14-.06-.28-.1-.43l-.23-.9-1.5-5.85h-2.02l1.63,5.85.37,1.32,1.25,4.51h2.31Z"/>
  <path class="cls-2" d="m109.1,39.58c-.79,0-1.43.62-1.43,1.53s.64,1.5,1.43,1.5,1.43-.62,1.43-1.5-.64-1.53-1.43-1.53Z"/>
</svg>